<?xml version="1.0" standalone="no"?>
<!DOCTYPE svg PUBLIC "-//W3C//DTD SVG 1.1//EN" "http://www.w3.org/Graphics/SVG/1.1/DTD/svg11.dtd" >
<svg xmlns="http://www.w3.org/2000/svg">
<metadata></metadata>
<defs>
<font id="carlsberg_sanslight" horiz-adv-x="1130" >
<font-face units-per-em="2048" ascent="1638" descent="-410" />
<missing-glyph horiz-adv-x="573" />
<glyph horiz-adv-x="2048" />
<glyph horiz-adv-x="2048" />
<glyph unicode="&#xd;" horiz-adv-x="573" />
<glyph unicode=" "  horiz-adv-x="573" />
<glyph unicode="&#x09;" horiz-adv-x="573" />
<glyph unicode="&#xa0;" horiz-adv-x="573" />
<glyph unicode="!" horiz-adv-x="494" d="M164 0v182h209v-182h-209zM190 420v1069h113q23 0 33 -11t10 -36v-1069h-113q-43 0 -43 47z" />
<glyph unicode="&#x22;" horiz-adv-x="592" d="M98 1489h105q46 0 43 -47l-23 -387h-63q-23 0 -32 11t-11 36zM367 1489h104q46 0 43 -47l-22 -387h-64q-23 0 -32 11t-11 36z" />
<glyph unicode="#" horiz-adv-x="1378" d="M61 311v127h248l119 500h-211v127h242l92 381q6 25 14 34t31 9h102l-102 -424h369l92 381q6 25 14 34t31 9h102l-102 -424h215v-127h-246l-119 -500h209v-127h-239l-101 -417q-6 -25 -14 -34.5t-31 -9.5h-102l110 461h-368l-101 -417q-6 -25 -14 -34.5t-31 -9.5h-102 l111 461h-218zM446 438h369l119 500h-369z" />
<glyph unicode="$" horiz-adv-x="1157" d="M123 1038q0 66 16 138t58 135t115.5 109t189.5 61v192h88q23 0 33 -11t10 -36v-139q75 -2 135.5 -11.5t103.5 -20.5q50 -12 89 -28l-48 -139q-3 -8 -9 -13t-17 -5q-15 0 -35 14q-48 31 -99.5 46.5t-119.5 15.5v-555q87 -19 160.5 -42t127 -63t83.5 -104t30 -164 q0 -208 -101.5 -315t-299.5 -126v-206h-88q-23 0 -33 11t-10 36v155q-75 2 -139.5 12t-114.5 21q-58 12 -107 27l29 131q54 -13 110 -23q48 -8 106.5 -15t115.5 -7v553q-87 16 -157 43t-119.5 69.5t-76 104.5t-26.5 149zM287 1038q0 -54 19.5 -91.5t50.5 -63t69.5 -41.5 t75.5 -25v518q-110 -24 -162.5 -100t-52.5 -197zM633 129q79 15 126 46.5t71.5 71.5t32 84.5t7.5 86.5q0 55 -19 93t-51 64t-75.5 43t-91.5 29v-518z" />
<glyph unicode="%" horiz-adv-x="1855" d="M131 1153q0 92 27.5 160.5t76 114t116 68t147.5 22.5t146.5 -22.5t114.5 -68t74.5 -114t26.5 -160.5t-26.5 -160.5t-74.5 -114t-114.5 -68t-146.5 -22.5t-147.5 22.5t-116 68t-76 114t-27.5 160.5zM289 1153q0 -61 15 -106.5t42.5 -76t66 -46t85.5 -15.5q102 0 154.5 58 t52.5 186q0 122 -54 183t-153 61q-48 0 -86.5 -13.5t-65.5 -43t-42 -76t-15 -111.5zM395 0l856 1448q14 25 28.5 33t37.5 8h129l-854 -1448q-14 -25 -28.5 -33t-37.5 -8h-131zM995 342q0 92 27.5 160.5t76 114t116 68t147.5 22.5t146.5 -22.5t114.5 -68t74.5 -114 t26.5 -160.5t-26.5 -160.5t-74.5 -114t-114.5 -68t-146.5 -22.5t-147.5 22.5t-116 68t-76 114t-27.5 160.5zM1153 342q0 -61 15 -106.5t42.5 -76t66 -46t85.5 -15.5q102 0 154.5 58t52.5 186q0 122 -54 183t-153 61q-48 0 -86.5 -13.5t-65.5 -43t-42 -76t-15 -111.5z" />
<glyph unicode="&#x26;" horiz-adv-x="1495" d="M143 426q0 84 17.5 142t42 96.5t50.5 60.5t44 33q20 12 38.5 20.5t32.5 16t22.5 16t8.5 20.5q0 10 -8.5 18.5t-22.5 17t-31 18.5t-34 24q-14 12 -30.5 31.5t-30.5 48.5t-23.5 69.5t-9.5 94.5q0 96 34.5 163t95 109t142.5 61t176 19q73 0 136.5 -10t110.5 -22 q55 -14 100 -31l-48 -137q-7 -19 -26 -19q-15 0 -35 14q-48 31 -104.5 49.5t-133.5 18.5q-135 0 -212.5 -53.5t-77.5 -157.5q0 -128 81 -199t234 -71h72v-137h-99q-173 0 -263.5 -84t-90.5 -242q0 -75 31.5 -133t87 -97t132 -59t165.5 -20q94 0 174.5 16t139.5 51.5t92.5 93 t33.5 140.5q0 64 -19 112t-42 80q-26 38 -60 64l-116 -99q-50 -41 -79 -76t-44 -67t-20.5 -62t-8.5 -61h-135q0 26 3.5 62.5t23 82t61 101.5t117.5 121l344 297q48 40 76 75.5t43 67.5t21 62t9 61h135q0 -26 -3.5 -61.5t-23 -81t-60.5 -101.5t-115 -123l-115 -102 q46 -34 83 -84q15 -21 30 -48t27 -59.5t19 -70t7 -80.5q0 -87 -31.5 -168t-102.5 -144t-185.5 -101t-280.5 -38q-107 0 -191 18t-147.5 50t-108 75t-72.5 93t-40.5 105t-12.5 110z" />
<glyph unicode="'" horiz-adv-x="346" d="M98 1489h105q46 0 43 -47l-23 -387h-63q-23 0 -32 11t-11 36z" />
<glyph unicode="(" horiz-adv-x="698" d="M143 672q0 216 18.5 382.5t65 279.5t126.5 171t202 58v-125q-78 -6 -127 -51.5t-77.5 -137.5t-39 -233.5t-10.5 -339.5q0 -191 11 -332t39.5 -235t78 -142t125.5 -53v-131q-122 0 -202 58t-126.5 171t-65 279t-18.5 381z" />
<glyph unicode=")" horiz-adv-x="698" d="M143 -92q78 5 127 50.5t77.5 137.5t39 234t10.5 340q0 191 -11 332t-39.5 234.5t-78 141.5t-125.5 54v131q122 0 202 -58.5t126.5 -171.5t65 -278.5t18.5 -380.5q0 -217 -18.5 -383t-65 -279t-126.5 -171t-202 -58v125z" />
<glyph unicode="*" horiz-adv-x="668" d="M41 1223l31 92q10 32 34 32q9 0 21 -6l168 -84l-27 230h99q21 0 31.5 -7.5t10.5 -25.5q0 -2 -0.5 -5t-0.5 -5l-27 -189l211 97l31 -92q2 -5 3 -9.5t1 -9.5q0 -26 -35 -33l-182 -32l153 -172l-80 -58q-6 -5 -13 -7.5t-13 -2.5q-19 0 -31 22l-86 166l-117 -200l-78 57 q-21 15 -21 32q0 13 13 27l133 134z" />
<glyph unicode="+" horiz-adv-x="942" d="M92 485v136h309v317h97q43 0 43 -47v-270h309v-136h-309v-317h-97q-43 0 -43 47v270h-309z" />
<glyph unicode="," horiz-adv-x="442" d="M123 -195q27 26 49 57q18 26 33.5 61t15.5 77h-90v182h209v-137q0 -40 -7 -74.5t-18 -63t-25 -52t-29 -41.5q-35 -43 -79 -72z" />
<glyph unicode="-" horiz-adv-x="780" d="M123 481v144h534v-144h-534z" />
<glyph unicode="." horiz-adv-x="451" d="M121 0v182h209v-182h-209z" />
<glyph unicode="/" horiz-adv-x="829" d="M0 -182l670 1810q9 25 18.5 34t32.5 9h108l-669 -1810q-10 -25 -19 -34t-32 -9h-109z" />
<glyph unicode="0" horiz-adv-x="1282" d="M109 733q0 189 28 333t90.5 241t163.5 146.5t248 49.5t248.5 -49.5t165.5 -146.5t92.5 -241t28.5 -333t-28.5 -331.5t-92.5 -237.5t-165.5 -143t-248.5 -48t-248 48t-163.5 143t-90.5 237.5t-28 331.5zM279 733q0 -170 20 -287t63.5 -190.5t111.5 -106t165 -32.5 t166 32.5t113 105.5t65 190.5t21 287.5t-21 289t-65 194t-113 109.5t-166 34.5t-165 -34t-111.5 -109t-63.5 -194t-20 -290z" />
<glyph unicode="1" horiz-adv-x="635" d="M129 1370v119h272q23 0 33 -11t10 -36v-1442h-116q-23 0 -33 11t-10 36v1323h-156z" />
<glyph unicode="2" horiz-adv-x="1075" d="M86 47v193q0 100 35.5 174t92.5 131.5t128.5 101.5t144.5 84q64 35 123.5 70t105.5 76t73.5 91t27.5 115q0 83 -24.5 137.5t-69.5 86.5t-108.5 44.5t-141.5 12.5q-75 0 -133.5 -13t-100.5 -28q-49 -18 -87 -41l-41 129q42 25 97 45q48 17 116 31t157 14q243 0 369.5 -97 t126.5 -308q0 -99 -36.5 -171.5t-95.5 -128t-132.5 -99t-147.5 -85.5q-63 -35 -121.5 -72t-103 -81t-71.5 -99t-27 -127v-92h727v-141h-840q-23 0 -33 11t-10 36z" />
<glyph unicode="3" horiz-adv-x="1040" d="M0 49l41 121q39 -17 92 -30q45 -11 110 -20t150 -9q93 0 163 20t117.5 57t71 89.5t23.5 117.5q0 71 -19.5 127t-64.5 95t-117.5 60t-177.5 21h-80v142h53q108 0 178.5 24.5t112.5 65.5t59 94t17 111q0 63 -21 107.5t-60.5 72t-95.5 40.5t-126 13q-68 0 -124.5 -11 t-98.5 -25q-48 -16 -88 -36l-41 131q47 20 102 37q48 14 111.5 25.5t138.5 11.5q98 0 183.5 -17t148.5 -59.5t99 -114t36 -180.5q0 -57 -12 -100.5t-29 -75t-36 -52t-34 -32.5q-18 -15 -34.5 -25t-29 -18.5t-20.5 -17t-8 -18.5q0 -12 8.5 -20.5t22.5 -15.5t31.5 -15.5 t35.5 -20.5t42.5 -33t47 -56.5t38.5 -90t16 -133.5q0 -52 -9.5 -104.5t-33 -100.5t-63 -89t-100 -71.5t-144 -48t-193.5 -17.5q-97 0 -169.5 11.5t-121.5 25.5q-57 16 -98 37z" />
<glyph unicode="4" horiz-adv-x="1102" d="M68 344v135q0 90 29 163t76.5 134.5t108.5 114.5t126 104q67 52 131.5 104.5t115.5 111.5t82 127.5t31 152.5h121q23 0 33 -11t10 -36q0 -92 -38 -169t-98 -144.5t-134.5 -127.5t-147.5 -118q-57 -45 -108.5 -91t-91 -94.5t-62.5 -101t-23 -111.5v-57h564v293h116 q23 0 33 -11t10 -36v-676h-116q-23 0 -33 11t-10 36v250h-682q-23 0 -33 11t-10 36z" />
<glyph unicode="5" horiz-adv-x="1077" d="M55 51l43 131q41 -20 91 -35q43 -13 100.5 -23.5t124.5 -10.5q114 0 190 30t122 80t65.5 116t19.5 138q0 64 -16 118t-52.5 93t-97 60.5t-149.5 21.5q-63 0 -115.5 -4.5t-93.5 -10t-69 -10t-42 -4.5q-20 0 -31.5 11.5t-11.5 35.5v701h768v-141h-616v-463q35 7 76 13 q35 5 81 9t97 4q131 0 217 -38.5t137 -99.5t71.5 -136.5t20.5 -149.5q0 -49 -8 -106.5t-29.5 -114.5t-59 -109.5t-97.5 -93t-145 -64.5t-200 -24q-94 0 -165.5 12t-122.5 26q-59 17 -103 38z" />
<glyph unicode="6" horiz-adv-x="1141" d="M104 539q0 235 44 412.5t141.5 296.5t254 179t380.5 60v-135q-122 0 -216 -23.5t-164 -63t-118.5 -91.5t-78.5 -109t-44 -115t-16 -110q32 30 77 55q38 20 96 37.5t136 17.5q111 0 197 -31t145 -92.5t90 -152t31 -209.5q0 -109 -31.5 -199.5t-92.5 -155.5t-150 -101 t-203 -36q-105 0 -181.5 26.5t-130 71t-86 102.5t-50.5 120.5t-24 126t-6 119.5zM266 496q0 -93 21.5 -167t62.5 -125t99.5 -78.5t132.5 -27.5q81 0 140.5 27t97.5 75.5t56.5 116t18.5 148.5q0 178 -82.5 265t-230.5 87q-71 0 -129 -19.5t-99.5 -59t-64.5 -100t-23 -142.5z " />
<glyph unicode="7" horiz-adv-x="977" d="M41 1348v141h895v-215q0 -75 -10.5 -129t-30.5 -96.5t-50 -77t-69 -70t-87 -76t-105 -94.5q-69 -66 -107.5 -135.5t-56.5 -139.5t-21.5 -139.5t-3.5 -136.5v-180h-112q-23 0 -33 11t-10 36v133q0 94 8.5 177t32 158.5t66 147.5t110.5 144q44 46 85 81t77 65.5t66.5 59 t52.5 63t34 77.5t12 102v93h-743z" />
<glyph unicode="8" horiz-adv-x="1233" d="M109 410q0 71 14 123t34.5 88.5t43.5 59.5t41 36q21 15 39.5 24.5t32.5 17t22 15t8 19.5q0 10 -7 17t-19.5 14.5t-29.5 17.5t-36 28q-15 14 -31.5 36t-30 52t-22 68.5t-8.5 85.5q0 86 30 158t88.5 123.5t143 80.5t194.5 29q109 0 194 -28.5t143 -80.5t88 -123.5 t30 -158.5q0 -47 -8.5 -85.5t-22 -68.5t-30 -52t-31.5 -36q-19 -18 -36 -28t-29.5 -17.5t-19.5 -14.5t-7 -17q0 -12 8 -19.5t22 -15t32.5 -17t39.5 -24.5q18 -13 41 -36t44 -59.5t35.5 -88.5t14.5 -123q0 -103 -33 -184.5t-97.5 -138t-159 -86.5t-218.5 -30q-123 0 -218 30 t-159 86.5t-97 138t-33 184.5zM268 410q0 -73 27 -128.5t73.5 -93t110 -56.5t137.5 -19t137.5 19t110.5 56.5t74 93t27 128.5q0 71 -23.5 128t-68 96.5t-109.5 61t-148 21.5t-147.5 -21.5t-109 -61.5t-68 -97t-23.5 -127zM319 1110q0 -128 77 -195t220 -67q146 0 220.5 69.5 t74.5 194.5q0 68 -22.5 118t-62 82.5t-93.5 48t-117 15.5q-64 0 -118.5 -16t-94 -49t-62 -83t-22.5 -118z" />
<glyph unicode="9" horiz-adv-x="1141" d="M82 1010q0 109 31.5 199t92.5 155t150 101t203 36q106 0 182 -26.5t129 -71t85.5 -102.5t50.5 -120.5t24 -126t6 -118.5q0 -235 -44 -410.5t-141.5 -292.5t-253.5 -175t-380 -58v135q122 0 216 22.5t164 61t118.5 89t78.5 106t44 112.5t16 109q-32 -31 -77 -56 q-38 -21 -96 -38t-136 -17q-111 0 -197 31t-145 92.5t-90 152.5t-31 210zM246 1010q0 -179 82 -266t231 -87q71 0 129 19.5t99.5 59.5t64 100.5t22.5 142.5q0 93 -21.5 166.5t-62 125t-99 78.5t-132.5 27q-81 0 -140.5 -26.5t-97.5 -75t-56.5 -116t-18.5 -148.5z" />
<glyph unicode=":" horiz-adv-x="557" d="M174 0v182h209v-182h-209zM174 811v182h209v-182h-209z" />
<glyph unicode=";" horiz-adv-x="504" d="M166 -195q27 26 49 57q18 26 33.5 61t15.5 77h-90v182h209v-137q0 -40 -7 -74.5t-18 -63t-25 -52t-29 -41.5q-35 -43 -79 -72zM174 811v182h209v-182h-209z" />
<glyph unicode="&#x3c;" horiz-adv-x="969" d="M123 549v72l723 370v-78q0 -20 -1.5 -32.5t-7 -21.5t-16 -16t-28.5 -16l-486 -233l475 -240q19 -9 31.5 -16.5t20 -17.5t10 -23t2.5 -33v-86z" />
<glyph unicode="=" horiz-adv-x="983" d="M123 350v135h737v-135h-737zM123 623v135h737v-135h-737z" />
<glyph unicode="&#x3e;" horiz-adv-x="969" d="M123 178v86q0 20 2.5 33t9.5 23t19.5 17.5t31.5 16.5l476 240l-486 233q-18 9 -28.5 16t-16 16t-7 21.5t-1.5 32.5v78l723 -370v-72z" />
<glyph unicode="?" horiz-adv-x="1077" d="M88 1448q43 15 97 27q46 10 110 18.5t143 9.5q102 0 186.5 -23t145.5 -72t95 -126t34 -184q0 -92 -23 -153t-61.5 -103.5t-88 -72t-103.5 -58.5q-43 -23 -83 -44t-71 -48t-49.5 -64t-18.5 -94v-88h-112q-23 0 -33 11t-10 36v61q0 87 28.5 141.5t73 90.5t99 61t106.5 53 q37 20 71 42t59.5 51.5t40.5 71t15 100.5q0 79 -26 131t-69.5 82.5t-100 42.5t-117.5 12q-49 0 -85.5 -4.5t-64 -13t-48.5 -19.5t-40 -23q-20 -14 -34 -14q-19 0 -25 27zM219 0v182h209v-182h-209z" />
<glyph unicode="@" horiz-adv-x="2103" d="M123 504q0 128 30 250.5t87.5 232t141.5 202t193 159t242 104t287 37.5q165 0 294.5 -34.5t226.5 -95t165 -143.5t110 -179t61 -201t19 -211q0 -144 -30 -260t-97.5 -198t-175.5 -126.5t-264 -44.5q-34 0 -51.5 10t-24.5 29q-6 20 -15 25.5t-15 5.5q-13 0 -21.5 -5 t-23.5 -14q-48 -26 -113 -42.5t-137 -16.5q-89 0 -165.5 29.5t-132 90t-87 153.5t-31.5 220q0 126 34 220t91.5 156t133 93t157.5 31q72 0 137 -17.5t113 -43.5q15 -8 23.5 -11.5t21.5 -3.5q14 0 20 8.5t19 22.5q9 14 22 18t45 4h57v-770q0 -18 0.5 -29t4 -18t11 -9.5 t21.5 -2.5q63 0 119.5 24t99.5 81.5t68 152.5t25 236q0 178 -46.5 314t-135.5 228.5t-218.5 139.5t-296.5 47q-181 0 -334.5 -60t-265 -170.5t-174.5 -267.5t-63 -350q0 -159 34 -281.5t92.5 -213.5t137 -152.5t167 -99t182 -54t183.5 -16.5q84 0 153 13.5t120.5 31t85 34.5 t45.5 25q15 9 29 20.5t26 21.5t21 17t14 7q11 0 17 -10t16 -33l37 -97q-76 -46 -170 -81q-81 -30 -192.5 -55t-246.5 -25q-100 0 -206.5 21.5t-208 68.5t-192 121t-158.5 179.5t-108 244t-40 313.5zM758 483q0 -183 76.5 -280t228.5 -97q51 0 90.5 9t68.5 22t49 27t32 24 q9 8 12.5 14t3.5 17v520q0 17 -2.5 26t-18.5 21q-9 8 -28.5 20.5t-48.5 24.5t-67 20.5t-83 8.5q-65 0 -121.5 -19.5t-99.5 -63.5t-67.5 -116.5t-24.5 -177.5z" />
<glyph unicode="A" horiz-adv-x="1348" d="M10 0l561 1489h166q23 0 33.5 -9t20.5 -34l546 -1446h-127q-23 0 -33.5 9t-19.5 34l-106 287h-754l-104 -287q-10 -25 -20.5 -34t-33.5 -9h-129zM352 475h643l-321 871z" />
<glyph unicode="B" horiz-adv-x="1399" d="M184 47v1448q97 3 197.5 5.5t218.5 2.5q156 0 271 -13t190 -54t112 -117t37 -203q0 -105 -31 -180.5t-100 -126.5q-12 -9 -18 -16.5t-6 -18.5q0 -15 18 -24q48 -27 81 -61.5t52.5 -77t28 -95t8.5 -115.5q0 -89 -15.5 -154t-48.5 -111t-84 -75t-122.5 -45t-164 -22 t-208.5 -6q-51 0 -105 1t-104 2.5t-93 4t-71 4.5q-43 0 -43 47zM342 127q28 -2 67 -3t82 -2.5t87.5 -2t85.5 -0.5q125 0 203.5 14t123 47t60.5 88t16 138q0 85 -18.5 142t-44.5 91q-16 20 -28 30.5t-25.5 15.5t-32.5 6t-50 1h-526v-565zM342 829h539q27 0 44.5 4t29 11.5 t18.5 17t14 21.5q26 43 41.5 99.5t15.5 119.5q0 78 -16 131t-59.5 84.5t-120.5 45t-199 13.5q-40 0 -82.5 -0.5t-83.5 -1.5t-77.5 -2.5t-63.5 -3.5v-539z" />
<glyph unicode="C" horiz-adv-x="1235" d="M113 750q0 204 45 350t125 239t190 137t240 44q82 0 157.5 -12t134.5 -26q69 -17 128 -38l-48 -137q-9 -23 -26 -23q-6 0 -15 3t-20 11q-51 34 -128.5 57t-176.5 23q-95 0 -175.5 -30.5t-139 -103t-92 -193.5t-33.5 -301q0 -184 25.5 -305.5t82.5 -194t148.5 -102 t222.5 -29.5q43 0 90.5 3.5t94 9t89.5 12t78 12.5l23 -121q-39 -10 -88 -20.5t-103 -19.5t-110 -14.5t-109 -5.5q-154 0 -268.5 41.5t-190.5 133.5t-113.5 240t-37.5 360z" />
<glyph unicode="D" horiz-adv-x="1436" d="M184 47v1450q85 1 169 3q36 0 74.5 0.5t77.5 1t76.5 1t69.5 0.5q136 0 237.5 -16t175.5 -52t122 -94t76 -142t39.5 -195.5t11.5 -255.5q0 -149 -12 -263.5t-43 -199t-84 -141.5t-134 -91.5t-194 -49.5t-264 -15q-48 0 -98.5 1t-97.5 2.5t-88 4t-71 4.5q-43 0 -43 47z M344 131q42 -1 90 -2q42 -1 95 -1.5t110 -0.5q101 0 178 10t133.5 36t94.5 71t60.5 114.5t32 166.5t9.5 227t-9.5 227t-32 166t-60.5 113.5t-94.5 70t-133.5 35.5t-178 10q-41 0 -92 -0.5t-96 -1.5q-53 -1 -107 -2v-1239z" />
<glyph unicode="E" horiz-adv-x="1225" d="M184 47v1442h889v-141h-731v-519h682v-137h-682v-545h760v-147h-875q-43 0 -43 47z" />
<glyph unicode="F" horiz-adv-x="1157" d="M184 47v1442h891v-141h-733v-519h682v-137h-682v-692h-115q-43 0 -43 47z" />
<glyph unicode="G" horiz-adv-x="1386" d="M113 752q0 205 46 350.5t130.5 238.5t205 136t269.5 43q83 0 157 -12t131 -26q66 -17 122 -38l-48 -139q-5 -11 -10 -17t-14 -6q-16 0 -43 18q-56 39 -126 58.5t-161 19.5q-114 0 -204 -30t-152.5 -102t-95.5 -192.5t-33 -301.5q0 -176 23.5 -296t80 -194t150.5 -106.5 t235 -32.5q58 0 105.5 9.5t82.5 20.5q40 13 72 31q16 11 25 19.5t13.5 19t5.5 24.5t1 36v452h111q23 0 33 -11t10 -36v-688h-76q-29 0 -43 6.5t-26 20.5q-10 11 -20 23.5t-30 12.5q-14 0 -23.5 -5t-25.5 -13q-29 -15 -67 -27.5t-79.5 -22t-84.5 -15t-82 -5.5 q-139 0 -244.5 41.5t-177 134t-107.5 240.5t-36 361z" />
<glyph unicode="H" horiz-adv-x="1499" d="M184 47v1442h117q23 0 33 -11t10 -36v-611h815v658h113q23 0 33 -11t10 -36v-1442h-113q-23 0 -33 11t-10 36v639h-815v-686h-117q-43 0 -43 47z" />
<glyph unicode="I" horiz-adv-x="528" d="M184 47v1442h117q23 0 33 -11t10 -36v-1442h-117q-43 0 -43 47z" />
<glyph unicode="J" horiz-adv-x="969" d="M41 16l31 138q39 -10 83 -17q38 -6 85.5 -11t99.5 -5q58 0 111.5 9t93.5 41.5t64 94.5t24 168v1055h119q43 0 43 -47v-991q0 -144 -30 -236.5t-85.5 -146t-135 -73.5t-177.5 -20q-69 0 -127.5 6t-103.5 14q-52 9 -95 21z" />
<glyph unicode="K" horiz-adv-x="1323" d="M184 47v1442h117q23 0 33 -11t10 -36v-596h215l440 602q19 25 33 33t37 8h148l-508 -696l614 -793h-170q-23 0 -36.5 8t-33.5 33l-518 661h-221v-702h-117q-43 0 -43 47z" />
<glyph unicode="L" horiz-adv-x="1108" d="M184 47v1442h115q23 0 33 -11t10 -36v-1288h692v-154h-807q-43 0 -43 47z" />
<glyph unicode="M" horiz-adv-x="1903" d="M123 0l174 1489h217q23 0 33 -9t18 -34l385 -1303l400 1346h219q23 0 31.5 -10.5t11.5 -36.5l168 -1442h-113q-23 0 -31.5 10.5t-11.5 36.5l-158 1299l-413 -1346h-166q-23 0 -33 9t-18 34l-400 1303l-157 -1299q-4 -26 -12 -36.5t-31 -10.5h-113z" />
<glyph unicode="N" horiz-adv-x="1540" d="M184 47v1442h238q15 0 28 -12t27 -43l729 -1291v1346h107q43 0 43 -47v-1442h-219q-17 0 -30.5 13t-29.5 44l-739 1289v-1346h-111q-43 0 -43 47z" />
<glyph unicode="O" horiz-adv-x="1477" d="M113 741q0 198 37.5 343.5t114.5 241.5t195 143t279 47q163 0 281 -47t194.5 -143t113 -241.5t36.5 -343.5q0 -197 -36.5 -342.5t-113 -241.5t-194.5 -143t-281 -47q-161 0 -279 47t-195 143t-114.5 241.5t-37.5 342.5zM283 743q0 -174 28 -294t84.5 -195t142 -108 t199.5 -33q124 0 211 31t142 104t79.5 194t24.5 301q0 174 -26 295t-81.5 196t-142 108.5t-207.5 33.5q-117 0 -202.5 -31t-141.5 -104t-83 -195t-27 -303z" />
<glyph unicode="P" horiz-adv-x="1270" d="M184 47v1450q97 0 198 3t220 3q160 0 270 -23t178 -76.5t98 -141.5t30 -218q0 -137 -29.5 -230t-97 -150t-177.5 -82t-272 -25h-260v-557h-115q-43 0 -43 47zM342 686h285q111 0 185.5 16.5t119.5 56t63.5 105.5t18.5 166t-18.5 167t-63.5 106.5t-119.5 56t-185.5 16.5 q-66 0 -118.5 -1t-89.5 -2q-44 -2 -77 -3v-684z" />
<glyph unicode="Q" horiz-adv-x="1489" d="M113 741q0 198 37.5 344t114.5 243t195 144.5t279 47.5q163 0 281.5 -47.5t195 -144.5t113.5 -243t37 -344q0 -197 -37 -343t-113.5 -242.5t-195 -144.5t-281.5 -48q-161 0 -279 48t-195 144.5t-114.5 242.5t-37.5 343zM283 743q0 -174 28.5 -295t85 -196t141.5 -109 t199 -34q124 0 211.5 31.5t142.5 105t80 195.5t25 302q0 174 -26 295.5t-82 197.5t-143 110t-208 34q-116 0 -201.5 -31.5t-141.5 -105.5t-83.5 -196.5t-27.5 -303.5zM549 -156q25 16 58 29q28 11 67 20t90 9q62 0 111.5 -16t91 -39.5t78 -51t72.5 -51t74 -39.5t83 -16 q40 0 70.5 5.5t50.5 13.5q24 9 41 20l67 -113q-25 -17 -58 -29q-28 -11 -67.5 -19.5t-89.5 -8.5q-62 0 -111.5 16t-91.5 39.5t-78.5 51t-72.5 51t-74 39.5t-82 16q-40 0 -70.5 -6t-50.5 -14q-24 -9 -41 -19z" />
<glyph unicode="R" horiz-adv-x="1341" d="M184 47v1450q36 0 74.5 1t85 2t104.5 2t134 1q165 0 276.5 -16.5t179 -62.5t96.5 -126.5t29 -207.5q0 -130 -30.5 -219t-108.5 -136q-14 -8 -22.5 -15t-8.5 -18q0 -6 1.5 -10t7 -8.5t15.5 -11t27 -17.5q38 -24 60 -58t33 -74t14.5 -84t5.5 -87l12 -352h-114q-23 0 -32 11 t-11 36l-13 330q-3 67 -16.5 113.5t-43.5 74.5t-79.5 40.5t-124.5 12.5h-393v-618h-115q-43 0 -43 47zM342 754h453q40 0 63 2t36 7t20 13.5t16 20.5q15 26 28.5 52.5t23.5 58.5t16 70.5t6 88.5q0 90 -14.5 149t-55.5 94.5t-116 49.5t-195 14q-87 0 -155.5 -0.5t-125.5 -5.5 v-614z" />
<glyph unicode="S" horiz-adv-x="1137" d="M113 1055q0 49 8 102.5t28.5 104t55 96t87.5 79.5t126.5 54t171.5 20q82 0 148 -9.5t114 -20.5q55 -13 98 -29l-47 -141q-7 -19 -26 -19q-16 0 -35 15q-95 61 -246 61q-162 0 -241 -82t-79 -231q0 -67 30 -109.5t73 -68.5t91 -39t85 -21l104 -22q45 -9 89.5 -21t85 -30.5 t75.5 -45t60.5 -64.5t40 -89t14.5 -119q0 -235 -126 -344t-370 -109q-80 0 -151.5 9.5t-126.5 20.5q-64 13 -119 30l29 135q53 -13 109 -24q48 -9 105.5 -16t112.5 -7q84 0 144.5 13t102 36t66.5 53t38.5 64t17.5 69.5t4 69.5q0 68 -27.5 111t-72.5 69.5t-103 41.5t-118 28 q-15 2 -26 5l-17.5 3.5t-6.5 1.5q-87 15 -156.5 42t-118 70.5t-75 106.5t-26.5 150z" />
<glyph unicode="T" horiz-adv-x="1204" d="M20 1348v141h1164v-141h-502v-1348h-117q-43 0 -43 47v1301h-502z" />
<glyph unicode="U" horiz-adv-x="1481" d="M164 551v86.5t0.5 128.5t1 153.5t1.5 161.5q1 188 3 408h115q43 0 43 -47q-2 -211 -3 -385q-1 -75 -1.5 -149t-1 -136.5t-0.5 -108v-63.5q0 -128 15 -219t59 -150t123.5 -86.5t209.5 -27.5q66 0 122.5 9t101 21t76.5 25t50 21q21 9 32.5 17t17.5 18.5t7 26.5t1 42v1192 h116q23 0 33 -11t10 -36v-1442h-79q-26 0 -41.5 4.5t-26.5 20.5q-9 12 -19.5 25t-31.5 13q-10 0 -22 -5t-27 -13q-23 -12 -61 -24t-88 -22.5t-109.5 -17t-126.5 -6.5q-149 0 -246 39t-153.5 113.5t-78.5 181.5t-22 242z" />
<glyph unicode="V" horiz-adv-x="1278" d="M10 1489h135q23 0 33.5 -9t18.5 -34l442 -1303l442 1303q8 25 18.5 34t33.5 9h135l-514 -1489h-193q-23 0 -33 9t-18 34z" />
<glyph unicode="W" horiz-adv-x="1952" d="M41 1489h121q23 0 34 -9t17 -34l324 -1303l317 1346h199q23 0 34 -9t17 -34l311 -1303l326 1303q6 25 17 34t34 9h119l-377 -1489h-199q-23 0 -34 9t-17 34l-309 1315l-316 -1358h-200q-23 0 -34 9t-17 34z" />
<glyph unicode="X" horiz-adv-x="1243" d="M41 1489h143q23 0 36.5 -8t29.5 -33l371 -588l356 588q15 25 28.5 33t36.5 8h146l-465 -741l479 -748h-147q-23 0 -36.5 8t-29.5 33l-368 582l-369 -582q-16 -25 -29.5 -33t-36.5 -8h-143l477 745z" />
<glyph unicode="Y" horiz-adv-x="1165" d="M0 1489h141q23 0 32 -9t20 -34l391 -836l385 836q10 25 19 34t32 9h145l-503 -1040v-449h-117q-23 0 -33 11t-10 36v402z" />
<glyph unicode="Z" horiz-adv-x="1118" d="M82 0v59q0 32 8.5 58.5t24.5 52.5l723 1173h-742v146h930v-72q0 -26 -7 -50.5t-24 -47.5l-725 -1174h766v-145h-954z" />
<glyph unicode="[" horiz-adv-x="631" d="M164 -156v1706h323v-125h-172v-1503h172v-125h-280q-23 0 -33 11.5t-10 35.5z" />
<glyph unicode="\" horiz-adv-x="829" d="M0 1671h109q23 0 32 -9t19 -34l669 -1810h-108q-23 0 -32.5 9t-18.5 34z" />
<glyph unicode="]" horiz-adv-x="631" d="M143 -78h172v1503h-172v125h281q23 0 33 -11t10 -36v-1706h-324v125z" />
<glyph unicode="^" horiz-adv-x="1434" d="M143 778l523 723h102l522 -723h-162l-413 584l-410 -584h-162z" />
<glyph unicode="_" horiz-adv-x="1169" d="M-20 -106h1210v-115h-1210v115z" />
<glyph unicode="`" horiz-adv-x="600" d="M55 1446h183q12 0 22 -0.5t20.5 -4t21.5 -10.5t26 -20l223 -199h-125q-25 0 -46.5 8t-49.5 29z" />
<glyph unicode="a" d="M92 524q0 144 36 248.5t96 172.5t137 101t159 33q36 0 72 -5.5t69.5 -14.5t63 -21.5t53.5 -27.5q16 -10 24.5 -14.5t20.5 -4.5q14 0 20.5 11t18.5 28q9 14 22.5 19.5t45.5 5.5h57v-1055h-57q-32 0 -45.5 5.5t-22.5 19.5q-12 17 -18.5 27.5t-20.5 10.5q-12 0 -20.5 -4.5 t-24.5 -13.5q-24 -15 -53.5 -27.5t-63 -22t-69.5 -15t-72 -5.5q-89 0 -167 32t-136 99t-91.5 170.5t-33.5 247.5zM254 526q0 -204 78.5 -309.5t236.5 -105.5q52 0 93 9.5t71 23t50 27t30 22.5q14 12 18.5 19t4.5 24v581q0 9 -0.5 14.5t-2.5 10t-6.5 9t-13.5 11.5 q-10 9 -30.5 22.5t-50.5 27t-69 23t-85 9.5q-67 0 -126 -21.5t-103 -70.5t-69.5 -129t-25.5 -197z" />
<glyph unicode="b" d="M143 0v1489h109q23 0 33 -11t10 -36v-402q0 -43 20 -43q13 0 33 13q51 26 116.5 47.5t145.5 21.5q89 0 167 -32t136 -99t91.5 -170.5t33.5 -247.5t-36 -248.5t-96 -172.5t-137 -101t-159 -33q-36 0 -72 5.5t-69 15t-63 22t-54 27.5q-15 9 -23.5 13.5t-21.5 4.5 q-14 0 -20 -10.5t-19 -27.5q-9 -14 -22 -19.5t-45 -5.5h-58zM295 238q0 -17 2.5 -24.5t19.5 -20.5q10 -9 30.5 -22.5t50.5 -27t69 -23t86 -9.5q67 0 126 21.5t103 70.5t69.5 128.5t25.5 196.5q0 204 -79 310t-237 106q-52 0 -93 -9.5t-71 -23t-50 -27t-30 -22.5 q-14 -12 -18 -19t-4 -24v-581z" />
<glyph unicode="c" horiz-adv-x="920" d="M92 524q0 149 37 254.5t102 172t153 97.5t191 31q97 0 164.5 -15.5t108.5 -29.5l-41 -96q-11 -23 -17.5 -33t-15.5 -10q-6 0 -10.5 2t-11.5 6.5t-17 10.5t-28 14q-20 9 -53.5 16.5t-71.5 7.5q-78 0 -139 -22.5t-103 -73.5t-64 -132t-22 -198q0 -101 18.5 -179.5 t60 -132.5t107 -82.5t160.5 -29.5q37 0 76.5 4.5t72.5 9.5q39 6 76 15l21 -108q-40 -13 -87 -24q-41 -9 -94 -16.5t-114 -7.5q-105 0 -190 32t-145 99.5t-92 171t-32 246.5z" />
<glyph unicode="d" d="M92 524q0 144 36 248.5t96 172.5t137 101t159 33q81 0 146 -21.5t116 -47.5q22 -13 33 -13q21 0 21 43v449h108q23 0 33 -11t10 -36v-1442h-57q-32 0 -45.5 5.5t-22.5 19.5q-12 17 -18.5 27.5t-20.5 10.5q-12 0 -20.5 -4.5t-24.5 -13.5q-24 -15 -53.5 -27.5t-63 -22 t-69.5 -15t-72 -5.5q-89 0 -167 32t-136 99t-91.5 170.5t-33.5 247.5zM254 526q0 -204 78.5 -309.5t236.5 -105.5q52 0 93 9.5t71 23t50 27t30 22.5q14 12 18.5 19t4.5 24v581q0 9 -0.5 14.5t-2.5 10t-6.5 9t-13.5 11.5q-10 9 -30.5 22.5t-50.5 27t-69 23t-85 9.5 q-67 0 -126 -21.5t-103 -70.5t-69.5 -129t-25.5 -197z" />
<glyph unicode="e" horiz-adv-x="1047" d="M92 528q0 131 29.5 233.5t87 173t142 107.5t194.5 37q96 0 173.5 -25.5t132.5 -71.5t84.5 -109.5t29.5 -139.5q0 -75 -23.5 -131t-67.5 -94q-60 -54 -153 -76t-209 -22q-56 0 -102 4.5t-80 9.5q-40 6 -72 14q9 -99 39 -164t79.5 -103t118 -53.5t154.5 -15.5q32 0 73.5 5 t79.5 11q44 7 91 17l20 -108q-49 -15 -102 -26q-45 -10 -100 -18t-107 -8q-261 0 -386.5 143t-125.5 410zM254 557q37 -14 97 -23.5t147 -9.5q111 0 175 21t95 63q17 25 25 55.5t8 65.5q0 48 -14.5 90t-46 73.5t-80.5 50t-117 18.5q-59 0 -103 -18t-76 -48.5t-53 -71 t-34 -85.5t-18 -91.5t-5 -89.5z" />
<glyph unicode="f" horiz-adv-x="688" d="M43 936v119h154v127q0 87 16 148.5t50.5 101.5t88.5 58.5t131 18.5q48 0 96.5 -4t84.5 -12l-9 -109q-21 2 -43 4q-19 2 -42 3.5t-46 1.5q-54 0 -88 -12t-53.5 -37t-27 -63t-7.5 -89v-137h279v-119h-279v-936h-108q-23 0 -33 11t-10 36v889h-154z" />
<glyph unicode="g" d="M92 524q0 144 36 248.5t96 172.5t137 101t159 33q36 0 72 -5.5t69.5 -14.5t63 -21.5t53.5 -27.5q16 -10 24.5 -14.5t20.5 -4.5q14 0 20.5 11t18.5 28q9 14 22.5 19.5t45.5 5.5h57v-1100q0 -117 -29 -196.5t-80 -128t-121 -69t-153 -20.5q-44 0 -83 8t-73 21t-62 29.5 t-51 34.5q-54 41 -93 94l88 82q32 -40 73 -71q35 -27 83.5 -49t107.5 -22q52 0 96.5 13t76.5 42.5t50.5 77t18.5 117.5v96q0 23 -5 33t-16 10t-33 -12q-51 -26 -116 -48t-146 -22q-89 0 -167 32t-136 99t-91.5 170.5t-33.5 247.5zM254 526q0 -204 78.5 -309.5t236.5 -105.5 q52 0 93 9.5t71 23t50 27t30 22.5q14 12 18.5 19t4.5 24v581q0 9 -0.5 14.5t-2.5 10t-6.5 9t-13.5 11.5q-10 9 -30.5 22.5t-50.5 27t-69 23t-85 9.5q-67 0 -126 -21.5t-103 -70.5t-69.5 -129t-25.5 -197z" />
<glyph unicode="h" horiz-adv-x="1126" d="M143 47v1442h109q23 0 33 -11t10 -36v-402q0 -43 20 -43q13 0 33 13q51 26 116.5 47.5t145.5 21.5q192 0 287.5 -85.5t95.5 -266.5v-727h-108q-23 0 -33 11t-10 36v639q0 70 -13 119t-43 80t-80.5 45t-125.5 14q-55 0 -99 -9.5t-77 -23t-55 -27t-32 -22.5 q-8 -7 -12.5 -11t-6.5 -8.5t-2.5 -9.5t-0.5 -14v-819h-109q-43 0 -43 47z" />
<glyph unicode="i" horiz-adv-x="451" d="M121 1307v182h209v-182h-209zM150 47v1008h108q23 0 33 -11.5t10 -35.5v-1008h-108q-23 0 -33 11t-10 36z" />
<glyph unicode="j" horiz-adv-x="463" d="M-51 -444l10 110q20 -2 33.5 -3.5t22.5 -2t15 -0.5h11q37 0 61 10t38 32t19 55.5t5 80.5v1217h108q23 0 33 -11.5t10 -35.5v-1158q0 -76 -10.5 -133.5t-35 -96.5t-66 -59t-103.5 -20q-41 0 -74 3.5t-77 11.5zM135 1307v182h209v-182h-209z" />
<glyph unicode="k" horiz-adv-x="1040" d="M143 47v1442h109q23 0 33 -11t10 -36v-772h170l272 344q17 25 30 33t36 8h153l-364 -455l438 -600h-158q-23 0 -35.5 8t-29.5 33l-352 487h-160v-528h-109q-43 0 -43 47z" />
<glyph unicode="l" horiz-adv-x="528" d="M145 295v1194h109q23 0 33 -11t10 -36v-1159q0 -47 5 -81t18.5 -55.5t37.5 -32t62 -10.5h11t15 1t22.5 2t33.5 4l10 -111q-44 -8 -77 -11t-75 -3q-62 0 -103.5 19.5t-66 58.5t-35 97t-10.5 134z" />
<glyph unicode="m" horiz-adv-x="1780" d="M143 47v1008h58q32 0 45 -5.5t22 -19.5q13 -17 19 -28t20 -11q13 0 21.5 4.5t23.5 14.5q24 15 53 27.5t61 21.5t66 14.5t68 5.5q96 0 162 -20.5t104 -54.5q19 -17 30.5 -30t25.5 -13q12 0 20.5 4.5t24.5 13.5q23 15 52.5 32.5t67.5 32.5t85 25t104 10q187 0 279 -85.5 t92 -266.5v-727h-109q-23 0 -33 11t-10 36v639q0 70 -11.5 119t-40 80t-77 45t-121.5 14q-52 0 -94 -9.5t-74 -23t-53 -27t-31 -22.5q-8 -7 -12.5 -11t-6.5 -8.5t-2.5 -9.5t-0.5 -14v-819h-109q-23 0 -33 11t-10 36v639q0 70 -11.5 119t-40 80t-77 45t-121.5 14 q-52 0 -94 -9.5t-74 -23t-53 -27t-31 -22.5q-8 -7 -12.5 -11t-6.5 -8.5t-2.5 -9.5t-0.5 -14v-819h-109q-43 0 -43 47z" />
<glyph unicode="n" horiz-adv-x="1126" d="M143 47v1008h58q32 0 45 -5.5t22 -19.5q13 -17 19 -28t20 -11q13 0 21.5 4.5t23.5 14.5q48 29 117 49t141 20q192 0 287.5 -85.5t95.5 -266.5v-727h-108q-23 0 -33 11t-10 36v639q0 70 -13 119t-43 80t-80.5 45t-125.5 14q-55 0 -99 -9.5t-77 -23t-55 -27t-32 -22.5 q-8 -7 -12.5 -11t-6.5 -8.5t-2.5 -9.5t-0.5 -14v-819h-109q-43 0 -43 47z" />
<glyph unicode="o" horiz-adv-x="1159" d="M94 528q0 271 124 412t362 141t361.5 -140.5t123.5 -412.5q0 -270 -124.5 -411.5t-360.5 -141.5q-238 0 -362 140.5t-124 412.5zM256 528q0 -212 80 -320t244 -108t243.5 107.5t79.5 320.5q0 214 -79.5 321t-243.5 107t-244 -108t-80 -320z" />
<glyph unicode="p" horiz-adv-x="1110" d="M123 -317v1372h57q32 0 45.5 -5.5t22.5 -19.5q12 -17 18.5 -28t20.5 -11q12 0 20.5 4.5t24.5 14.5q24 15 53.5 27.5t63 21.5t69.5 14.5t72 5.5q89 0 167 -32t136 -99t91.5 -170.5t33.5 -247.5t-36 -248.5t-96 -172.5t-137 -101t-159 -33q-81 0 -146 22t-116 48 q-23 12 -33 12q-11 0 -16 -10t-5 -33v-379h-108q-23 0 -33 11.5t-10 36.5zM274 238q0 -17 3 -24.5t20 -20.5q10 -9 30.5 -22.5t50.5 -27t68.5 -23t85.5 -9.5q67 0 126 21.5t103 70.5t69.5 128.5t25.5 196.5q0 204 -78.5 310t-236.5 106q-53 0 -93.5 -9.5t-70.5 -23t-50 -27 t-30 -22.5q-14 -12 -18.5 -19t-4.5 -24v-581z" />
<glyph unicode="q" d="M92 524q0 144 36 248.5t96 172.5t137 101t159 33q36 0 72 -5.5t69.5 -14.5t63 -21.5t53.5 -27.5q16 -10 24.5 -14.5t20.5 -4.5q14 0 20.5 11t18.5 28q9 14 22.5 19.5t45.5 5.5h57v-1420h-108q-23 0 -33 11.5t-10 36.5v331q0 23 -5 33t-16 10t-33 -12q-51 -26 -116 -48 t-146 -22q-89 0 -167 32t-136 99t-91.5 170.5t-33.5 247.5zM254 526q0 -204 78.5 -309.5t236.5 -105.5q52 0 93 9.5t71 23t50 27t30 22.5q14 12 18.5 19t4.5 24v581q0 9 -0.5 14.5t-2.5 10t-6.5 9t-13.5 11.5q-10 9 -30.5 22.5t-50.5 27t-69 23t-85 9.5q-67 0 -126 -21.5 t-103 -70.5t-69.5 -129t-25.5 -197z" />
<glyph unicode="r" horiz-adv-x="700" d="M143 47v1008h58q32 0 45 -5.5t22 -19.5q13 -17 19 -28t20 -11q13 0 21.5 4.5t23.5 14.5q48 29 117 49t141 20q6 0 13 -0.5t13 -0.5q7 -1 13 -1v-145q-15 1 -30 3q-13 1 -29 2t-31 1q-47 0 -87 -9.5t-71 -23t-52.5 -27t-31.5 -22.5q-8 -7 -12.5 -11t-6.5 -8.5t-2.5 -9.5 t-0.5 -14v-813h-109q-43 0 -43 47z" />
<glyph unicode="s" horiz-adv-x="887" d="M82 754q0 56 16.5 114t61.5 105.5t125 77.5t207 30q98 0 163.5 -15.5t106.5 -29.5l-39 -96q-9 -23 -15.5 -33t-17.5 -10q-5 0 -10 3t-12.5 8t-20 12t-33.5 16q-45 18 -118 18q-70 0 -118 -13t-78 -36.5t-43 -57t-13 -75.5q0 -51 16.5 -81.5t48.5 -49.5t78.5 -30.5 t106.5 -22.5q81 -15 140 -39.5t97 -60t56 -83.5t18 -110q0 -155 -99 -237.5t-313 -82.5q-51 0 -104 7.5t-98 17.5q-52 11 -101 25l21 112q39 -10 85 -18q39 -7 90.5 -12t108.5 -5q120 0 184 41.5t64 139.5q0 36 -9 65.5t-33.5 52.5t-69 40t-115.5 28q-80 12 -142 31t-105 51 t-65 81t-22 122z" />
<glyph unicode="t" horiz-adv-x="702" d="M41 936v119h154v229l151 45v-274h283v-119h-283v-643q0 -51 7.5 -89t27 -63t53.5 -37t88 -12q23 0 46 1t42 3q22 2 43 4l9 -108q-36 -8 -84.5 -12.5t-96.5 -4.5q-77 0 -131 19t-88.5 58.5t-50.5 101.5t-16 149v633h-154z" />
<glyph unicode="u" horiz-adv-x="1114" d="M133 328v727h109q43 0 43 -47v-639q0 -70 12.5 -119t42 -80t78.5 -45t123 -14q53 0 95.5 9.5t75 23t54 27t31.5 22.5q16 13 19 20.5t3 24.5v817h109q43 0 43 -47v-1008h-58q-32 0 -45 5.5t-22 19.5q-13 17 -19 27.5t-20 10.5q-12 0 -21 -4.5t-24 -13.5 q-24 -15 -53.5 -27.5t-62 -22t-67.5 -15t-69 -5.5q-189 0 -283 86t-94 267z" />
<glyph unicode="v" horiz-adv-x="969" d="M10 1055h127q23 0 33 -9.5t18 -33.5l297 -903l295 903q8 24 18 33.5t33 9.5h127l-360 -1055h-190q-23 0 -33.5 9t-18.5 34z" />
<glyph unicode="w" horiz-adv-x="1563" d="M20 1055h115q23 0 34 -9.5t17 -33.5l244 -903l236 946h190q23 0 34 -9.5t17 -33.5l228 -903l245 903q7 24 18 33.5t34 9.5h110l-293 -1055h-194q-23 0 -34 9t-17 34l-224 903l-231 -946h-191q-23 0 -34 9t-17 34z" />
<glyph unicode="x" horiz-adv-x="1006" d="M41 1055h139q23 0 36.5 -8t29.5 -33l256 -393l246 393q15 25 28.5 33t36.5 8h141l-348 -525l359 -530h-142q-23 0 -36.5 8t-28.5 33l-256 391l-254 -391q-16 -25 -29.5 -33t-36.5 -8h-139l356 528z" />
<glyph unicode="y" horiz-adv-x="1114" d="M133 328v727h109q43 0 43 -47v-639q0 -70 12.5 -119t42 -80t78.5 -45t123 -14q53 0 95.5 9.5t75 23t54 27t31.5 22.5q16 13 19 20.5t3 24.5v817h109q43 0 43 -47v-1008q0 -140 -30 -229t-82.5 -140t-124 -70.5t-154.5 -19.5q-47 0 -86.5 8t-73 21.5t-61 31t-48.5 35.5 q-50 42 -82 97l88 82q29 -40 67 -71q32 -27 79 -49t108 -22q51 0 96 12t79 40.5t53.5 75t19.5 116.5v96q0 23 -4.5 33t-15.5 10q-12 0 -33 -12q-51 -26 -116.5 -48t-145.5 -22q-186 0 -278.5 86t-92.5 267z" />
<glyph unicode="z" horiz-adv-x="915" d="M102 0v66q0 32 7 53.5t24 46.5l494 758h-510v131h686v-78q0 -26 -6 -45.5t-23 -44.5l-495 -756h534v-131h-711z" />
<glyph unicode="{" horiz-adv-x="688" d="M111 618v111q63 20 91.5 70.5t28.5 115.5v441q0 33 5 67.5t25.5 62.5t62.5 46t116 18h105v-125h-103q-24 0 -41.5 -14t-17.5 -45v-401q0 -57 -4 -95.5t-12 -64t-19.5 -41t-25.5 -27.5q-18 -15 -31 -23t-22 -14t-13 -11.5t-4 -14.5t4 -15t13 -12t22 -14t31 -23 q14 -11 25.5 -26.5t19.5 -41t12 -64t4 -95.5v-401q0 -31 17.5 -45.5t41.5 -14.5h103v-125h-105q-74 0 -116 18t-62.5 46.5t-25.5 63t-5 67.5v440q0 65 -28.5 115.5t-91.5 70.5z" />
<glyph unicode="|" horiz-adv-x="459" d="M164 -317v2011h88q23 0 33 -11.5t10 -35.5v-2012h-88q-23 0 -33 11.5t-10 36.5z" />
<glyph unicode="}" horiz-adv-x="688" d="M143 -78h103q25 0 42 14.5t17 45.5v401q0 57 4 95.5t12 64t19.5 41t26.5 26.5q18 15 31 23t21.5 14t12.5 12t4 15t-4 14.5t-12.5 11.5t-21.5 14t-31 23q-15 12 -26.5 27.5t-19.5 41t-12 64t-4 95.5v401q0 31 -17 45t-42 14h-103v125h105q74 0 116 -18t62.5 -46 t25.5 -62.5t5 -67.5v-441q0 -65 29 -115.5t92 -70.5v-111q-63 -20 -92 -70.5t-29 -115.5v-440q0 -33 -5 -67.5t-25.5 -63t-62.5 -46.5t-116 -18h-105v125z" />
<glyph unicode="~" horiz-adv-x="1282" d="M143 496v127q36 31 76 51.5t78 32t73 16t62 4.5q72 0 129 -17t105 -37.5t90.5 -37.5t87.5 -17q32 0 63.5 2.5t66 13t74.5 31.5t91 58v-127q-36 -32 -76 -52t-78 -31.5t-73 -16t-62 -4.5q-72 0 -129 17t-105 37t-90.5 37t-87.5 17q-32 0 -63 -2.5t-65.5 -13t-75 -31 t-91.5 -57.5z" />
<glyph unicode="&#xa1;" horiz-adv-x="494" d="M164 942v182h209v-182h-209zM190 -317v1069h113q23 0 33 -11.5t10 -35.5v-1070h-113q-43 0 -43 48z" />
<glyph unicode="&#xa2;" horiz-adv-x="920" d="M92 524q0 130 28.5 226.5t79.5 163.5t121 105.5t154 51.5v193h88q23 0 33 -11.5t10 -35.5v-138q85 -3 144.5 -17.5t97.5 -27.5l-41 -96q-11 -23 -17.5 -33t-15.5 -10q-6 0 -10.5 2t-11.5 6.5t-17 10.5t-28 14q-17 8 -43.5 14t-57.5 8v-848q36 0 74.5 4.5t70.5 9.5 q38 6 74 15l21 -108q-31 -11 -69 -20q-32 -8 -76 -15.5t-95 -10.5v-206h-88q-23 0 -33 11t-10 36v162q-89 10 -160 48t-120.5 105t-76 164t-26.5 227zM254 526q0 -164 50.5 -268t170.5 -139v821q-53 -14 -94 -45t-69.5 -81.5t-43 -122t-14.5 -165.5z" />
<glyph unicode="&#xa3;" horiz-adv-x="1153" d="M113 0v141h153q18 58 27.5 117.5t14.5 114.5t6 102t1 82t-2.5 70.5t-7.5 72.5h-153v142h141q-3 40 -4.5 85t-1.5 99q0 113 26 201.5t81.5 149t141 92.5t205.5 32q81 0 142.5 -9.5t103.5 -20.5q49 -13 84 -29l-47 -123q-3 -8 -9.5 -13.5t-17.5 -5.5q-13 0 -34 15 q-48 31 -103.5 40t-109.5 9q-82 0 -141 -18.5t-97 -59.5t-56 -106t-18 -158q0 -53 1.5 -96.5t4.5 -83.5h394v-142h-379q2 -26 3 -53t1 -55q0 -38 -0.5 -89.5t-4.5 -111t-13 -124t-25 -126.5h713v-141h-1020z" />
<glyph unicode="&#xa4;" horiz-adv-x="1135" d="M102 295l138 131q-32 48 -54 108.5t-22 129.5q0 144 76 237l-138 133l88 92l138 -137q62 42 126 60t113 18q28 0 59.5 -4.5t63 -14t61.5 -24t56 -33.5l137 135l88 -92l-137 -133q38 -53 57 -114.5t19 -122.5q0 -70 -21.5 -128.5t-56.5 -109.5l139 -131l-88 -92l-135 135 q-101 -78 -242 -78q-24 0 -53.5 5t-61 14.5t-63.5 24.5t-61 36l-138 -137zM289 666q0 -57 22 -108t59.5 -89.5t88.5 -61t108 -22.5q58 0 108.5 22t88.5 60.5t60 89.5t22 109q0 62 -24 113t-63 87t-88.5 56t-101.5 20q-60 0 -111.5 -22.5t-89 -60.5t-58.5 -88t-21 -105z" />
<glyph unicode="&#xa5;" horiz-adv-x="1124" d="M41 1489h127q12 0 19.5 -2t12.5 -7t9.5 -13.5t9.5 -20.5l344 -836l338 836q11 25 19.5 34t31.5 9h131l-270 -627h178v-135h-237l-60 -141h297v-135h-350v-451h-117q-43 0 -43 47v404h-350v135h297l-59 141h-238v135h178z" />
<glyph unicode="&#xa6;" horiz-adv-x="442" d="M164 -317v819h88q23 0 33 -11.5t10 -35.5v-820h-88q-23 0 -33 11.5t-10 36.5zM164 877v817h88q23 0 33 -11.5t10 -35.5v-818h-88q-23 0 -33 11.5t-10 36.5z" />
<glyph unicode="&#xa7;" horiz-adv-x="1094" d="M143 -166l21 121q28 -7 66 -15.5t79.5 -16t85 -12.5t84.5 -5q69 0 126 9t97.5 31.5t63 59.5t22.5 94q0 38 -10 70.5t-38.5 59.5t-79.5 47t-132 32q-169 25 -258.5 98t-89.5 211q0 36 8 74t27 75t49 71t74 63q-69 45 -98 105.5t-29 136.5q0 38 7 78.5t25 79t48 73t76 60.5 t110 41.5t150 15.5q99 0 169.5 -15.5t112.5 -29.5l-39 -96q-9 -23 -15 -33t-17 -10q-6 0 -10.5 3t-12.5 8.5t-20 13t-33 16.5q-23 9 -59.5 15.5t-73.5 6.5q-72 0 -123.5 -14.5t-84.5 -41t-48 -64.5t-15 -85q0 -56 16.5 -91.5t50 -58.5t84 -37.5t118.5 -27.5 q166 -32 244.5 -110t78.5 -205q0 -81 -37.5 -152.5t-99.5 -124.5q68 -42 95.5 -102.5t27.5 -140.5q0 -166 -113.5 -254t-345.5 -88q-41 0 -87.5 5.5t-91.5 14t-86 19.5t-69 22zM328 639q0 -54 19.5 -89t55.5 -58t88.5 -37.5t118.5 -28.5l86 -18q27 16 47.5 40.5t35 53 t21.5 60t7 61.5q0 36 -9.5 68.5t-37.5 60t-79.5 49t-135.5 35.5q-40 6 -82 18q-37 -15 -62.5 -40t-41.5 -54.5t-23.5 -61t-7.5 -59.5z" />
<glyph unicode="&#xa8;" horiz-adv-x="618" d="M27 1241v191h198v-191h-198zM393 1241v191h199v-191h-199z" />
<glyph unicode="&#xa9;" horiz-adv-x="1815" d="M121 739q0 109 27 209.5t77 187.5t121 158.5t158 122.5t189 79t214 28q168 0 312 -57.5t249.5 -161t165.5 -248.5t60 -320q0 -108 -27 -208.5t-77 -187.5t-121 -158.5t-158.5 -122.5t-189.5 -79t-214 -28t-214 26t-189 74t-158 117.5t-121 157t-77 191t-27 220.5z M252 739q0 -147 50.5 -270.5t138.5 -212.5t207.5 -138.5t258.5 -49.5q93 0 177.5 24t157.5 67.5t132 104.5t101 135t65 159.5t23 178.5q0 147 -50.5 270.5t-138.5 213t-208 139t-259 49.5t-258.5 -52.5t-207.5 -143.5t-138.5 -213t-50.5 -261zM545 745q0 121 26.5 206.5 t74 140.5t113.5 80.5t144 25.5q49 0 96 -8.5t84 -18.5q43 -11 82 -26l-35 -105q-5 -11 -11 -13.5t-11 -2.5q-9 0 -21 8q-34 25 -77.5 38t-102.5 13q-50 0 -92.5 -16t-74 -55t-49 -104t-17.5 -163q0 -100 13.5 -166t44 -105t79 -55t117.5 -16q51 0 106.5 8.5t108.5 20.5 l16 -104q-25 -7 -55.5 -13.5t-63.5 -12t-66.5 -8.5t-64.5 -3q-91 0 -159.5 24t-114 78t-68 140.5t-22.5 211.5z" />
<glyph unicode="&#xaa;" horiz-adv-x="752" d="M74 1151q0 87 23 151t61 105.5t86 61.5t98 20q51 0 88 -13t74 -30q17 -7 33 14q6 8 14.5 11.5t30.5 3.5h47v-654h-41q-37 0 -53 27q-7 9 -17 11.5t-22 -5.5q-31 -17 -69.5 -28t-84.5 -11q-55 0 -104 19.5t-85.5 60t-57.5 104t-21 152.5zM201 1151q0 -111 43 -174.5 t127 -63.5q24 0 45 4.5t37.5 11t28 13t16.5 10.5q8 8 11 13.5t3 17.5v332q0 12 -2.5 17t-13.5 16q-19 17 -50.5 29t-68.5 12q-36 0 -68 -13t-56 -41.5t-38 -74t-14 -109.5z" />
<glyph unicode="&#xab;" horiz-adv-x="1024" d="M82 743l287 392q20 21 34 31t37 10h121l-319 -426l331 -443h-131q-23 0 -38 9.5t-35 31.5zM430 743l287 392q17 23 32.5 32t38.5 9h121l-319 -426l332 -443h-131q-23 0 -40 9t-34 32z" />
<glyph unicode="&#xac;" horiz-adv-x="983" d="M123 485v136h694q23 0 33 -11.5t10 -36.5v-329h-92q-23 0 -33 11t-10 36v194h-602z" />
<glyph unicode="&#xad;" horiz-adv-x="780" d="M123 481v144h534v-144h-534z" />
<glyph unicode="&#xae;" horiz-adv-x="1812" d="M121 737q0 108 27 208.5t76.5 188t120.5 159.5t158 123.5t188.5 79.5t213.5 28t214 -26.5t189.5 -76t158.5 -120t121 -158t77 -190t27 -216.5q0 -108 -27 -208.5t-77 -187.5t-121 -158.5t-158.5 -122.5t-189.5 -79t-214 -28q-168 0 -311.5 58.5t-248.5 163t-164.5 248.5 t-59.5 314zM252 737q0 -98 22.5 -186t64.5 -162t101 -133.5t131.5 -101t156.5 -64t177 -22.5t177.5 24t157.5 67.5t132 104.5t101 135t65 159.5t23 178.5q0 147 -50.5 270.5t-138.5 213t-208 139t-259 49.5q-93 0 -177 -24t-156.5 -68t-131.5 -105t-101 -136t-64.5 -160.5 t-22.5 -178.5zM612 344v836q22 1 57.5 2t72 2t67.5 1.5t45 0.5q98 0 164.5 -10t107 -37.5t57.5 -76t17 -126.5q0 -22 -3 -51.5t-10.5 -58t-19.5 -53t-30 -36.5q-16 -11 -27.5 -15.5t-11.5 -12.5q0 -7 5.5 -9t26.5 -14q22 -14 34.5 -32.5t19.5 -40.5t9 -46t3 -49l8 -217h-82 q-20 0 -31.5 9.5t-11.5 31.5l-6 188q-1 31 -7.5 54t-22 37t-41 21t-62.5 7h-203v-348h-84q-20 0 -30.5 10t-10.5 33zM737 756h238q32 0 44.5 6.5t18.5 17.5q16 25 26.5 59t10.5 85q0 45 -7.5 75t-28.5 47.5t-59.5 25t-100.5 7.5q-20 0 -44.5 -0.5t-46.5 -1.5q-26 -1 -51 -2 v-319z" />
<glyph unicode="&#xaf;" horiz-adv-x="666" d="M47 1266v118h571v-118h-571z" />
<glyph unicode="&#xb0;" horiz-adv-x="879" d="M123 1186q0 70 23 128t65 99.5t100 64.5t129 23q70 0 128 -19.5t100 -58.5t65 -98t23 -139q0 -71 -23 -129t-65 -99t-100 -63.5t-128 -22.5q-71 0 -129 18.5t-100 57t-65 98t-23 140.5zM246 1186q0 -51 16.5 -89.5t43.5 -64t62 -38.5t72 -13q38 0 73 13t62 38.5t43.5 64 t16.5 89.5q0 52 -16.5 90.5t-43.5 64t-62 38t-73 12.5q-37 0 -72 -12.5t-62 -38t-43.5 -64t-16.5 -90.5z" />
<glyph unicode="&#xb1;" horiz-adv-x="1004" d="M123 61v136h758v-136h-758zM123 588v135h309v276h96q23 0 33 -11t10 -36v-229h310v-135h-310v-277h-96q-23 0 -33 11.5t-10 35.5v230h-309z" />
<glyph unicode="&#xb2;" horiz-adv-x="707" d="M92 686v105q0 60 20.5 103.5t54 76.5t75.5 58t84 48q32 18 62.5 36t54.5 40t38.5 50t14.5 65q0 36 -13 60t-36.5 38.5t-55.5 20.5t-69 6q-39 0 -72.5 -8t-59.5 -17q-30 -11 -55 -25l-31 99q28 16 62 29q29 11 69.5 20.5t90.5 9.5q68 0 121.5 -13t90.5 -41t56.5 -70.5 t19.5 -100.5q0 -51 -14.5 -92t-42 -75t-69 -63.5t-95.5 -58.5q-35 -19 -67.5 -38.5t-58 -43t-41 -52t-15.5 -65.5v-34h399v-111h-477q-23 0 -32 10t-9 33z" />
<glyph unicode="&#xb3;" horiz-adv-x="733" d="M82 678l31 98q25 -11 58 -20q27 -8 65 -13.5t83 -5.5q94 0 141.5 38.5t47.5 101.5q0 35 -10 63t-32.5 47.5t-59 30t-89.5 10.5h-61v111h45q54 0 90 12t57.5 32t30 46t8.5 55q0 60 -41 86.5t-110 26.5q-35 0 -67.5 -8t-57.5 -17q-29 -11 -55 -24l-33 106q31 12 66 23 q30 9 67.5 16.5t79.5 7.5q58 0 108.5 -10.5t87 -35.5t57.5 -65.5t21 -101.5q0 -30 -6.5 -54.5t-16.5 -43.5t-22.5 -33t-23.5 -22q-19 -14 -31 -22.5t-12 -16.5q0 -7 6.5 -11.5t34.5 -19.5q15 -9 31.5 -21.5t30 -33.5t22 -52t8.5 -75q0 -46 -13 -91t-48 -81t-96 -58t-157 -22 q-55 0 -98 7t-74 16q-36 11 -63 24z" />
<glyph unicode="&#xb4;" horiz-adv-x="600" d="M49 1212l223 199q15 13 26 20t21 10.5t20 4t21 0.5h185l-275 -197q-29 -21 -50 -29t-46 -8h-125z" />
<glyph unicode="&#xb5;" horiz-adv-x="1124" d="M143 -317v1372h109q23 0 33 -11.5t10 -35.5v-639q0 -70 12.5 -119t42 -80t78.5 -45t123 -14q53 0 95.5 9.5t75 23t54 27t31.5 22.5q16 13 19 20.5t3 24.5v817h109q23 0 33 -11.5t10 -35.5v-1008h-57q-32 0 -45.5 5.5t-22.5 19.5q-12 17 -18.5 27.5t-20.5 10.5 q-12 0 -20.5 -4.5t-24.5 -13.5q-48 -29 -114 -49.5t-138 -20.5q-88 0 -141 24t-84 71v-435h-109q-43 0 -43 48z" />
<glyph unicode="&#xb6;" horiz-adv-x="1430" d="M246 1104q0 113 29 189.5t92 123t161.5 66.5t237.5 20q51 0 94 -0.5t83 -1.5t78.5 -2t80.5 -2v-1679h-88q-23 0 -33 11t-10 36v1509h-119v-1257q0 -76 -8.5 -134t-31.5 -97t-63 -59t-102 -20q-41 0 -74 3.5t-77 11.5l10 100q20 -2 33 -3.5t22 -2t15 -0.5h12q75 0 104 42 t29 136v588q-128 3 -218 26.5t-147 73.5t-83.5 129t-26.5 193z" />
<glyph unicode="&#xb7;" horiz-adv-x="451" d="M121 653v183h209v-183h-209z" />
<glyph unicode="&#xb8;" horiz-adv-x="455" d="M61 -358l15 49q5 18 13.5 25.5t31.5 7.5q14 0 30.5 -4.5t41.5 -4.5q46 0 66 10.5t20 36.5q0 14 -10.5 22.5t-28 13t-40 6.5t-46.5 3l32 209h99l-17 -133q22 -2 44 -7.5t40 -18.5t29.5 -34.5t11.5 -53.5q0 -45 -18.5 -74.5t-47 -47t-63 -24t-67.5 -6.5q-32 0 -70 6t-66 19 z" />
<glyph unicode="&#xb9;" horiz-adv-x="410" d="M102 1391v98h166q22 0 30.5 -10t8.5 -33v-809h-80q-20 0 -30.5 10t-10.5 33v711h-84z" />
<glyph unicode="&#xba;" horiz-adv-x="754" d="M74 1151q0 79 22 142t62 106.5t97 66.5t128 23q142 0 219.5 -88t77.5 -250q0 -80 -22 -142.5t-62 -105.5t-97.5 -65.5t-127.5 -22.5q-143 0 -220 87.5t-77 248.5zM201 1151q0 -121 43 -178.5t133 -57.5t133 57.5t43 178.5q0 122 -43 180t-133 58t-133 -58t-43 -180z" />
<glyph unicode="&#xbb;" horiz-adv-x="1024" d="M82 1176h131q23 0 40 -9t34 -32l286 -396l-286 -391q-17 -23 -33 -32t-39 -9h-121l320 426zM430 1176h131q23 0 40 -9t34 -32l287 -396l-287 -391q-17 -23 -33 -32t-39 -9h-121l320 426z" />
<glyph unicode="&#xbc;" horiz-adv-x="1436" d="M137 1391v98h166q22 0 30.5 -10t8.5 -33v-809h-80q-20 0 -30.5 10t-10.5 33v711h-84zM143 -66l914 1545q15 24 26.5 33.5t34.5 9.5h113l-918 -1545q-15 -24 -26.5 -33.5t-34.5 -9.5h-109zM813 207v74q0 54 18 97.5t47 79.5t65.5 67t74.5 61q34 27 66.5 54t58 59 t40.5 69.5t15 85.5h84q22 0 30.5 -10t8.5 -33q0 -48 -18.5 -89.5t-49 -78.5t-68.5 -70t-77 -63q-33 -26 -64 -52t-55 -54t-38.5 -57.5t-14.5 -61.5v-15h276v160h80q23 0 32 -9t9 -32v-389h-80q-23 0 -32 10t-9 33v121h-358q-20 0 -30.5 10t-10.5 33z" />
<glyph unicode="&#xbd;" horiz-adv-x="1554" d="M137 -66l914 1545q15 24 26.5 33.5t34.5 9.5h113l-918 -1545q-15 -24 -26.5 -33.5t-34.5 -9.5h-109zM152 1391v98h165q22 0 30.5 -10t8.5 -33v-809h-80q-20 0 -30 10t-10 33v711h-84zM930 43v104q0 60 20.5 104t54 77t75 58t83.5 48q32 18 62.5 36t54.5 40t38.5 50 t14.5 65q0 36 -13 60t-36 38.5t-55 20.5t-70 6t-71.5 -8t-59.5 -17q-30 -11 -55 -25l-31 99q27 16 61 29q29 11 69.5 20.5t90.5 9.5q137 0 213 -54.5t76 -170.5q0 -51 -14.5 -92t-42.5 -75t-69 -63.5t-95 -58.5q-35 -19 -67.5 -38.5t-58 -43t-41 -52t-15.5 -65.5v-34h399 v-111h-477q-23 0 -32 10t-9 33z" />
<glyph unicode="&#xbe;" horiz-adv-x="1628" d="M102 678l31 98q25 -11 58 -20q28 -8 65.5 -13.5t83.5 -5.5q94 0 141 38.5t47 101.5q0 35 -10 63t-32.5 47.5t-58.5 30t-89 10.5h-62v111h46q54 0 90 12t57.5 32t30 46t8.5 55q0 60 -41 86.5t-111 26.5q-35 0 -67.5 -8t-57.5 -17q-29 -11 -55 -24l-33 106q31 12 66 23 q30 9 68 16.5t79 7.5q58 0 108.5 -10.5t87.5 -35.5t58 -65.5t21 -101.5q0 -30 -6.5 -54.5t-17 -43.5t-22.5 -33t-24 -22q-18 -14 -30.5 -22.5t-12.5 -16.5q0 -7 6.5 -11.5t34.5 -19.5q15 -9 31.5 -21.5t30 -33.5t22 -52t8.5 -75q0 -46 -13 -91t-47.5 -81t-95.5 -58t-157 -22 q-55 0 -98 7t-74 16q-36 11 -64 24zM336 -66l913 1545q16 24 27.5 33.5t34.5 9.5h112l-917 -1545q-16 -24 -27.5 -33.5t-34.5 -9.5h-108zM1006 207v74q0 54 18 97.5t46.5 79.5t65 67t74.5 61q35 27 67.5 54t58 59t40.5 69.5t15 85.5h84q21 0 29.5 -10t8.5 -33 q0 -48 -18.5 -89.5t-48.5 -78.5t-68.5 -70t-77.5 -63q-33 -26 -64 -52t-55 -54t-38.5 -57.5t-14.5 -61.5v-15h277v160h80q23 0 32 -9t9 -32v-389h-80q-23 0 -32 10t-9 33v121h-358q-20 0 -30.5 10t-10.5 33z" />
<glyph unicode="&#xbf;" horiz-adv-x="1077" d="M106 31q0 91 23 152t61.5 103.5t88.5 72.5t104 59q43 23 83 43.5t70.5 47.5t49 64.5t18.5 94.5v88h113q23 0 33 -11.5t10 -35.5v-62q0 -87 -28.5 -141t-73 -90t-99 -61.5t-106.5 -53.5q-38 -20 -72 -41.5t-59.5 -51t-40.5 -71t-15 -100.5q0 -79 26.5 -131t70 -82.5 t100 -42.5t117.5 -12q49 0 85.5 4.5t64 12.5t48.5 19t39 23q11 8 20 11t15 3q17 0 25 -26l41 -135q-42 -15 -97 -27q-47 -11 -111.5 -19.5t-142.5 -9.5q-101 0 -186 23t-146 72.5t-95 126t-34 184.5zM578 946v182h208v-182h-208z" />
<glyph unicode="&#xc0;" horiz-adv-x="1348" d="M10 0l561 1489h166q23 0 33.5 -9t20.5 -34l546 -1446h-127q-23 0 -33.5 9t-19.5 34l-106 287h-754l-104 -287q-10 -25 -20.5 -34t-33.5 -9h-129zM284 1880h183q12 0 22 -0.5t20.5 -4t21.5 -10.5t26 -20l223 -199h-125q-25 0 -46.5 8t-49.5 29zM352 475h643l-321 871z" />
<glyph unicode="&#xc1;" horiz-adv-x="1348" d="M10 0l561 1489h166q23 0 33.5 -9t20.5 -34l546 -1446h-127q-23 0 -33.5 9t-19.5 34l-106 287h-754l-104 -287q-10 -25 -20.5 -34t-33.5 -9h-129zM352 475h643l-321 871zM561 1646l223 199q15 13 26 20t21 10.5t20 4t21 0.5h185l-275 -197q-29 -21 -50 -29t-46 -8h-125z " />
<glyph unicode="&#xc2;" horiz-adv-x="1348" d="M10 0l561 1489h166q23 0 33.5 -9t20.5 -34l546 -1446h-127q-23 0 -33.5 9t-19.5 34l-106 287h-754l-104 -287q-10 -25 -20.5 -34t-33.5 -9h-129zM330 1646l277 234h106q23 0 41 -5.5t47 -31.5l232 -197h-140q-25 0 -46 8t-50 29l-123 90l-125 -90q-29 -21 -51 -29t-45 -8 h-123zM352 475h643l-321 871z" />
<glyph unicode="&#xc3;" horiz-adv-x="1348" d="M10 0l561 1489h166q23 0 33.5 -9t20.5 -34l546 -1446h-127q-23 0 -33.5 9t-19.5 34l-106 287h-754l-104 -287q-10 -25 -20.5 -34t-33.5 -9h-129zM352 475h643l-321 871zM377 1655v75q0 25 7.5 40.5t29.5 35.5q37 31 78.5 44.5t75.5 13.5q46 0 80 -12.5t62 -27.5t53 -27.5 t52 -12.5q15 0 29 2t33.5 10.5t46 25.5t65.5 48v-74q0 -25 -7.5 -40.5t-28.5 -35.5q-38 -31 -79 -44t-75 -13q-46 0 -80 12t-61.5 27t-52 27t-52.5 12q-15 0 -29.5 -1.5t-34 -10t-46.5 -26t-66 -48.5z" />
<glyph unicode="&#xc4;" horiz-adv-x="1348" d="M10 0l561 1489h166q23 0 33.5 -9t20.5 -34l546 -1446h-127q-23 0 -33.5 9t-19.5 34l-106 287h-754l-104 -287q-10 -25 -20.5 -34t-33.5 -9h-129zM352 475h643l-321 871zM398 1675v191h198v-191h-198zM764 1675v191h199v-191h-199z" />
<glyph unicode="&#xc5;" horiz-adv-x="1348" d="M10 0l477 1268q-23 15 -41 39q-15 20 -27.5 52.5t-12.5 80.5q0 112 69 169.5t199 57.5t199 -57.5t69 -169.5q0 -50 -13 -83t-29 -53q-18 -24 -42 -38l479 -1266h-127q-23 0 -33.5 9t-19.5 34l-106 287h-754l-104 -287q-10 -25 -20.5 -34t-33.5 -9h-129zM352 475h643 l-274 742q-12 -2 -22.5 -2.5t-24.5 -0.5t-24.5 0.5t-22.5 2.5zM532 1440q0 -34 12 -59t31.5 -42t45 -25.5t53.5 -8.5t53.5 8.5t45 25.5t31 42t11.5 59t-11 59.5t-30 42.5t-45 25t-55 8t-55 -8t-45.5 -25t-30.5 -42.5t-11 -59.5z" />
<glyph unicode="&#xc6;" horiz-adv-x="1909" d="M10 0l502 1321q24 62 54 96t79 50t123.5 19t185.5 3h803v-141h-641v-519h592v-137h-592v-545h670v-147h-785q-43 0 -43 47v645h-47q-101 0 -195 -16.5t-174.5 -57t-144.5 -109.5t-104 -175l-105 -291q-9 -25 -19.5 -34t-33.5 -9h-125zM428 688q48 39 120 70 q61 26 154.5 48.5t223.5 22.5h32v519h-71q-70 0 -112.5 -3t-67.5 -13.5t-38.5 -30t-25.5 -52.5z" />
<glyph unicode="&#xc7;" horiz-adv-x="1247" d="M123 750q0 205 45 351t125.5 239t190.5 136.5t241 43.5q82 0 157.5 -12t134.5 -26q69 -17 128 -38l-47 -137q-9 -23 -27 -23q-14 0 -35 14q-51 34 -128.5 57t-176.5 23q-95 0 -175.5 -30t-140 -102.5t-93 -193.5t-33.5 -302q0 -184 26 -305.5t83.5 -194t149 -102 t222.5 -29.5q43 0 90.5 3.5t94 9t89.5 12t78 12.5l23 -121q-39 -10 -88 -20.5t-103 -19.5t-111 -14.5t-112 -5.5l-10 -92q21 -2 43.5 -7.5t40.5 -18.5t29.5 -34.5t11.5 -53.5q0 -45 -18.5 -74.5t-47 -47t-63.5 -24t-68 -6.5q-32 0 -69.5 6t-65.5 19l14 49q5 18 13.5 25.5 t31.5 7.5q14 0 30.5 -4.5t41.5 -4.5q47 0 66.5 10.5t19.5 36.5q0 14 -10.5 22.5t-28 13t-40 6.5t-46.5 3l27 175q-128 12 -224 61t-159.5 141.5t-95 232t-31.5 333.5z" />
<glyph unicode="&#xc8;" horiz-adv-x="1225" d="M184 47v1442h889v-141h-731v-519h682v-137h-682v-545h760v-147h-875q-43 0 -43 47zM323 1880h183q12 0 22 -0.5t20.5 -4t21.5 -10.5t26 -20l223 -199h-125q-25 0 -46.5 8t-49.5 29z" />
<glyph unicode="&#xc9;" horiz-adv-x="1225" d="M184 47v1442h889v-141h-731v-519h682v-137h-682v-545h760v-147h-875q-43 0 -43 47zM448 1646l223 199q15 13 26 20t21 10.5t20 4t21 0.5h185l-275 -197q-29 -21 -50 -29t-46 -8h-125z" />
<glyph unicode="&#xca;" horiz-adv-x="1225" d="M184 47v1442h889v-141h-731v-519h682v-137h-682v-545h760v-147h-875q-43 0 -43 47zM293 1646l277 234h106q23 0 41 -5.5t47 -31.5l232 -197h-140q-25 0 -46 8t-50 29l-123 90l-125 -90q-29 -21 -51 -29t-45 -8h-123z" />
<glyph unicode="&#xcb;" horiz-adv-x="1225" d="M184 47v1442h889v-141h-731v-519h682v-137h-682v-545h760v-147h-875q-43 0 -43 47zM344 1675v191h198v-191h-198zM710 1675v191h199v-191h-199z" />
<glyph unicode="&#xcc;" horiz-adv-x="528" d="M-127 1880h183q12 0 22 -0.5t20.5 -4t21.5 -10.5t26 -20l223 -199h-125q-25 0 -46.5 8t-49.5 29zM184 47v1442h117q23 0 33 -11t10 -36v-1442h-117q-43 0 -43 47z" />
<glyph unicode="&#xcd;" horiz-adv-x="528" d="M139 1646l223 199q15 13 26 20t21 10.5t20 4t21 0.5h185l-275 -197q-29 -21 -50 -29t-46 -8h-125zM184 47v1442h117q23 0 33 -11t10 -36v-1442h-117q-43 0 -43 47z" />
<glyph unicode="&#xce;" horiz-adv-x="528" d="M-86 1646l277 234h106q23 0 41 -5.5t47 -31.5l232 -197h-140q-25 0 -46 8t-50 29l-123 90l-125 -90q-29 -21 -51 -29t-45 -8h-123zM184 47v1442h117q23 0 33 -11t10 -36v-1442h-117q-43 0 -43 47z" />
<glyph unicode="&#xcf;" horiz-adv-x="528" d="M-18 1675v191h198v-191h-198zM184 47v1442h117q23 0 33 -11t10 -36v-1442h-117q-43 0 -43 47zM348 1675v191h199v-191h-199z" />
<glyph unicode="&#xd0;" horiz-adv-x="1436" d="M23 698v133h161v666q85 1 169 3q36 0 74.5 0.5t77.5 1t76.5 1t69.5 0.5q136 0 237.5 -16t175.5 -52t122 -94t76 -142t39.5 -195.5t11.5 -255.5q0 -149 -12 -263.5t-43 -199t-84 -141.5t-134 -91.5t-194 -49.5t-264 -15q-48 0 -98.5 1t-97.5 2.5t-88 4t-71 4.5 q-43 0 -43 47v651h-161zM344 131q42 -1 90 -2q42 -1 95 -1.5t110 -0.5q101 0 178 10t133.5 36t94.5 71t60.5 114.5t32 166.5t9.5 227t-9.5 227t-32 166t-60.5 113.5t-94.5 70t-133.5 35.5t-178 10q-41 0 -92 -0.5t-96 -1.5q-53 -1 -107 -2v-539h293v-133h-293v-567z" />
<glyph unicode="&#xd1;" horiz-adv-x="1540" d="M184 47v1442h238q15 0 28 -12t27 -43l729 -1291v1346h107q43 0 43 -47v-1442h-219q-17 0 -30.5 13t-29.5 44l-739 1289v-1346h-111q-43 0 -43 47zM487 1655v75q0 25 7.5 40.5t29.5 35.5q37 31 78.5 44.5t75.5 13.5q46 0 80 -12.5t62 -27.5t53 -27.5t52 -12.5q15 0 29 2 t33.5 10.5t46 25.5t65.5 48v-74q0 -25 -7.5 -40.5t-28.5 -35.5q-38 -31 -79 -44t-75 -13q-46 0 -80 12t-61.5 27t-52 27t-52.5 12q-15 0 -29.5 -1.5t-34 -10t-46.5 -26t-66 -48.5z" />
<glyph unicode="&#xd2;" horiz-adv-x="1477" d="M113 741q0 198 37.5 343.5t114.5 241.5t195 143t279 47q163 0 281 -47t194.5 -143t113 -241.5t36.5 -343.5q0 -197 -36.5 -342.5t-113 -241.5t-194.5 -143t-281 -47q-161 0 -279 47t-195 143t-114.5 241.5t-37.5 342.5zM283 743q0 -174 28 -294t84.5 -195t142 -108 t199.5 -33q124 0 211 31t142 104t79.5 194t24.5 301q0 174 -26 295t-81.5 196t-142 108.5t-207.5 33.5q-117 0 -202.5 -31t-141.5 -104t-83 -195t-27 -303zM407 1880h183q12 0 22 -0.5t20.5 -4t21.5 -10.5t26 -20l223 -199h-125q-25 0 -46.5 8t-49.5 29z" />
<glyph unicode="&#xd3;" horiz-adv-x="1477" d="M113 741q0 198 37.5 343.5t114.5 241.5t195 143t279 47q163 0 281 -47t194.5 -143t113 -241.5t36.5 -343.5q0 -197 -36.5 -342.5t-113 -241.5t-194.5 -143t-281 -47q-161 0 -279 47t-195 143t-114.5 241.5t-37.5 342.5zM283 743q0 -174 28 -294t84.5 -195t142 -108 t199.5 -33q124 0 211 31t142 104t79.5 194t24.5 301q0 174 -26 295t-81.5 196t-142 108.5t-207.5 33.5q-117 0 -202.5 -31t-141.5 -104t-83 -195t-27 -303zM571 1646l223 199q15 13 26 20t21 10.5t20 4t21 0.5h185l-275 -197q-29 -21 -50 -29t-46 -8h-125z" />
<glyph unicode="&#xd4;" horiz-adv-x="1477" d="M113 741q0 198 37.5 343.5t114.5 241.5t195 143t279 47q163 0 281 -47t194.5 -143t113 -241.5t36.5 -343.5q0 -197 -36.5 -342.5t-113 -241.5t-194.5 -143t-281 -47q-161 0 -279 47t-195 143t-114.5 241.5t-37.5 342.5zM283 743q0 -174 28 -294t84.5 -195t142 -108 t199.5 -33q124 0 211 31t142 104t79.5 194t24.5 301q0 174 -26 295t-81.5 196t-142 108.5t-207.5 33.5q-117 0 -202.5 -31t-141.5 -104t-83 -195t-27 -303zM398 1646l277 234h106q23 0 41 -5.5t47 -31.5l232 -197h-140q-25 0 -46 8t-50 29l-123 90l-125 -90q-29 -21 -51 -29 t-45 -8h-123z" />
<glyph unicode="&#xd5;" horiz-adv-x="1477" d="M113 741q0 198 37.5 343.5t114.5 241.5t195 143t279 47q163 0 281 -47t194.5 -143t113 -241.5t36.5 -343.5q0 -197 -36.5 -342.5t-113 -241.5t-194.5 -143t-281 -47q-161 0 -279 47t-195 143t-114.5 241.5t-37.5 342.5zM283 743q0 -174 28 -294t84.5 -195t142 -108 t199.5 -33q124 0 211 31t142 104t79.5 194t24.5 301q0 174 -26 295t-81.5 196t-142 108.5t-207.5 33.5q-117 0 -202.5 -31t-141.5 -104t-83 -195t-27 -303zM432 1655v75q0 25 7.5 40.5t29.5 35.5q37 31 78.5 44.5t75.5 13.5q46 0 80 -12.5t62 -27.5t53 -27.5t52 -12.5 q15 0 29 2t33.5 10.5t46 25.5t65.5 48v-74q0 -25 -7.5 -40.5t-28.5 -35.5q-38 -31 -79 -44t-75 -13q-46 0 -80 12t-61.5 27t-52 27t-52.5 12q-15 0 -29.5 -1.5t-34 -10t-46.5 -26t-66 -48.5z" />
<glyph unicode="&#xd6;" horiz-adv-x="1477" d="M113 741q0 198 37.5 343.5t114.5 241.5t195 143t279 47q163 0 281 -47t194.5 -143t113 -241.5t36.5 -343.5q0 -197 -36.5 -342.5t-113 -241.5t-194.5 -143t-281 -47q-161 0 -279 47t-195 143t-114.5 241.5t-37.5 342.5zM283 743q0 -174 28 -294t84.5 -195t142 -108 t199.5 -33q124 0 211 31t142 104t79.5 194t24.5 301q0 174 -26 295t-81.5 196t-142 108.5t-207.5 33.5q-117 0 -202.5 -31t-141.5 -104t-83 -195t-27 -303zM455 1675v191h198v-191h-198zM821 1675v191h199v-191h-199z" />
<glyph unicode="&#xd7;" horiz-adv-x="860" d="M102 791l95 94l239 -236l223 230l93 -93l-230 -231l236 -240l-94 -94l-240 236l-223 -230l-92 92l229 232z" />
<glyph unicode="&#xd8;" horiz-adv-x="1497" d="M123 741q0 198 37.5 343.5t114.5 241.5t195 143t280 47q163 0 280.5 -47t194 -143t113 -241.5t36.5 -343.5q0 -197 -36.5 -342.5t-113 -241.5t-194 -143t-280.5 -47q-162 0 -280 47t-195 143t-114.5 241.5t-37.5 342.5zM289 743q0 -154 21.5 -264.5t66.5 -185.5l690 975 q-56 57 -135 82.5t-184 25.5q-117 0 -203.5 -31t-143 -104t-84.5 -195t-28 -303zM444 209q57 -51 132.5 -73.5t171.5 -22.5q124 0 211.5 31t142.5 104t80.5 194t25.5 301q0 146 -18.5 252.5t-56.5 182.5z" />
<glyph unicode="&#xd9;" horiz-adv-x="1481" d="M164 551v86.5t0.5 128.5t1 153.5t1.5 161.5q1 188 3 408h115q43 0 43 -47q-2 -211 -3 -385q-1 -75 -1.5 -149t-1 -136.5t-0.5 -108v-63.5q0 -128 15 -219t59 -150t123.5 -86.5t209.5 -27.5q66 0 122.5 9t101 21t76.5 25t50 21q21 9 32.5 17t17.5 18.5t7 26.5t1 42v1192 h116q23 0 33 -11t10 -36v-1442h-79q-26 0 -41.5 4.5t-26.5 20.5q-9 12 -19.5 25t-31.5 13q-10 0 -22 -5t-27 -13q-23 -12 -61 -24t-88 -22.5t-109.5 -17t-126.5 -6.5q-149 0 -246 39t-153.5 113.5t-78.5 181.5t-22 242zM403 1880h183q12 0 22 -0.5t20.5 -4t21.5 -10.5 t26 -20l223 -199h-125q-25 0 -46.5 8t-49.5 29z" />
<glyph unicode="&#xda;" horiz-adv-x="1481" d="M164 551v86.5t0.5 128.5t1 153.5t1.5 161.5q1 188 3 408h115q43 0 43 -47q-2 -211 -3 -385q-1 -75 -1.5 -149t-1 -136.5t-0.5 -108v-63.5q0 -128 15 -219t59 -150t123.5 -86.5t209.5 -27.5q66 0 122.5 9t101 21t76.5 25t50 21q21 9 32.5 17t17.5 18.5t7 26.5t1 42v1192 h116q23 0 33 -11t10 -36v-1442h-79q-26 0 -41.5 4.5t-26.5 20.5q-9 12 -19.5 25t-31.5 13q-10 0 -22 -5t-27 -13q-23 -12 -61 -24t-88 -22.5t-109.5 -17t-126.5 -6.5q-149 0 -246 39t-153.5 113.5t-78.5 181.5t-22 242zM561 1646l223 199q15 13 26 20t21 10.5t20 4t21 0.5 h185l-275 -197q-29 -21 -50 -29t-46 -8h-125z" />
<glyph unicode="&#xdb;" horiz-adv-x="1481" d="M164 551v86.5t0.5 128.5t1 153.5t1.5 161.5q1 188 3 408h115q43 0 43 -47q-2 -211 -3 -385q-1 -75 -1.5 -149t-1 -136.5t-0.5 -108v-63.5q0 -128 15 -219t59 -150t123.5 -86.5t209.5 -27.5q66 0 122.5 9t101 21t76.5 25t50 21q21 9 32.5 17t17.5 18.5t7 26.5t1 42v1192 h116q23 0 33 -11t10 -36v-1442h-79q-26 0 -41.5 4.5t-26.5 20.5q-9 12 -19.5 25t-31.5 13q-10 0 -22 -5t-27 -13q-23 -12 -61 -24t-88 -22.5t-109.5 -17t-126.5 -6.5q-149 0 -246 39t-153.5 113.5t-78.5 181.5t-22 242zM389 1646l277 234h106q23 0 41 -5.5t47 -31.5 l232 -197h-140q-25 0 -46 8t-50 29l-123 90l-125 -90q-29 -21 -51 -29t-45 -8h-123z" />
<glyph unicode="&#xdc;" horiz-adv-x="1481" d="M164 551v86.5t0.5 128.5t1 153.5t1.5 161.5q1 188 3 408h115q43 0 43 -47q-2 -211 -3 -385q-1 -75 -1.5 -149t-1 -136.5t-0.5 -108v-63.5q0 -128 15 -219t59 -150t123.5 -86.5t209.5 -27.5q66 0 122.5 9t101 21t76.5 25t50 21q21 9 32.5 17t17.5 18.5t7 26.5t1 42v1192 h116q23 0 33 -11t10 -36v-1442h-79q-26 0 -41.5 4.5t-26.5 20.5q-9 12 -19.5 25t-31.5 13q-10 0 -22 -5t-27 -13q-23 -12 -61 -24t-88 -22.5t-109.5 -17t-126.5 -6.5q-149 0 -246 39t-153.5 113.5t-78.5 181.5t-22 242zM457 1675v191h198v-191h-198zM823 1675v191h199v-191 h-199z" />
<glyph unicode="&#xdd;" horiz-adv-x="1165" d="M0 1489h141q23 0 32 -9t20 -34l391 -836l385 836q10 25 19 34t32 9h145l-503 -1040v-449h-117q-23 0 -33 11t-10 36v402zM401 1646l223 199q15 13 26 20t21 10.5t20 4t21 0.5h185l-275 -197q-29 -21 -50 -29t-46 -8h-125z" />
<glyph unicode="&#xde;" horiz-adv-x="1270" d="M184 47v1442h117q23 0 33 -11t10 -36v-213q59 2 121 4t137 2q160 0 270 -23t178 -76.5t98 -141.5t30 -218q0 -137 -29.5 -230t-97 -150t-177.5 -82t-272 -25h-258v-289h-117q-43 0 -43 47zM344 418h283q111 0 185.5 16.5t119.5 56t63.5 105.5t18.5 166t-18.5 167 t-63.5 106.5t-119.5 56t-185.5 16.5q-128 0 -203 -3t-80 -3v-684z" />
<glyph unicode="&#xdf;" horiz-adv-x="1249" d="M43 936v119h154v24q0 58 5.5 112t22.5 101t47.5 86t79.5 66.5t120 43t169 15.5q117 0 198.5 -27.5t132.5 -77.5t74 -122t23 -160q0 -55 -7 -98t-22.5 -77.5t-40.5 -62.5t-61 -53q-15 -11 -24 -20t-9 -23q0 -11 7.5 -17.5t20.5 -13t30.5 -15.5t37.5 -25q18 -15 36.5 -38 t34 -59t25 -86.5t9.5 -119.5q0 -103 -16.5 -181.5t-63 -131.5t-130 -80t-218.5 -27q-36 0 -73 4.5t-66 10.5q-34 6 -66 15l16 113q35 -5 68 -9q29 -4 59.5 -6.5t53.5 -2.5q94 0 149 14.5t82.5 48.5t35 89.5t7.5 137.5q0 85 -18.5 147.5t-44.5 96.5q-16 20 -29.5 32t-29.5 18 t-37 8t-52 2h-176v131h197q27 0 44.5 3.5t29.5 10.5t20 17t16 22q28 43 43 95.5t15 115.5q0 66 -15.5 117t-49.5 86t-88 53t-130 18q-107 0 -166 -26.5t-86.5 -71.5t-33 -104.5t-5.5 -124.5v-1049h-108q-23 0 -33 11t-10 36v889h-154z" />
<glyph unicode="&#xe0;" d="M92 524q0 144 36 248.5t96 172.5t137 101t159 33q36 0 72 -5.5t69.5 -14.5t63 -21.5t53.5 -27.5q16 -10 24.5 -14.5t20.5 -4.5q14 0 20.5 11t18.5 28q9 14 22.5 19.5t45.5 5.5h57v-1055h-57q-32 0 -45.5 5.5t-22.5 19.5q-12 17 -18.5 27.5t-20.5 10.5q-12 0 -20.5 -4.5 t-24.5 -13.5q-24 -15 -53.5 -27.5t-63 -22t-69.5 -15t-72 -5.5q-89 0 -167 32t-136 99t-91.5 170.5t-33.5 247.5zM215 1446h183q12 0 22 -0.5t20.5 -4t21.5 -10.5t26 -20l223 -199h-125q-25 0 -46.5 8t-49.5 29zM254 526q0 -204 78.5 -309.5t236.5 -105.5q52 0 93 9.5t71 23 t50 27t30 22.5q14 12 18.5 19t4.5 24v581q0 9 -0.5 14.5t-2.5 10t-6.5 9t-13.5 11.5q-10 9 -30.5 22.5t-50.5 27t-69 23t-85 9.5q-67 0 -126 -21.5t-103 -70.5t-69.5 -129t-25.5 -197z" />
<glyph unicode="&#xe1;" d="M92 524q0 144 36 248.5t96 172.5t137 101t159 33q36 0 72 -5.5t69.5 -14.5t63 -21.5t53.5 -27.5q16 -10 24.5 -14.5t20.5 -4.5q14 0 20.5 11t18.5 28q9 14 22.5 19.5t45.5 5.5h57v-1055h-57q-32 0 -45.5 5.5t-22.5 19.5q-12 17 -18.5 27.5t-20.5 10.5q-12 0 -20.5 -4.5 t-24.5 -13.5q-24 -15 -53.5 -27.5t-63 -22t-69.5 -15t-72 -5.5q-89 0 -167 32t-136 99t-91.5 170.5t-33.5 247.5zM254 526q0 -204 78.5 -309.5t236.5 -105.5q52 0 93 9.5t71 23t50 27t30 22.5q14 12 18.5 19t4.5 24v581q0 9 -0.5 14.5t-2.5 10t-6.5 9t-13.5 11.5 q-10 9 -30.5 22.5t-50.5 27t-69 23t-85 9.5q-67 0 -126 -21.5t-103 -70.5t-69.5 -129t-25.5 -197zM391 1212l223 199q15 13 26 20t21 10.5t20 4t21 0.5h185l-275 -197q-29 -21 -50 -29t-46 -8h-125z" />
<glyph unicode="&#xe2;" d="M92 524q0 144 36 248.5t96 172.5t137 101t159 33q36 0 72 -5.5t69.5 -14.5t63 -21.5t53.5 -27.5q16 -10 24.5 -14.5t20.5 -4.5q14 0 20.5 11t18.5 28q9 14 22.5 19.5t45.5 5.5h57v-1055h-57q-32 0 -45.5 5.5t-22.5 19.5q-12 17 -18.5 27.5t-20.5 10.5q-12 0 -20.5 -4.5 t-24.5 -13.5q-24 -15 -53.5 -27.5t-63 -22t-69.5 -15t-72 -5.5q-89 0 -167 32t-136 99t-91.5 170.5t-33.5 247.5zM219 1212l277 234h106q23 0 41 -5.5t47 -31.5l232 -197h-140q-25 0 -46 8t-50 29l-123 90l-125 -90q-29 -21 -51 -29t-45 -8h-123zM254 526 q0 -204 78.5 -309.5t236.5 -105.5q52 0 93 9.5t71 23t50 27t30 22.5q14 12 18.5 19t4.5 24v581q0 9 -0.5 14.5t-2.5 10t-6.5 9t-13.5 11.5q-10 9 -30.5 22.5t-50.5 27t-69 23t-85 9.5q-67 0 -126 -21.5t-103 -70.5t-69.5 -129t-25.5 -197z" />
<glyph unicode="&#xe3;" d="M92 524q0 144 36 248.5t96 172.5t137 101t159 33q36 0 72 -5.5t69.5 -14.5t63 -21.5t53.5 -27.5q16 -10 24.5 -14.5t20.5 -4.5q14 0 20.5 11t18.5 28q9 14 22.5 19.5t45.5 5.5h57v-1055h-57q-32 0 -45.5 5.5t-22.5 19.5q-12 17 -18.5 27.5t-20.5 10.5q-12 0 -20.5 -4.5 t-24.5 -13.5q-24 -15 -53.5 -27.5t-63 -22t-69.5 -15t-72 -5.5q-89 0 -167 32t-136 99t-91.5 170.5t-33.5 247.5zM248 1221v75q0 25 7.5 40.5t29.5 35.5q37 31 78.5 44.5t75.5 13.5q46 0 80 -12.5t62 -27.5t53 -27.5t52 -12.5q15 0 29 2t33.5 10.5t46 25.5t65.5 48v-74 q0 -25 -7.5 -40.5t-28.5 -35.5q-38 -31 -79 -44t-75 -13q-46 0 -80 12t-61.5 27t-52 27t-52.5 12q-15 0 -29.5 -1.5t-34 -10t-46.5 -26t-66 -48.5zM254 526q0 -204 78.5 -309.5t236.5 -105.5q52 0 93 9.5t71 23t50 27t30 22.5q14 12 18.5 19t4.5 24v581q0 9 -0.5 14.5 t-2.5 10t-6.5 9t-13.5 11.5q-10 9 -30.5 22.5t-50.5 27t-69 23t-85 9.5q-67 0 -126 -21.5t-103 -70.5t-69.5 -129t-25.5 -197z" />
<glyph unicode="&#xe4;" d="M92 524q0 144 36 248.5t96 172.5t137 101t159 33q36 0 72 -5.5t69.5 -14.5t63 -21.5t53.5 -27.5q16 -10 24.5 -14.5t20.5 -4.5q14 0 20.5 11t18.5 28q9 14 22.5 19.5t45.5 5.5h57v-1055h-57q-32 0 -45.5 5.5t-22.5 19.5q-12 17 -18.5 27.5t-20.5 10.5q-12 0 -20.5 -4.5 t-24.5 -13.5q-24 -15 -53.5 -27.5t-63 -22t-69.5 -15t-72 -5.5q-89 0 -167 32t-136 99t-91.5 170.5t-33.5 247.5zM254 526q0 -204 78.5 -309.5t236.5 -105.5q52 0 93 9.5t71 23t50 27t30 22.5q14 12 18.5 19t4.5 24v581q0 9 -0.5 14.5t-2.5 10t-6.5 9t-13.5 11.5 q-10 9 -30.5 22.5t-50.5 27t-69 23t-85 9.5q-67 0 -126 -21.5t-103 -70.5t-69.5 -129t-25.5 -197zM273 1241v191h198v-191h-198zM639 1241v191h199v-191h-199z" />
<glyph unicode="&#xe5;" d="M92 524q0 144 36 248.5t96 172.5t137 101t159 33q36 0 72 -5.5t69.5 -14.5t63 -21.5t53.5 -27.5q16 -10 24.5 -14.5t20.5 -4.5q14 0 20.5 11t18.5 28q9 14 22.5 19.5t45.5 5.5h57v-1055h-57q-32 0 -45.5 5.5t-22.5 19.5q-12 17 -18.5 27.5t-20.5 10.5q-12 0 -20.5 -4.5 t-24.5 -13.5q-24 -15 -53.5 -27.5t-63 -22t-69.5 -15t-72 -5.5q-89 0 -167 32t-136 99t-91.5 170.5t-33.5 247.5zM254 526q0 -204 78.5 -309.5t236.5 -105.5q52 0 93 9.5t71 23t50 27t30 22.5q14 12 18.5 19t4.5 24v581q0 9 -0.5 14.5t-2.5 10t-6.5 9t-13.5 11.5 q-10 9 -30.5 22.5t-50.5 27t-69 23t-85 9.5q-67 0 -126 -21.5t-103 -70.5t-69.5 -129t-25.5 -197zM352 1362q0 112 69.5 169.5t199.5 57.5t199 -57.5t69 -169.5q0 -108 -70.5 -166.5t-197.5 -58.5t-198 58.5t-71 166.5zM479 1362q0 -34 12 -59t31.5 -42t45 -25.5t53.5 -8.5 q27 0 52.5 8.5t45 25.5t31.5 42t12 59t-11 59.5t-30 42.5t-45 25t-55 8t-55 -8t-45.5 -25t-30.5 -42.5t-11 -59.5z" />
<glyph unicode="&#xe6;" horiz-adv-x="1657" d="M92 524q0 144 36.5 248.5t97 172.5t140 101t166.5 33q67 0 115.5 -10t83 -24.5t57 -31t37.5 -30.5q16 -14 23.5 -20.5t19.5 -6.5q14 0 24.5 8.5t29.5 22.5q9 7 32 22.5t57 31t78 27t95 11.5q100 0 173.5 -25.5t122 -71.5t72 -109.5t23.5 -139.5q0 -92 -32.5 -153.5 t-91 -99.5t-140.5 -54t-181 -16q-42 0 -79.5 4.5t-66.5 9.5q-33 6 -62 14q0 -73 13.5 -126t37 -90.5t56.5 -60.5t71.5 -36.5t81 -18t86.5 -4.5q66 0 125 10.5t110 22.5l21 -108q-47 -15 -98 -26q-44 -10 -97.5 -18t-105.5 -8q-82 0 -142.5 13.5t-101.5 31t-63 34t-27 22.5 q-13 11 -18.5 17.5t-16.5 6.5q-12 0 -17.5 -3t-19.5 -15q-19 -16 -45.5 -35t-62.5 -35t-84 -26.5t-109 -10.5q-89 0 -166.5 32t-134.5 99t-90 170.5t-33 247.5zM254 526q0 -101 15.5 -178.5t49.5 -130t89 -79.5t133 -27q48 0 89 10.5t74.5 25.5t59 32.5t41.5 31.5 q-2 8 -5 16q-5 15 -7 23q-4 13 -8 33.5t-7.5 51t-5.5 72.5t-2 99v299q0 20 -2 33.5t-16 31.5q-17 19 -40.5 34.5t-50 26t-55 16t-55.5 5.5q-67 0 -121.5 -22.5t-93.5 -73.5t-60.5 -132t-21.5 -198zM922 557q20 -10 51 -17q26 -6 66.5 -11t97.5 -5q83 0 136 13.5t84 40 t42.5 64.5t11.5 87q0 48 -11.5 88.5t-38.5 70.5t-71 47t-108 17q-57 0 -98.5 -11t-70.5 -25q-33 -16 -57 -35q-11 -11 -17.5 -18.5t-10 -15.5t-5 -17t-1.5 -23v-250z" />
<glyph unicode="&#xe7;" horiz-adv-x="920" d="M92 524q0 149 37 254.5t102 172t153 97.5t191 31q97 0 164.5 -15.5t108.5 -29.5l-41 -96q-11 -23 -17.5 -33t-15.5 -10q-6 0 -10.5 2t-11.5 6.5t-17 10.5t-28 14q-20 9 -53.5 16.5t-71.5 7.5q-78 0 -139 -22.5t-103 -73.5t-64 -132t-22 -198q0 -101 18.5 -179.5 t60 -132.5t107 -82.5t160.5 -29.5q37 0 76.5 4.5t72.5 9.5q39 6 76 15l21 -108q-40 -13 -87 -24q-40 -9 -91.5 -16.5t-108.5 -7.5l-10 -92q21 -2 43.5 -7.5t40.5 -18.5t29.5 -34.5t11.5 -53.5q0 -45 -18.5 -74.5t-47 -47t-63.5 -24t-68 -6.5q-32 0 -69.5 6t-65.5 19l14 49 q5 18 13.5 25.5t31.5 7.5q14 0 30.5 -4.5t41.5 -4.5q47 0 66.5 10.5t19.5 36.5q0 14 -10.5 22.5t-28 13t-40 6.5t-46.5 3l27 175q-86 12 -154 50.5t-116 105t-73.5 162.5t-25.5 224z" />
<glyph unicode="&#xe8;" horiz-adv-x="1047" d="M92 528q0 131 29.5 233.5t87 173t142 107.5t194.5 37q96 0 173.5 -25.5t132.5 -71.5t84.5 -109.5t29.5 -139.5q0 -75 -23.5 -131t-67.5 -94q-60 -54 -153 -76t-209 -22q-56 0 -102 4.5t-80 9.5q-40 6 -72 14q9 -99 39 -164t79.5 -103t118 -53.5t154.5 -15.5q32 0 73.5 5 t79.5 11q44 7 91 17l20 -108q-49 -15 -102 -26q-45 -10 -100 -18t-107 -8q-261 0 -386.5 143t-125.5 410zM206 1446h183q12 0 22 -0.5t20.5 -4t21.5 -10.5t26 -20l223 -199h-125q-25 0 -46.5 8t-49.5 29zM254 557q37 -14 97 -23.5t147 -9.5q111 0 175 21t95 63 q17 25 25 55.5t8 65.5q0 48 -14.5 90t-46 73.5t-80.5 50t-117 18.5q-59 0 -103 -18t-76 -48.5t-53 -71t-34 -85.5t-18 -91.5t-5 -89.5z" />
<glyph unicode="&#xe9;" horiz-adv-x="1047" d="M92 528q0 131 29.5 233.5t87 173t142 107.5t194.5 37q96 0 173.5 -25.5t132.5 -71.5t84.5 -109.5t29.5 -139.5q0 -75 -23.5 -131t-67.5 -94q-60 -54 -153 -76t-209 -22q-56 0 -102 4.5t-80 9.5q-40 6 -72 14q9 -99 39 -164t79.5 -103t118 -53.5t154.5 -15.5q32 0 73.5 5 t79.5 11q44 7 91 17l20 -108q-49 -15 -102 -26q-45 -10 -100 -18t-107 -8q-261 0 -386.5 143t-125.5 410zM254 557q37 -14 97 -23.5t147 -9.5q111 0 175 21t95 63q17 25 25 55.5t8 65.5q0 48 -14.5 90t-46 73.5t-80.5 50t-117 18.5q-59 0 -103 -18t-76 -48.5t-53 -71 t-34 -85.5t-18 -91.5t-5 -89.5zM401 1212l223 199q15 13 26 20t21 10.5t20 4t21 0.5h185l-275 -197q-29 -21 -50 -29t-46 -8h-125z" />
<glyph unicode="&#xea;" horiz-adv-x="1047" d="M92 528q0 131 29.5 233.5t87 173t142 107.5t194.5 37q96 0 173.5 -25.5t132.5 -71.5t84.5 -109.5t29.5 -139.5q0 -75 -23.5 -131t-67.5 -94q-60 -54 -153 -76t-209 -22q-56 0 -102 4.5t-80 9.5q-40 6 -72 14q9 -99 39 -164t79.5 -103t118 -53.5t154.5 -15.5q32 0 73.5 5 t79.5 11q44 7 91 17l20 -108q-49 -15 -102 -26q-45 -10 -100 -18t-107 -8q-261 0 -386.5 143t-125.5 410zM205 1212l277 234h106q23 0 41 -5.5t47 -31.5l232 -197h-140q-25 0 -46 8t-50 29l-123 90l-125 -90q-29 -21 -51 -29t-45 -8h-123zM254 557q37 -14 97 -23.5t147 -9.5 q111 0 175 21t95 63q17 25 25 55.5t8 65.5q0 48 -14.5 90t-46 73.5t-80.5 50t-117 18.5q-59 0 -103 -18t-76 -48.5t-53 -71t-34 -85.5t-18 -91.5t-5 -89.5z" />
<glyph unicode="&#xeb;" horiz-adv-x="1047" d="M92 528q0 131 29.5 233.5t87 173t142 107.5t194.5 37q96 0 173.5 -25.5t132.5 -71.5t84.5 -109.5t29.5 -139.5q0 -75 -23.5 -131t-67.5 -94q-60 -54 -153 -76t-209 -22q-56 0 -102 4.5t-80 9.5q-40 6 -72 14q9 -99 39 -164t79.5 -103t118 -53.5t154.5 -15.5q32 0 73.5 5 t79.5 11q44 7 91 17l20 -108q-49 -15 -102 -26q-45 -10 -100 -18t-107 -8q-261 0 -386.5 143t-125.5 410zM254 557q37 -14 97 -23.5t147 -9.5q111 0 175 21t95 63q17 25 25 55.5t8 65.5q0 48 -14.5 90t-46 73.5t-80.5 50t-117 18.5q-59 0 -103 -18t-76 -48.5t-53 -71 t-34 -85.5t-18 -91.5t-5 -89.5zM266 1241v191h198v-191h-198zM632 1241v191h199v-191h-199z" />
<glyph unicode="&#xec;" horiz-adv-x="451" d="M-181 1446h183q12 0 22 -0.5t20.5 -4t21.5 -10.5t26 -20l223 -199h-125q-25 0 -46.5 8t-49.5 29zM150 47v1008h108q23 0 33 -11.5t10 -35.5v-1008h-108q-23 0 -33 11t-10 36z" />
<glyph unicode="&#xed;" horiz-adv-x="451" d="M125 1212l223 199q15 13 26 20t21 10.5t20 4t21 0.5h185l-275 -197q-29 -21 -50 -29t-46 -8h-125zM150 47v1008h108q23 0 33 -11.5t10 -35.5v-1008h-108q-23 0 -33 11t-10 36z" />
<glyph unicode="&#xee;" horiz-adv-x="451" d="M-121 1212l277 234h106q23 0 41 -5.5t47 -31.5l232 -197h-140q-25 0 -46 8t-50 29l-123 90l-125 -90q-29 -21 -51 -29t-45 -8h-123zM150 47v1008h108q23 0 33 -11.5t10 -35.5v-1008h-108q-23 0 -33 11t-10 36z" />
<glyph unicode="&#xef;" horiz-adv-x="451" d="M-57 1241v191h198v-191h-198zM150 47v1008h108q23 0 33 -11.5t10 -35.5v-1008h-108q-23 0 -33 11t-10 36zM309 1241v191h199v-191h-199z" />
<glyph unicode="&#xf0;" horiz-adv-x="1149" d="M92 528q0 127 31 229.5t92.5 174.5t152.5 110.5t210 38.5q32 0 61 -6t52 -13q26 -8 50 -18q-13 28 -32.5 59.5t-43.5 64t-51 65t-55 63.5l-137 -106l-68 86l129 100q-16 17 -29.5 31.5t-24.5 25.5l-23 23l98 74l78 -78l123 96l67 -86l-117 -92q42 -48 88 -106t91 -124.5 t85 -140t71 -151.5t49 -158.5t18 -161.5q0 -132 -29.5 -235t-89 -173.5t-149.5 -107.5t-211 -37q-124 0 -215.5 37t-151.5 107.5t-89.5 173.5t-29.5 235zM252 528q0 -71 12.5 -147t48 -138.5t99.5 -102.5t166 -40q86 0 147 26t100 78.5t57.5 133t18.5 190.5t-21 190t-63 136 q-40 51 -100.5 76.5t-138.5 25.5q-166 0 -246 -107t-80 -321z" />
<glyph unicode="&#xf1;" horiz-adv-x="1126" d="M143 47v1008h58q32 0 45 -5.5t22 -19.5q13 -17 19 -28t20 -11q13 0 21.5 4.5t23.5 14.5q48 29 117 49t141 20q192 0 287.5 -85.5t95.5 -266.5v-727h-108q-23 0 -33 11t-10 36v639q0 70 -13 119t-43 80t-80.5 45t-125.5 14q-55 0 -99 -9.5t-77 -23t-55 -27t-32 -22.5 q-8 -7 -12.5 -11t-6.5 -8.5t-2.5 -9.5t-0.5 -14v-819h-109q-43 0 -43 47zM276 1221v75q0 25 7.5 40.5t29.5 35.5q37 31 78.5 44.5t75.5 13.5q46 0 80 -12.5t62 -27.5t53 -27.5t52 -12.5q15 0 29 2t33.5 10.5t46 25.5t65.5 48v-74q0 -25 -7.5 -40.5t-28.5 -35.5 q-38 -31 -79 -44t-75 -13q-46 0 -80 12t-61.5 27t-52 27t-52.5 12q-15 0 -29.5 -1.5t-34 -10t-46.5 -26t-66 -48.5z" />
<glyph unicode="&#xf2;" horiz-adv-x="1159" d="M94 528q0 271 124 412t362 141t361.5 -140.5t123.5 -412.5q0 -270 -124.5 -411.5t-360.5 -141.5q-238 0 -362 140.5t-124 412.5zM241 1446h183q12 0 22 -0.5t20.5 -4t21.5 -10.5t26 -20l223 -199h-125q-25 0 -46.5 8t-49.5 29zM256 528q0 -212 80 -320t244 -108 t243.5 107.5t79.5 320.5q0 214 -79.5 321t-243.5 107t-244 -108t-80 -320z" />
<glyph unicode="&#xf3;" horiz-adv-x="1159" d="M94 528q0 271 124 412t362 141t361.5 -140.5t123.5 -412.5q0 -270 -124.5 -411.5t-360.5 -141.5q-238 0 -362 140.5t-124 412.5zM256 528q0 -212 80 -320t244 -108t243.5 107.5t79.5 320.5q0 214 -79.5 321t-243.5 107t-244 -108t-80 -320zM413 1212l223 199q15 13 26 20 t21 10.5t20 4t21 0.5h185l-275 -197q-29 -21 -50 -29t-46 -8h-125z" />
<glyph unicode="&#xf4;" horiz-adv-x="1159" d="M94 528q0 271 124 412t362 141t361.5 -140.5t123.5 -412.5q0 -270 -124.5 -411.5t-360.5 -141.5q-238 0 -362 140.5t-124 412.5zM227 1212l277 234h106q23 0 41 -5.5t47 -31.5l232 -197h-140q-25 0 -46 8t-50 29l-123 90l-125 -90q-29 -21 -51 -29t-45 -8h-123zM256 528 q0 -212 80 -320t244 -108t243.5 107.5t79.5 320.5q0 214 -79.5 321t-243.5 107t-244 -108t-80 -320z" />
<glyph unicode="&#xf5;" horiz-adv-x="1159" d="M94 528q0 271 124 412t362 141t361.5 -140.5t123.5 -412.5q0 -270 -124.5 -411.5t-360.5 -141.5q-238 0 -362 140.5t-124 412.5zM256 528q0 -212 80 -320t244 -108t243.5 107.5t79.5 320.5q0 214 -79.5 321t-243.5 107t-244 -108t-80 -320zM272 1221v75q0 25 7.5 40.5 t29.5 35.5q37 31 78.5 44.5t75.5 13.5q46 0 80 -12.5t62 -27.5t53 -27.5t52 -12.5q15 0 29 2t33.5 10.5t46 25.5t65.5 48v-74q0 -25 -7.5 -40.5t-28.5 -35.5q-38 -31 -79 -44t-75 -13q-46 0 -80 12t-61.5 27t-52 27t-52.5 12q-15 0 -29.5 -1.5t-34 -10t-46.5 -26t-66 -48.5z " />
<glyph unicode="&#xf6;" horiz-adv-x="1159" d="M94 528q0 271 124 412t362 141t361.5 -140.5t123.5 -412.5q0 -270 -124.5 -411.5t-360.5 -141.5q-238 0 -362 140.5t-124 412.5zM256 528q0 -212 80 -320t244 -108t243.5 107.5t79.5 320.5q0 214 -79.5 321t-243.5 107t-244 -108t-80 -320zM297 1241v191h198v-191h-198z M663 1241v191h199v-191h-199z" />
<glyph unicode="&#xf7;" horiz-adv-x="942" d="M92 485v136h758v-136h-758zM362 127v182h209v-182h-209zM362 799v182h209v-182h-209z" />
<glyph unicode="&#xf8;" horiz-adv-x="1161" d="M94 528q0 271 125 412t363 141t361.5 -140.5t123.5 -412.5q0 -270 -124.5 -411.5t-360.5 -141.5q-238 0 -363 140.5t-125 412.5zM256 528q0 -36 2.5 -74t9.5 -75.5t19 -73.5t30 -67l469 651q-76 67 -204 67q-166 0 -246 -107t-80 -321zM381 164q37 -29 86 -46.5 t115 -17.5q86 0 147 26t100 78.5t57.5 133t18.5 190.5q0 179 -59 285z" />
<glyph unicode="&#xf9;" horiz-adv-x="1114" d="M133 328v727h109q43 0 43 -47v-639q0 -70 12.5 -119t42 -80t78.5 -45t123 -14q53 0 95.5 9.5t75 23t54 27t31.5 22.5q16 13 19 20.5t3 24.5v817h109q43 0 43 -47v-1008h-58q-32 0 -45 5.5t-22 19.5q-13 17 -19 27.5t-20 10.5q-12 0 -21 -4.5t-24 -13.5 q-24 -15 -53.5 -27.5t-62 -22t-67.5 -15t-69 -5.5q-189 0 -283 86t-94 267zM219 1446h183q12 0 22 -0.5t20.5 -4t21.5 -10.5t26 -20l223 -199h-125q-25 0 -46.5 8t-49.5 29z" />
<glyph unicode="&#xfa;" horiz-adv-x="1114" d="M133 328v727h109q43 0 43 -47v-639q0 -70 12.5 -119t42 -80t78.5 -45t123 -14q53 0 95.5 9.5t75 23t54 27t31.5 22.5q16 13 19 20.5t3 24.5v817h109q43 0 43 -47v-1008h-58q-32 0 -45 5.5t-22 19.5q-13 17 -19 27.5t-20 10.5q-12 0 -21 -4.5t-24 -13.5 q-24 -15 -53.5 -27.5t-62 -22t-67.5 -15t-69 -5.5q-189 0 -283 86t-94 267zM360 1212l223 199q15 13 26 20t21 10.5t20 4t21 0.5h185l-275 -197q-29 -21 -50 -29t-46 -8h-125z" />
<glyph unicode="&#xfb;" horiz-adv-x="1114" d="M133 328v727h109q43 0 43 -47v-639q0 -70 12.5 -119t42 -80t78.5 -45t123 -14q53 0 95.5 9.5t75 23t54 27t31.5 22.5q16 13 19 20.5t3 24.5v817h109q43 0 43 -47v-1008h-58q-32 0 -45 5.5t-22 19.5q-13 17 -19 27.5t-20 10.5q-12 0 -21 -4.5t-24 -13.5 q-24 -15 -53.5 -27.5t-62 -22t-67.5 -15t-69 -5.5q-189 0 -283 86t-94 267zM205 1212l277 234h106q23 0 41 -5.5t47 -31.5l232 -197h-140q-25 0 -46 8t-50 29l-123 90l-125 -90q-29 -21 -51 -29t-45 -8h-123z" />
<glyph unicode="&#xfc;" horiz-adv-x="1114" d="M133 328v727h109q43 0 43 -47v-639q0 -70 12.5 -119t42 -80t78.5 -45t123 -14q53 0 95.5 9.5t75 23t54 27t31.5 22.5q16 13 19 20.5t3 24.5v817h109q43 0 43 -47v-1008h-58q-32 0 -45 5.5t-22 19.5q-13 17 -19 27.5t-20 10.5q-12 0 -21 -4.5t-24 -13.5 q-24 -15 -53.5 -27.5t-62 -22t-67.5 -15t-69 -5.5q-189 0 -283 86t-94 267zM269 1241v191h198v-191h-198zM635 1241v191h199v-191h-199z" />
<glyph unicode="&#xfd;" horiz-adv-x="1114" d="M133 328v727h109q43 0 43 -47v-639q0 -70 12.5 -119t42 -80t78.5 -45t123 -14q53 0 95.5 9.5t75 23t54 27t31.5 22.5q16 13 19 20.5t3 24.5v817h109q43 0 43 -47v-1008q0 -140 -30 -229t-82.5 -140t-124 -70.5t-154.5 -19.5q-47 0 -86.5 8t-73 21.5t-61 31t-48.5 35.5 q-50 42 -82 97l88 82q29 -40 67 -71q32 -27 79 -49t108 -22q51 0 96 12t79 40.5t53.5 75t19.5 116.5v96q0 23 -4.5 33t-15.5 10q-12 0 -33 -12q-51 -26 -116.5 -48t-145.5 -22q-186 0 -278.5 86t-92.5 267zM381 1212l223 199q15 13 26 20t21 10.5t20 4t21 0.5h185l-275 -197 q-29 -21 -50 -29t-46 -8h-125z" />
<glyph unicode="&#xfe;" d="M143 -317v1806h109q23 0 33 -11t10 -36v-402q0 -43 20 -43q13 0 33 13q51 26 116.5 47.5t145.5 21.5q89 0 167 -32t136 -99t91.5 -170.5t33.5 -247.5t-36 -248.5t-96 -172.5t-137 -101t-159 -33q-80 0 -145.5 22t-116.5 48q-21 12 -33 12q-11 0 -15.5 -10t-4.5 -33v-379 h-109q-43 0 -43 48zM295 238q0 -17 2.5 -24.5t19.5 -20.5q10 -9 30.5 -22.5t50.5 -27t69 -23t86 -9.5q67 0 126 21.5t103 70.5t69.5 128.5t25.5 196.5q0 204 -79 310t-237 106q-52 0 -93 -9.5t-71 -23t-50 -27t-30 -22.5q-14 -12 -18 -19t-4 -24v-581z" />
<glyph unicode="&#xff;" horiz-adv-x="1114" d="M133 328v727h109q43 0 43 -47v-639q0 -70 12.5 -119t42 -80t78.5 -45t123 -14q53 0 95.5 9.5t75 23t54 27t31.5 22.5q16 13 19 20.5t3 24.5v817h109q43 0 43 -47v-1008q0 -140 -30 -229t-82.5 -140t-124 -70.5t-154.5 -19.5q-47 0 -86.5 8t-73 21.5t-61 31t-48.5 35.5 q-50 42 -82 97l88 82q29 -40 67 -71q32 -27 79 -49t108 -22q51 0 96 12t79 40.5t53.5 75t19.5 116.5v96q0 23 -4.5 33t-15.5 10q-12 0 -33 -12q-51 -26 -116.5 -48t-145.5 -22q-186 0 -278.5 86t-92.5 267zM266 1241v191h198v-191h-198zM632 1241v191h199v-191h-199z" />
<glyph unicode="&#x100;" horiz-adv-x="1348" d="M10 0l561 1489h166q23 0 33.5 -9t20.5 -34l546 -1446h-127q-23 0 -33.5 9t-19.5 34l-106 287h-754l-104 -287q-10 -25 -20.5 -34t-33.5 -9h-129zM352 475h643l-321 871zM390 1700v118h571v-118h-571z" />
<glyph unicode="&#x101;" d="M92 524q0 144 36 248.5t96 172.5t137 101t159 33q36 0 72 -5.5t69.5 -14.5t63 -21.5t53.5 -27.5q16 -10 24.5 -14.5t20.5 -4.5q14 0 20.5 11t18.5 28q9 14 22.5 19.5t45.5 5.5h57v-1055h-57q-32 0 -45.5 5.5t-22.5 19.5q-12 17 -18.5 27.5t-20.5 10.5q-12 0 -20.5 -4.5 t-24.5 -13.5q-24 -15 -53.5 -27.5t-63 -22t-69.5 -15t-72 -5.5q-89 0 -167 32t-136 99t-91.5 170.5t-33.5 247.5zM254 526q0 -204 78.5 -309.5t236.5 -105.5q52 0 93 9.5t71 23t50 27t30 22.5q14 12 18.5 19t4.5 24v581q0 9 -0.5 14.5t-2.5 10t-6.5 9t-13.5 11.5 q-10 9 -30.5 22.5t-50.5 27t-69 23t-85 9.5q-67 0 -126 -21.5t-103 -70.5t-69.5 -129t-25.5 -197zM301 1266v118h571v-118h-571z" />
<glyph unicode="&#x102;" horiz-adv-x="1348" d="M10 0l561 1489h166q23 0 33.5 -9t20.5 -34l546 -1446h-127q-23 0 -33.5 9t-19.5 34l-106 287h-754l-104 -287q-10 -25 -20.5 -34t-33.5 -9h-129zM352 475h643l-321 871zM365 1872h100q22 0 35.5 -9.5t30.5 -27.5q21 -28 41 -44t38.5 -24.5t35.5 -11t32 -2.5t32 2.5t36 11 t39.5 24.5t42.5 44q15 18 29.5 27.5t35.5 9.5h93q-19 -50 -51.5 -93t-74 -75t-90.5 -50t-100 -18q-56 0 -104.5 16.5t-87.5 47.5t-67.5 74.5t-45.5 97.5z" />
<glyph unicode="&#x103;" d="M92 524q0 144 36 248.5t96 172.5t137 101t159 33q36 0 72 -5.5t69.5 -14.5t63 -21.5t53.5 -27.5q16 -10 24.5 -14.5t20.5 -4.5q14 0 20.5 11t18.5 28q9 14 22.5 19.5t45.5 5.5h57v-1055h-57q-32 0 -45.5 5.5t-22.5 19.5q-12 17 -18.5 27.5t-20.5 10.5q-12 0 -20.5 -4.5 t-24.5 -13.5q-24 -15 -53.5 -27.5t-63 -22t-69.5 -15t-72 -5.5q-89 0 -167 32t-136 99t-91.5 170.5t-33.5 247.5zM254 526q0 -204 78.5 -309.5t236.5 -105.5q52 0 93 9.5t71 23t50 27t30 22.5q14 12 18.5 19t4.5 24v581q0 9 -0.5 14.5t-2.5 10t-6.5 9t-13.5 11.5 q-10 9 -30.5 22.5t-50.5 27t-69 23t-85 9.5q-67 0 -126 -21.5t-103 -70.5t-69.5 -129t-25.5 -197zM266 1438h100q22 0 35.5 -9.5t30.5 -27.5q21 -28 41 -44t38.5 -24.5t35.5 -11t32 -2.5t32 2.5t36 11t39.5 24.5t42.5 44q15 18 29.5 27.5t35.5 9.5h93q-19 -50 -51.5 -93 t-74 -75t-90.5 -50t-100 -18q-56 0 -104.5 16.5t-87.5 47.5t-67.5 74.5t-45.5 97.5z" />
<glyph unicode="&#x104;" horiz-adv-x="1348" d="M10 0l561 1489h166q23 0 33 -9.5t21 -33.5l546 -1446q-30 -16 -59 -45t-51.5 -61.5t-36.5 -66.5t-14 -65q0 -16 11 -31.5t52 -15.5q25 0 45.5 7.5t46.5 7.5q33 0 39 -33l8 -49q-28 -13 -70 -22t-85 -9q-21 0 -48.5 4t-53 18.5t-43 41t-17.5 71.5q0 60 37 125.5t108 122.5 q-20 0 -29.5 9t-19.5 34l-106 287h-754l-104 -287q-11 -25 -21 -34t-33 -9h-129zM352 475h643l-321 871z" />
<glyph unicode="&#x105;" d="M92 524q0 144 36 248.5t96.5 173t137 101t158.5 32.5q72 0 141.5 -20.5t116.5 -48.5q17 -11 25 -15t20 -4q15 0 21 11.5t18 27.5q10 14 22.5 19.5t45.5 5.5h57v-1055q-84 -63 -117.5 -131t-33.5 -107q0 -16 11 -31.5t52 -15.5q25 0 45.5 7.5t46.5 7.5q33 0 39 -33l8 -49 q-28 -13 -70 -22t-85 -9q-21 0 -48.5 4t-53 18.5t-43 41t-17.5 71.5q0 60 33.5 122.5t99.5 115.5q20 16 20 35q0 22 -14 31.5t-26 9.5q-17 0 -28 -5.5t-28 -15.5q-47 -29 -116.5 -49.5t-141.5 -20.5q-90 0 -168 32t-135 99.5t-91 171t-34 246.5zM254 526q0 -204 79 -309.5 t236 -105.5q52 0 92.5 9t71.5 22.5t50.5 27.5t29.5 23q14 12 18.5 19t4.5 24v581q0 17 -3.5 24t-19.5 21q-10 8 -30.5 22.5t-50.5 28t-68.5 22.5t-85.5 9q-68 0 -126.5 -21.5t-102.5 -70.5t-69.5 -129t-25.5 -197z" />
<glyph unicode="&#x106;" horiz-adv-x="1235" d="M113 750q0 204 45 350t125 239t190 137t240 44q82 0 157.5 -12t134.5 -26q69 -17 128 -38l-48 -137q-9 -23 -26 -23q-6 0 -15 3t-20 11q-51 34 -128.5 57t-176.5 23q-95 0 -175.5 -30.5t-139 -103t-92 -193.5t-33.5 -301q0 -184 25.5 -305.5t82.5 -194t148.5 -102 t222.5 -29.5q43 0 90.5 3.5t94 9t89.5 12t78 12.5l23 -121q-39 -10 -88 -20.5t-103 -19.5t-110 -14.5t-109 -5.5q-154 0 -268.5 41.5t-190.5 133.5t-113.5 240t-37.5 360zM577 1646l223 199q15 13 26 20t21 10.5t20 4t21 0.5h185l-275 -197q-29 -21 -50 -29t-46 -8h-125z " />
<glyph unicode="&#x107;" horiz-adv-x="920" d="M92 524q0 149 37 254.5t102 172t153 97.5t191 31q97 0 164.5 -15.5t108.5 -29.5l-41 -96q-11 -23 -17.5 -33t-15.5 -10q-6 0 -10.5 2t-11.5 6.5t-17 10.5t-28 14q-20 9 -53.5 16.5t-71.5 7.5q-78 0 -139 -22.5t-103 -73.5t-64 -132t-22 -198q0 -101 18.5 -179.5 t60 -132.5t107 -82.5t160.5 -29.5q37 0 76.5 4.5t72.5 9.5q39 6 76 15l21 -108q-40 -13 -87 -24q-41 -9 -94 -16.5t-114 -7.5q-105 0 -190 32t-145 99.5t-92 171t-32 246.5zM413 1212l223 199q15 13 26 20t21 10.5t20 4t21 0.5h185l-275 -197q-29 -21 -50 -29t-46 -8h-125z " />
<glyph unicode="&#x10c;" horiz-adv-x="1235" d="M113 750q0 204 45 350t125 239t190 137t240 44q82 0 157.5 -12t134.5 -26q69 -17 128 -38l-48 -137q-9 -23 -26 -23q-6 0 -15 3t-20 11q-51 34 -128.5 57t-176.5 23q-95 0 -175.5 -30.5t-139 -103t-92 -193.5t-33.5 -301q0 -184 25.5 -305.5t82.5 -194t148.5 -102 t222.5 -29.5q43 0 90.5 3.5t94 9t89.5 12t78 12.5l23 -121q-39 -10 -88 -20.5t-103 -19.5t-110 -14.5t-109 -5.5q-154 0 -268.5 41.5t-190.5 133.5t-113.5 240t-37.5 360zM383 1872h139q25 0 46.5 -8.5t50.5 -28.5l122 -90l125 90q29 20 51.5 28.5t45.5 8.5h123l-277 -234 h-106q-23 0 -41.5 5.5t-47.5 31.5z" />
<glyph unicode="&#x10d;" horiz-adv-x="920" d="M92 524q0 149 37 254.5t102 172t153 97.5t191 31q97 0 164.5 -15.5t108.5 -29.5l-41 -96q-11 -23 -17.5 -33t-15.5 -10q-6 0 -10.5 2t-11.5 6.5t-17 10.5t-28 14q-20 9 -53.5 16.5t-71.5 7.5q-78 0 -139 -22.5t-103 -73.5t-64 -132t-22 -198q0 -101 18.5 -179.5 t60 -132.5t107 -82.5t160.5 -29.5q37 0 76.5 4.5t72.5 9.5q39 6 76 15l21 -108q-40 -13 -87 -24q-41 -9 -94 -16.5t-114 -7.5q-105 0 -190 32t-145 99.5t-92 171t-32 246.5zM188 1438h139q25 0 46.5 -8.5t50.5 -28.5l122 -90l125 90q29 20 51.5 28.5t45.5 8.5h123l-277 -234 h-106q-23 0 -41.5 5.5t-47.5 31.5z" />
<glyph unicode="&#x10e;" horiz-adv-x="1436" d="M184 47v1450q85 1 169 3q36 0 74.5 0.5t77.5 1t76.5 1t69.5 0.5q136 0 237.5 -16t175.5 -52t122 -94t76 -142t39.5 -195.5t11.5 -255.5q0 -149 -12 -263.5t-43 -199t-84 -141.5t-134 -91.5t-194 -49.5t-264 -15q-48 0 -98.5 1t-97.5 2.5t-88 4t-71 4.5q-43 0 -43 47z M326 1872h139q25 0 46.5 -8.5t50.5 -28.5l122 -90l125 90q29 20 51.5 28.5t45.5 8.5h123l-277 -234h-106q-23 0 -41.5 5.5t-47.5 31.5zM344 131q42 -1 90 -2q42 -1 95 -1.5t110 -0.5q101 0 178 10t133.5 36t94.5 71t60.5 114.5t32 166.5t9.5 227t-9.5 227t-32 166 t-60.5 113.5t-94.5 70t-133.5 35.5t-178 10q-41 0 -92 -0.5t-96 -1.5q-53 -1 -107 -2v-1239z" />
<glyph unicode="&#x10f;" d="M92 524q0 144 36 248.5t96 172.5t137 101t159 33q81 0 146 -21.5t116 -47.5q22 -13 33 -13q21 0 21 43v449h108q23 0 33 -11t10 -36v-1442h-57q-32 0 -45.5 5.5t-22.5 19.5q-12 17 -18.5 27.5t-20.5 10.5q-12 0 -20.5 -4.5t-24.5 -13.5q-24 -15 -53.5 -27.5t-63 -22 t-69.5 -15t-72 -5.5q-89 0 -167 32t-136 99t-91.5 170.5t-33.5 247.5zM254 526q0 -204 78.5 -309.5t236.5 -105.5q52 0 93 9.5t71 23t50 27t30 22.5q14 12 18.5 19t4.5 24v581q0 9 -0.5 14.5t-2.5 10t-6.5 9t-13.5 11.5q-10 9 -30.5 22.5t-50.5 27t-69 23t-85 9.5 q-67 0 -126 -21.5t-103 -70.5t-69.5 -129t-25.5 -197zM1065 1137q24 22 47 51q16 24 31.5 58t15.5 75h-90v168h194v-123q0 -68 -16.5 -117t-39 -82.5t-45 -54t-36.5 -31.5l-6 -4z" />
<glyph unicode="&#x110;" horiz-adv-x="1436" d="M23 698v133h161v666q84 0 168 2q72 2 153 3t146 1q203 0 332 -36.5t203 -125t100.5 -233.5t26.5 -360q0 -226 -30 -372.5t-109.5 -232.5t-222 -120.5t-369.5 -34.5q-97 0 -196 4t-159 8q-43 0 -43 47v651h-161zM344 131q41 -2 90 -2q41 -2 94.5 -2h110.5q152 0 250 24.5 t155.5 93t80 190.5t22.5 317q0 196 -22.5 318t-80 189.5t-155.5 91t-250 23.5q-41 0 -92 -1t-96 -1q-54 -2 -107 -2v-539h293v-133h-293v-567z" />
<glyph unicode="&#x111;" d="M92 524q0 144 36 248.5t96.5 173t137 101t158.5 32.5q80 0 145.5 -21.5t116.5 -47.5q21 -13 33 -13q21 0 21 43v172h-332v109h332v168h108q43 0 43 -47v-121h129v-109h-129v-1212h-57q-33 0 -45.5 5t-22.5 20q-12 16 -18 27t-21 11q-12 0 -20 -4t-25 -14 q-47 -29 -116.5 -49.5t-141.5 -20.5q-90 0 -168 32t-135 99.5t-91 171t-34 246.5zM254 526q0 -204 79 -309.5t236 -105.5q52 0 92.5 9t71.5 22.5t50.5 27.5t29.5 23q14 12 18.5 19t4.5 24v581q0 17 -3.5 24t-19.5 21q-10 8 -30.5 22.5t-50.5 28t-68.5 22.5t-85.5 9 q-68 0 -126.5 -21.5t-102.5 -70.5t-69.5 -129t-25.5 -197z" />
<glyph unicode="&#x112;" horiz-adv-x="1225" d="M184 47v1442h889v-141h-731v-519h682v-137h-682v-545h760v-147h-875q-43 0 -43 47zM344 1700v118h571v-118h-571z" />
<glyph unicode="&#x113;" horiz-adv-x="1047" d="M92 528q0 131 29.5 233.5t87 173t142 107.5t194.5 37q96 0 173.5 -25.5t132.5 -71.5t84.5 -109.5t29.5 -139.5q0 -75 -23.5 -131t-67.5 -94q-60 -54 -153 -76t-209 -22q-56 0 -102 4.5t-80 9.5q-40 6 -72 14q9 -99 39 -164t79.5 -103t118 -53.5t154.5 -15.5q32 0 73.5 5 t79.5 11q44 7 91 17l20 -108q-49 -15 -102 -26q-45 -10 -100 -18t-107 -8q-261 0 -386.5 143t-125.5 410zM254 557q37 -14 97 -23.5t147 -9.5q111 0 175 21t95 63q17 25 25 55.5t8 65.5q0 48 -14.5 90t-46 73.5t-80.5 50t-117 18.5q-59 0 -103 -18t-76 -48.5t-53 -71 t-34 -85.5t-18 -91.5t-5 -89.5zM279 1266v118h571v-118h-571z" />
<glyph unicode="&#x116;" horiz-adv-x="1225" d="M184 47v1442h889v-141h-731v-519h682v-137h-682v-545h760v-147h-875q-43 0 -43 47zM537 1675v191h221v-191h-221z" />
<glyph unicode="&#x117;" horiz-adv-x="1047" d="M92 528q0 131 29.5 233.5t87 173t142 107.5t194.5 37q96 0 173.5 -25.5t132.5 -71.5t84.5 -109.5t29.5 -139.5q0 -75 -23.5 -131t-67.5 -94q-60 -54 -153 -76t-209 -22q-56 0 -102 4.5t-80 9.5q-40 6 -72 14q9 -99 39 -164t79.5 -103t118 -53.5t154.5 -15.5q32 0 73.5 5 t79.5 11q44 7 91 17l20 -108q-49 -15 -102 -26q-45 -10 -100 -18t-107 -8q-261 0 -386.5 143t-125.5 410zM254 557q37 -14 97 -23.5t147 -9.5q111 0 175 21t95 63q17 25 25 55.5t8 65.5q0 48 -14.5 90t-46 73.5t-80.5 50t-117 18.5q-59 0 -103 -18t-76 -48.5t-53 -71 t-34 -85.5t-18 -91.5t-5 -89.5zM457 1241v191h221v-191h-221z" />
<glyph unicode="&#x118;" horiz-adv-x="1225" d="M184 47v1442h889v-141h-731v-519h682v-137h-682v-545h760v-147q-53 -33 -87 -66.5t-52.5 -64.5t-25.5 -58.5t-7 -48.5q0 -16 11 -31.5t52 -15.5q25 0 45.5 7.5t46.5 7.5q33 0 39 -33l9 -49q-29 -13 -71 -22t-85 -9q-21 0 -48.5 4t-53 18.5t-43 41t-17.5 71.5 q0 60 43 131.5t121 116.5h-752q-43 0 -43 47z" />
<glyph unicode="&#x119;" horiz-adv-x="1047" d="M92 528q0 263 116 407t337 144q96 0 174 -25.5t132 -71.5t84 -109.5t30 -139.5q0 -145 -91 -225q-59 -53 -152 -75.5t-210 -22.5q-55 0 -101 4t-81 10q-39 6 -72 14q8 -98 38 -163.5t80 -103.5t118.5 -53.5t154.5 -15.5q31 0 73 5.5t81 11.5l90 16l20 -108 q-41 -15 -84 -23q-36 -10 -84.5 -16t-95.5 -11q-41 -43 -64.5 -77.5t-35.5 -61t-15.5 -45t-3.5 -31.5q0 -16 11.5 -31.5t52.5 -15.5q24 0 44.5 7.5t47.5 7.5q33 0 39 -33l8 -49q-28 -13 -70 -22t-85 -9q-21 0 -48.5 4t-53 18.5t-43 41t-17.5 71.5q0 53 30.5 112.5 t90.5 112.5q-230 19 -337.5 159t-107.5 392zM254 557q37 -14 97.5 -23.5t146.5 -9.5q110 0 174.5 21.5t95.5 62.5q33 47 33 121q0 47 -14.5 89t-46 74t-81 50.5t-116.5 18.5q-88 0 -144.5 -39t-88 -98.5t-44 -131t-12.5 -135.5z" />
<glyph unicode="&#x11a;" horiz-adv-x="1225" d="M184 47v1442h889v-141h-731v-519h682v-137h-682v-545h760v-147h-875q-43 0 -43 47zM272 1872h139q25 0 46.5 -8.5t50.5 -28.5l122 -90l125 90q29 20 51.5 28.5t45.5 8.5h123l-277 -234h-106q-23 0 -41.5 5.5t-47.5 31.5z" />
<glyph unicode="&#x11b;" horiz-adv-x="1047" d="M92 528q0 131 29.5 233.5t87 173t142 107.5t194.5 37q96 0 173.5 -25.5t132.5 -71.5t84.5 -109.5t29.5 -139.5q0 -75 -23.5 -131t-67.5 -94q-60 -54 -153 -76t-209 -22q-56 0 -102 4.5t-80 9.5q-40 6 -72 14q9 -99 39 -164t79.5 -103t118 -53.5t154.5 -15.5q32 0 73.5 5 t79.5 11q44 7 91 17l20 -108q-49 -15 -102 -26q-45 -10 -100 -18t-107 -8q-261 0 -386.5 143t-125.5 410zM201 1438h139q25 0 46.5 -8.5t50.5 -28.5l122 -90l125 90q29 20 51.5 28.5t45.5 8.5h123l-277 -234h-106q-23 0 -41.5 5.5t-47.5 31.5zM254 557q37 -14 97 -23.5 t147 -9.5q111 0 175 21t95 63q17 25 25 55.5t8 65.5q0 48 -14.5 90t-46 73.5t-80.5 50t-117 18.5q-59 0 -103 -18t-76 -48.5t-53 -71t-34 -85.5t-18 -91.5t-5 -89.5z" />
<glyph unicode="&#x11e;" horiz-adv-x="1386" d="M113 752q0 205 46 350.5t130.5 238.5t205 136t269.5 43q83 0 157 -12t131 -26q66 -17 122 -38l-48 -139q-5 -11 -10 -17t-14 -6q-16 0 -43 18q-56 39 -126 58.5t-161 19.5q-114 0 -204 -30t-152.5 -102t-95.5 -192.5t-33 -301.5q0 -176 23.5 -296t80 -194t150.5 -106.5 t235 -32.5q58 0 105.5 9.5t82.5 20.5q40 13 72 31q16 11 25 19.5t13.5 19t5.5 24.5t1 36v452h111q23 0 33 -11t10 -36v-688h-76q-29 0 -43 6.5t-26 20.5q-10 11 -20 23.5t-30 12.5q-14 0 -23.5 -5t-25.5 -13q-29 -15 -67 -27.5t-79.5 -22t-84.5 -15t-82 -5.5 q-139 0 -244.5 41.5t-177 134t-107.5 240.5t-36 361zM410 1872h100q22 0 35.5 -9.5t30.5 -27.5q21 -28 41 -44t38.5 -24.5t35.5 -11t32 -2.5t32 2.5t36 11t39.5 24.5t42.5 44q15 18 29.5 27.5t35.5 9.5h93q-19 -50 -51.5 -93t-74 -75t-90.5 -50t-100 -18q-56 0 -104.5 16.5 t-87.5 47.5t-67.5 74.5t-45.5 97.5z" />
<glyph unicode="&#x11f;" d="M92 524q0 144 36 248.5t96 172.5t137 101t159 33q36 0 72 -5.5t69.5 -14.5t63 -21.5t53.5 -27.5q16 -10 24.5 -14.5t20.5 -4.5q14 0 20.5 11t18.5 28q9 14 22.5 19.5t45.5 5.5h57v-1100q0 -117 -29 -196.5t-80 -128t-121 -69t-153 -20.5q-44 0 -83 8t-73 21t-62 29.5 t-51 34.5q-54 41 -93 94l88 82q32 -40 73 -71q35 -27 83.5 -49t107.5 -22q52 0 96.5 13t76.5 42.5t50.5 77t18.5 117.5v96q0 23 -5 33t-16 10t-33 -12q-51 -26 -116 -48t-146 -22q-89 0 -167 32t-136 99t-91.5 170.5t-33.5 247.5zM254 526q0 -204 78.5 -309.5t236.5 -105.5 q52 0 93 9.5t71 23t50 27t30 22.5q14 12 18.5 19t4.5 24v581q0 9 -0.5 14.5t-2.5 10t-6.5 9t-13.5 11.5q-10 9 -30.5 22.5t-50.5 27t-69 23t-85 9.5q-67 0 -126 -21.5t-103 -70.5t-69.5 -129t-25.5 -197zM268 1438h100q22 0 35.5 -9.5t30.5 -27.5q21 -28 41 -44t38.5 -24.5 t35.5 -11t32 -2.5t32 2.5t36 11t39.5 24.5t42.5 44q15 18 29.5 27.5t35.5 9.5h93q-19 -50 -51.5 -93t-74 -75t-90.5 -50t-100 -18q-56 0 -104.5 16.5t-87.5 47.5t-67.5 74.5t-45.5 97.5z" />
<glyph unicode="&#x122;" horiz-adv-x="1386" d="M113 752q0 205 46 350.5t130.5 238.5t205 136t269.5 43q83 0 157 -12t131 -26q66 -17 122 -38l-48 -139q-5 -11 -10 -17t-14 -6q-16 0 -43 18q-56 39 -126 58.5t-161 19.5q-114 0 -204 -30t-152.5 -102t-95.5 -192.5t-33 -301.5q0 -176 23.5 -296t80 -194t150.5 -106.5 t235 -32.5q58 0 105.5 9.5t82.5 20.5q40 13 72 31q16 11 25 19.5t13.5 19t5.5 24.5t1 36v452h111q23 0 33 -11t10 -36v-688h-76q-29 0 -43 6.5t-26 20.5q-10 11 -20 23.5t-30 12.5q-14 0 -23.5 -5t-25.5 -13q-29 -15 -67 -27.5t-79.5 -22t-84.5 -15t-82 -5.5 q-139 0 -244.5 41.5t-177 134t-107.5 240.5t-36 361zM610 -102h199v-125q0 -78 -38 -140.5t-103 -93.5l-49 53q22 13 40 33q17 17 29 39.5t14 50.5h-92v183z" />
<glyph unicode="&#x123;" d="M92 524q0 144 36 248.5t96 172.5t137 101t159 33q36 0 72 -5.5t69.5 -14.5t63 -21.5t53.5 -27.5q16 -10 24.5 -14.5t20.5 -4.5q14 0 20.5 11t18.5 28q9 14 22.5 19.5t45.5 5.5h57v-1100q0 -117 -29 -196.5t-80 -128t-121 -69t-153 -20.5q-44 0 -83 8t-73 21t-62 29.5 t-51 34.5q-54 41 -93 94l88 82q32 -40 73 -71q35 -27 83.5 -49t107.5 -22q52 0 96.5 13t76.5 42.5t50.5 77t18.5 117.5v96q0 23 -5 33t-16 10t-33 -12q-51 -26 -116 -48t-146 -22q-89 0 -167 32t-136 99t-91.5 170.5t-33.5 247.5zM254 526q0 -204 78.5 -309.5t236.5 -105.5 q52 0 93 9.5t71 23t50 27t30 22.5q14 12 18.5 19t4.5 24v581q0 9 -0.5 14.5t-2.5 10t-6.5 9t-13.5 11.5q-10 9 -30.5 22.5t-50.5 27t-69 23t-85 9.5q-67 0 -126 -21.5t-103 -70.5t-69.5 -129t-25.5 -197zM449 1241v137q0 80 24.5 137.5t52.5 94.5q35 43 80 71l60 -63 q-27 -27 -50 -57q-18 -27 -33.5 -62t-15.5 -76h90v-182h-208z" />
<glyph unicode="&#x12a;" horiz-adv-x="528" d="M-22 1700v118h571v-118h-571zM184 47v1442h117q23 0 33 -11t10 -36v-1442h-117q-43 0 -43 47z" />
<glyph unicode="&#x12b;" horiz-adv-x="451" d="M-61 1266v118h571v-118h-571zM150 47v1008h108q23 0 33 -11.5t10 -35.5v-1008h-108q-23 0 -33 11t-10 36z" />
<glyph unicode="&#x12e;" horiz-adv-x="528" d="M76 -248q0 60 37 125.5t108 122.5q-37 2 -37 47v1442h117q43 0 43 -47v-1442q-31 -20 -58.5 -50t-49 -61.5t-34 -64.5t-12.5 -62q0 -16 11.5 -31.5t52.5 -15.5q25 0 45 7.5t47 7.5q33 0 39 -33l8 -49q-28 -13 -70 -22t-85 -9q-21 0 -48.5 4t-53 18.5t-43 41t-17.5 71.5z " />
<glyph unicode="&#x12f;" horiz-adv-x="451" d="M33 -248q0 60 38 125.5t109 122.5q-30 6 -30 47v1008h108q43 0 43 -47v-1008q-31 -20 -58.5 -50t-49 -61.5t-34 -64.5t-12.5 -62q0 -16 11.5 -31.5t52.5 -15.5q25 0 45 7.5t47 7.5q33 0 39 -33l8 -49q-28 -13 -70 -22t-85 -9q-21 0 -48.5 4t-53 18.5t-43 41t-17.5 71.5z M121 1307v182h209v-182h-209z" />
<glyph unicode="&#x130;" horiz-adv-x="528" d="M154 1675v191h221v-191h-221zM184 47v1442h117q23 0 33 -11t10 -36v-1442h-117q-43 0 -43 47z" />
<glyph unicode="&#x131;" horiz-adv-x="451" d="M150 47v1008h108q23 0 33 -11.5t10 -35.5v-1008h-108q-23 0 -33 11t-10 36z" />
<glyph unicode="&#x136;" horiz-adv-x="1323" d="M184 47v1442h117q23 0 33 -11t10 -36v-596h215l440 602q19 25 33 33t37 8h148l-508 -696l614 -793h-170q-23 0 -36.5 8t-33.5 33l-518 661h-221v-702h-117q-43 0 -43 47zM557 -102h199v-125q0 -78 -38 -140.5t-103 -93.5l-49 53q22 13 40 33q17 17 29 39.5t14 50.5h-92 v183z" />
<glyph unicode="&#x137;" horiz-adv-x="1040" d="M143 47v1442h109q23 0 33 -11t10 -36v-772h170l272 344q17 25 30 33t36 8h153l-364 -455l438 -600h-158q-23 0 -35.5 8t-29.5 33l-352 487h-160v-528h-109q-43 0 -43 47zM422 -102h199v-125q0 -78 -38 -140.5t-103 -93.5l-49 53q22 13 40 33q17 17 29 39.5t14 50.5h-92 v183z" />
<glyph unicode="&#x139;" horiz-adv-x="1108" d="M184 47v1442h115q23 0 33 -11t10 -36v-1288h692v-154h-807q-43 0 -43 47zM276 1646l223 199q15 13 26 20t21 10.5t20 4t21 0.5h185l-275 -197q-29 -21 -50 -29t-46 -8h-125z" />
<glyph unicode="&#x13a;" horiz-adv-x="528" d="M108 1652l223 199q15 13 26 20t21 10.5t20 4t21 0.5h185l-275 -197q-29 -21 -50 -29t-46 -8h-125zM145 295v1194h109q23 0 33 -11t10 -36v-1159q0 -47 5 -81t18.5 -55.5t37.5 -32t62 -10.5h11t15 1t22.5 2t33.5 4l10 -111q-44 -8 -77 -11t-75 -3q-62 0 -103.5 19.5 t-66 58.5t-35 97t-10.5 134z" />
<glyph unicode="&#x13b;" horiz-adv-x="1108" d="M184 47v1442h115q23 0 33 -11t10 -36v-1288h692v-154h-807q-43 0 -43 47zM502 -102h199v-125q0 -78 -38 -140.5t-103 -93.5l-49 53q22 13 40 33q17 17 29 39.5t14 50.5h-92v183z" />
<glyph unicode="&#x13c;" horiz-adv-x="528" d="M145 295v1194h109q23 0 33 -11t10 -36v-1159q0 -47 5 -81t18.5 -55.5t37.5 -32t62 -10.5h11t15 1t22.5 2t33.5 4l10 -111q-44 -8 -77 -11t-75 -3q-62 0 -103.5 19.5t-66 58.5t-35 97t-10.5 134zM217 -102h199v-125q0 -78 -38 -140.5t-103 -93.5l-49 53q22 13 40 33 q17 17 29 39.5t14 50.5h-92v183z" />
<glyph unicode="&#x13d;" horiz-adv-x="1108" d="M184 47v1442h115q23 0 33 -11t10 -36v-1288h692v-154h-807q-43 0 -43 47zM451 1137q24 22 47 51q16 24 31.5 58t15.5 75h-90v168h194v-123q0 -68 -16.5 -117t-39 -82.5t-45 -54t-36.5 -31.5l-6 -4z" />
<glyph unicode="&#x13e;" horiz-adv-x="528" d="M145 295v1194h109q23 0 33 -11t10 -36v-1159q0 -47 5 -81t18.5 -55.5t37.5 -32t62 -10.5h11t15 1t22.5 2t33.5 4l10 -111q-44 -8 -77 -11t-75 -3q-62 0 -103.5 19.5t-66 58.5t-35 97t-10.5 134zM375 1137q24 22 47 51q16 24 31.5 58t15.5 75h-90v168h194v-123 q0 -68 -16.5 -117t-39 -82.5t-45 -54t-36.5 -31.5l-6 -4z" />
<glyph unicode="&#x141;" horiz-adv-x="1108" d="M33 492v145l151 100v752h115q23 0 33 -11t10 -36v-619l268 176v-94q0 -23 -6 -43.5t-37 -40.5l-225 -145v-522h692v-154h-807q-43 0 -43 47v543z" />
<glyph unicode="&#x142;" horiz-adv-x="528" d="M14 567v142l131 84v696h109q23 0 33 -11t10 -36v-565l154 102v-90q0 -23 -6 -44t-37 -40l-111 -72v-450q0 -47 5 -81t18.5 -55.5t37.5 -32t62 -10.5h11t15 1t22.5 2t33.5 4l10 -111q-44 -8 -77 -11t-75 -3q-62 0 -103.5 19.5t-66 58.5t-35 97t-10.5 134v356z" />
<glyph unicode="&#x143;" horiz-adv-x="1540" d="M184 47v1442h238q15 0 28 -12t27 -43l729 -1291v1346h107q43 0 43 -47v-1442h-219q-17 0 -30.5 13t-29.5 44l-739 1289v-1346h-111q-43 0 -43 47zM594 1646l223 199q15 13 26 20t21 10.5t20 4t21 0.5h185l-275 -197q-29 -21 -50 -29t-46 -8h-125z" />
<glyph unicode="&#x144;" horiz-adv-x="1126" d="M143 47v1008h58q32 0 45 -5.5t22 -19.5q13 -17 19 -28t20 -11q13 0 21.5 4.5t23.5 14.5q48 29 117 49t141 20q192 0 287.5 -85.5t95.5 -266.5v-727h-108q-23 0 -33 11t-10 36v639q0 70 -13 119t-43 80t-80.5 45t-125.5 14q-55 0 -99 -9.5t-77 -23t-55 -27t-32 -22.5 q-8 -7 -12.5 -11t-6.5 -8.5t-2.5 -9.5t-0.5 -14v-819h-109q-43 0 -43 47zM387 1212l223 199q15 13 26 20t21 10.5t20 4t21 0.5h185l-275 -197q-29 -21 -50 -29t-46 -8h-125z" />
<glyph unicode="&#x145;" horiz-adv-x="1540" d="M184 47v1442h238q15 0 28 -12t27 -43l729 -1291v1346h107q43 0 43 -47v-1442h-219q-17 0 -30.5 13t-29.5 44l-739 1289v-1346h-111q-43 0 -43 47zM672 -102h199v-125q0 -78 -38 -140.5t-103 -93.5l-49 53q22 13 40 33q17 17 29 39.5t14 50.5h-92v183z" />
<glyph unicode="&#x146;" horiz-adv-x="1126" d="M143 47v1008h58q32 0 45 -5.5t22 -19.5q13 -17 19 -28t20 -11q13 0 21.5 4.5t23.5 14.5q48 29 117 49t141 20q192 0 287.5 -85.5t95.5 -266.5v-727h-108q-23 0 -33 11t-10 36v639q0 70 -13 119t-43 80t-80.5 45t-125.5 14q-55 0 -99 -9.5t-77 -23t-55 -27t-32 -22.5 q-8 -7 -12.5 -11t-6.5 -8.5t-2.5 -9.5t-0.5 -14v-819h-109q-43 0 -43 47zM469 -102h199v-125q0 -78 -38 -140.5t-103 -93.5l-49 53q22 13 40 33q17 17 29 39.5t14 50.5h-92v183z" />
<glyph unicode="&#x147;" horiz-adv-x="1540" d="M184 47v1442h238q15 0 28 -12t27 -43l729 -1291v1346h107q43 0 43 -47v-1442h-219q-17 0 -30.5 13t-29.5 44l-739 1289v-1346h-111q-43 0 -43 47zM420 1872h139q25 0 46.5 -8.5t50.5 -28.5l122 -90l125 90q29 20 51.5 28.5t45.5 8.5h123l-277 -234h-106q-23 0 -41.5 5.5 t-47.5 31.5z" />
<glyph unicode="&#x148;" horiz-adv-x="1126" d="M143 47v1008h58q32 0 45 -5.5t22 -19.5q13 -17 19 -28t20 -11q13 0 21.5 4.5t23.5 14.5q48 29 117 49t141 20q192 0 287.5 -85.5t95.5 -266.5v-727h-108q-23 0 -33 11t-10 36v639q0 70 -13 119t-43 80t-80.5 45t-125.5 14q-55 0 -99 -9.5t-77 -23t-55 -27t-32 -22.5 q-8 -7 -12.5 -11t-6.5 -8.5t-2.5 -9.5t-0.5 -14v-819h-109q-43 0 -43 47zM244 1438h139q25 0 46.5 -8.5t50.5 -28.5l122 -90l125 90q29 20 51.5 28.5t45.5 8.5h123l-277 -234h-106q-23 0 -41.5 5.5t-47.5 31.5z" />
<glyph unicode="&#x14c;" horiz-adv-x="1477" d="M113 741q0 198 37.5 343.5t114.5 241.5t195 143t279 47q163 0 281 -47t194.5 -143t113 -241.5t36.5 -343.5q0 -197 -36.5 -342.5t-113 -241.5t-194.5 -143t-281 -47q-161 0 -279 47t-195 143t-114.5 241.5t-37.5 342.5zM283 743q0 -174 28 -294t84.5 -195t142 -108 t199.5 -33q124 0 211 31t142 104t79.5 194t24.5 301q0 174 -26 295t-81.5 196t-142 108.5t-207.5 33.5q-117 0 -202.5 -31t-141.5 -104t-83 -195t-27 -303zM453 1700v118h571v-118h-571z" />
<glyph unicode="&#x14d;" horiz-adv-x="1159" d="M94 528q0 271 124 412t362 141t361.5 -140.5t123.5 -412.5q0 -270 -124.5 -411.5t-360.5 -141.5q-238 0 -362 140.5t-124 412.5zM256 528q0 -212 80 -320t244 -108t243.5 107.5t79.5 320.5q0 214 -79.5 321t-243.5 107t-244 -108t-80 -320zM295 1266v118h571v-118h-571z " />
<glyph unicode="&#x150;" horiz-adv-x="1477" d="M113 741q0 198 37.5 343.5t114.5 241.5t195 143t279 47q163 0 281 -47t194.5 -143t113 -241.5t36.5 -343.5q0 -197 -36.5 -342.5t-113 -241.5t-194.5 -143t-281 -47q-161 0 -279 47t-195 143t-114.5 241.5t-37.5 342.5zM283 743q0 -174 28 -294t84.5 -195t142 -108 t199.5 -33q124 0 211 31t142 104t79.5 194t24.5 301q0 174 -26 295t-81.5 196t-142 108.5t-207.5 33.5q-117 0 -202.5 -31t-141.5 -104t-83 -195t-27 -303zM441 1646l184 199q22 26 38.5 31.5t39.5 5.5h152l-226 -199q-24 -21 -44.5 -29t-43.5 -8h-100zM769 1646l182 199 q12 13 21 20.5t18 11t19 4.5t22 1h151l-227 -199q-23 -21 -43 -29t-45 -8h-98z" />
<glyph unicode="&#x151;" horiz-adv-x="1159" d="M94 528q0 271 124 412t362 141t361.5 -140.5t123.5 -412.5q0 -270 -124.5 -411.5t-360.5 -141.5q-238 0 -362 140.5t-124 412.5zM256 528q0 -212 80 -320t244 -108t243.5 107.5t79.5 320.5q0 214 -79.5 321t-243.5 107t-244 -108t-80 -320zM281 1212l184 199 q22 26 38.5 31.5t39.5 5.5h152l-226 -199q-24 -21 -44.5 -29t-43.5 -8h-100zM609 1212l182 199q12 13 21 20.5t18 11t19 4.5t22 1h151l-227 -199q-23 -21 -43 -29t-45 -8h-98z" />
<glyph unicode="&#x152;" horiz-adv-x="1917" d="M123 741q0 190 35.5 332.5t114.5 237t205 141.5t306 47q51 0 116 -5t140 -5h725v-141h-649v-519h600v-137h-600v-545h678v-147h-754q-75 0 -140 -5t-116 -5q-182 0 -308 47.5t-204.5 142t-113.5 235t-35 326.5zM293 743q0 -161 26.5 -276t85 -188.5t152 -107.5t227.5 -34 q82 0 127 3q26 1 47 3v1203q-30 1 -60 3q-26 1 -56.5 2t-57.5 1q-134 0 -227.5 -34t-152 -107.5t-85 -189t-26.5 -278.5z" />
<glyph unicode="&#x153;" horiz-adv-x="1837" d="M94 528q0 271 124 412t362 141q117 0 205.5 -39.5t150.5 -113.5q12 -14 22 -22.5t21 -8.5t20.5 6.5t20.5 22.5q57 72 132.5 112.5t182.5 40.5q96 0 173.5 -25.5t132.5 -71.5t84.5 -109.5t29.5 -139.5q0 -92 -33.5 -153.5t-93.5 -99.5t-143 -54t-182 -16q-56 0 -102.5 4.5 t-80.5 9.5q-40 6 -71 14q8 -99 38 -164t79.5 -103t118.5 -53.5t155 -15.5q66 0 129 10.5t114 22.5l21 -108q-49 -15 -102 -26q-45 -10 -100 -18t-107 -8q-130 0 -224.5 41t-156.5 115q-13 14 -23.5 22.5t-21.5 8.5t-21 -8.5t-24 -22.5q-30 -32 -65 -60.5t-77 -49.5 t-92 -33.5t-110 -12.5q-238 0 -362 140.5t-124 412.5zM256 528q0 -212 80 -320t244 -108t243.5 107.5t79.5 320.5q0 214 -79.5 321t-243.5 107t-244 -108t-80 -320zM1044 557q22 -10 57 -17q29 -6 75.5 -11t111.5 -5q87 0 145 13.5t93.5 40t50 64.5t14.5 87q0 48 -14.5 90 t-46 73.5t-80 50t-117.5 18.5q-87 0 -143.5 -38.5t-88.5 -98t-44.5 -131t-12.5 -136.5z" />
<glyph unicode="&#x154;" horiz-adv-x="1341" d="M184 47v1450q36 0 74.5 1t85 2t104.5 2t134 1q165 0 276.5 -16.5t179 -62.5t96.5 -126.5t29 -207.5q0 -130 -30.5 -219t-108.5 -136q-14 -8 -22.5 -15t-8.5 -18q0 -6 1.5 -10t7 -8.5t15.5 -11t27 -17.5q38 -24 60 -58t33 -74t14.5 -84t5.5 -87l12 -352h-114q-23 0 -32 11 t-11 36l-13 330q-3 67 -16.5 113.5t-43.5 74.5t-79.5 40.5t-124.5 12.5h-393v-618h-115q-43 0 -43 47zM342 754h453q40 0 63 2t36 7t20 13.5t16 20.5q15 26 28.5 52.5t23.5 58.5t16 70.5t6 88.5q0 90 -14.5 149t-55.5 94.5t-116 49.5t-195 14q-87 0 -155.5 -0.5t-125.5 -5.5 v-614zM454 1646l223 199q15 13 26 20t21 10.5t20 4t21 0.5h185l-275 -197q-29 -21 -50 -29t-46 -8h-125z" />
<glyph unicode="&#x155;" horiz-adv-x="700" d="M143 47v1008h58q32 0 45 -5.5t22 -19.5q13 -17 19 -28t20 -11q13 0 21.5 4.5t23.5 14.5q48 29 117 49t141 20q6 0 13 -0.5t13 -0.5q7 -1 13 -1v-145q-15 1 -30 3q-13 1 -29 2t-31 1q-47 0 -87 -9.5t-71 -23t-52.5 -27t-31.5 -22.5q-8 -7 -12.5 -11t-6.5 -8.5t-2.5 -9.5 t-0.5 -14v-813h-109q-43 0 -43 47zM256 1212l223 199q15 13 26 20t21 10.5t20 4t21 0.5h185l-275 -197q-29 -21 -50 -29t-46 -8h-125z" />
<glyph unicode="&#x156;" horiz-adv-x="1341" d="M184 47v1450q36 0 74.5 1t85 2t104.5 2t134 1q165 0 276.5 -16.5t179 -62.5t96.5 -126.5t29 -207.5q0 -130 -30.5 -219t-108.5 -136q-14 -8 -22.5 -15t-8.5 -18q0 -6 1.5 -10t7 -8.5t15.5 -11t27 -17.5q38 -24 60 -58t33 -74t14.5 -84t5.5 -87l12 -352h-114q-23 0 -32 11 t-11 36l-13 330q-3 67 -16.5 113.5t-43.5 74.5t-79.5 40.5t-124.5 12.5h-393v-618h-115q-43 0 -43 47zM342 754h453q40 0 63 2t36 7t20 13.5t16 20.5q15 26 28.5 52.5t23.5 58.5t16 70.5t6 88.5q0 90 -14.5 149t-55.5 94.5t-116 49.5t-195 14q-87 0 -155.5 -0.5t-125.5 -5.5 v-614zM578 -102h199v-125q0 -78 -38 -140.5t-103 -93.5l-49 53q22 13 40 33q17 17 29 39.5t14 50.5h-92v183z" />
<glyph unicode="&#x157;" horiz-adv-x="700" d="M143 47v1008h58q32 0 45 -5.5t22 -19.5q13 -17 19 -28t20 -11q13 0 21.5 4.5t23.5 14.5q48 29 117 49t141 20q6 0 13 -0.5t13 -0.5q7 -1 13 -1v-145q-15 1 -30 3q-13 1 -29 2t-31 1q-47 0 -87 -9.5t-71 -23t-52.5 -27t-31.5 -22.5q-8 -7 -12.5 -11t-6.5 -8.5t-2.5 -9.5 t-0.5 -14v-813h-109q-43 0 -43 47zM215 -102h199v-125q0 -78 -38 -140.5t-103 -93.5l-49 53q22 13 40 33q17 17 29 39.5t14 50.5h-92v183z" />
<glyph unicode="&#x158;" horiz-adv-x="1341" d="M184 47v1450q36 0 74.5 1t85 2t104.5 2t134 1q165 0 276.5 -16.5t179 -62.5t96.5 -126.5t29 -207.5q0 -130 -30.5 -219t-108.5 -136q-14 -8 -22.5 -15t-8.5 -18q0 -6 1.5 -10t7 -8.5t15.5 -11t27 -17.5q38 -24 60 -58t33 -74t14.5 -84t5.5 -87l12 -352h-114q-23 0 -32 11 t-11 36l-13 330q-3 67 -16.5 113.5t-43.5 74.5t-79.5 40.5t-124.5 12.5h-393v-618h-115q-43 0 -43 47zM279 1872h139q25 0 46.5 -8.5t50.5 -28.5l122 -90l125 90q29 20 51.5 28.5t45.5 8.5h123l-277 -234h-106q-23 0 -41.5 5.5t-47.5 31.5zM342 754h453q40 0 63 2t36 7 t20 13.5t16 20.5q15 26 28.5 52.5t23.5 58.5t16 70.5t6 88.5q0 90 -14.5 149t-55.5 94.5t-116 49.5t-195 14q-87 0 -155.5 -0.5t-125.5 -5.5v-614z" />
<glyph unicode="&#x159;" horiz-adv-x="700" d="M8 1438h139q25 0 46.5 -8.5t50.5 -28.5l122 -90l125 90q29 20 51.5 28.5t45.5 8.5h123l-277 -234h-106q-23 0 -41.5 5.5t-47.5 31.5zM143 47v1008h58q32 0 45 -5.5t22 -19.5q13 -17 19 -28t20 -11q13 0 21.5 4.5t23.5 14.5q48 29 117 49t141 20q6 0 13 -0.5t13 -0.5 q7 -1 13 -1v-145q-15 1 -30 3q-13 1 -29 2t-31 1q-47 0 -87 -9.5t-71 -23t-52.5 -27t-31.5 -22.5q-8 -7 -12.5 -11t-6.5 -8.5t-2.5 -9.5t-0.5 -14v-813h-109q-43 0 -43 47z" />
<glyph unicode="&#x15a;" horiz-adv-x="1137" d="M113 1055q0 49 8 102.5t28.5 104t55 96t87.5 79.5t126.5 54t171.5 20q82 0 148 -9.5t114 -20.5q55 -13 98 -29l-47 -141q-7 -19 -26 -19q-16 0 -35 15q-95 61 -246 61q-162 0 -241 -82t-79 -231q0 -67 30 -109.5t73 -68.5t91 -39t85 -21l104 -22q45 -9 89.5 -21t85 -30.5 t75.5 -45t60.5 -64.5t40 -89t14.5 -119q0 -235 -126 -344t-370 -109q-80 0 -151.5 9.5t-126.5 20.5q-64 13 -119 30l29 135q53 -13 109 -24q48 -9 105.5 -16t112.5 -7q84 0 144.5 13t102 36t66.5 53t38.5 64t17.5 69.5t4 69.5q0 68 -27.5 111t-72.5 69.5t-103 41.5t-118 28 q-15 2 -26 5l-17.5 3.5t-6.5 1.5q-87 15 -156.5 42t-118 70.5t-75 106.5t-26.5 150zM393 1646l223 199q15 13 26 20t21 10.5t20 4t21 0.5h185l-275 -197q-29 -21 -50 -29t-46 -8h-125z" />
<glyph unicode="&#x15b;" horiz-adv-x="887" d="M82 754q0 56 16.5 114t61.5 105.5t125 77.5t207 30q98 0 163.5 -15.5t106.5 -29.5l-39 -96q-9 -23 -15.5 -33t-17.5 -10q-5 0 -10 3t-12.5 8t-20 12t-33.5 16q-45 18 -118 18q-70 0 -118 -13t-78 -36.5t-43 -57t-13 -75.5q0 -51 16.5 -81.5t48.5 -49.5t78.5 -30.5 t106.5 -22.5q81 -15 140 -39.5t97 -60t56 -83.5t18 -110q0 -155 -99 -237.5t-313 -82.5q-51 0 -104 7.5t-98 17.5q-52 11 -101 25l21 112q39 -10 85 -18q39 -7 90.5 -12t108.5 -5q120 0 184 41.5t64 139.5q0 36 -9 65.5t-33.5 52.5t-69 40t-115.5 28q-80 12 -142 31t-105 51 t-65 81t-22 122zM268 1212l223 199q15 13 26 20t21 10.5t20 4t21 0.5h185l-275 -197q-29 -21 -50 -29t-46 -8h-125z" />
<glyph unicode="&#x15e;" horiz-adv-x="1137" d="M113 1055q0 73 19.5 154t71.5 148.5t145 110.5t241 43q82 0 148.5 -10t113.5 -20q55 -13 98 -29l-47 -141q-8 -19 -26 -19q-15 0 -35 15q-97 61 -246 61q-162 0 -241 -82t-79 -231q0 -68 30 -110t73 -68.5t91 -39t85 -20.5l104 -22q68 -15 132.5 -35.5t117 -60.5 t84 -105.5t31.5 -167.5q0 -221 -109.5 -328.5t-324.5 -122.5l-10 -92q20 -2 42.5 -8t41 -18.5t30 -34t11.5 -53.5q0 -45 -18.5 -75t-47.5 -46.5t-63.5 -23.5t-67.5 -7t-70 6t-65 19l14 49q4 18 13.5 25.5t31.5 7.5q14 0 30.5 -4.5t41.5 -4.5q47 0 66.5 10.5t19.5 36.5 q0 29 -39 36t-86 9l24 166q-73 2 -137.5 12.5t-113.5 20.5q-58 12 -107 27l29 135q53 -14 108 -25q47 -10 105.5 -16t113.5 -6q127 0 201 28.5t113 72.5t49 98.5t10 105.5q0 68 -27.5 111t-72.5 69.5t-102.5 42t-118.5 27.5l-25 4q-10 2 -18.5 4t-6.5 2q-86 14 -155.5 42 t-118.5 71t-75.5 106.5t-26.5 149.5z" />
<glyph unicode="&#x15f;" horiz-adv-x="887" d="M82 754q0 55 16.5 113.5t61.5 106.5t125 77.5t207 29.5q98 0 163.5 -15t106.5 -30l-39 -96q-16 -43 -33 -43q-10 0 -22.5 11.5t-53.5 27.5q-47 18 -118 18q-140 0 -196 -50t-56 -132q0 -51 16 -82t48 -49t79 -29.5t107 -23.5q163 -31 237 -99.5t74 -193.5 q0 -139 -79 -219t-247 -96l-12 -97q20 -2 42.5 -8t41 -18.5t30 -34t11.5 -53.5q0 -45 -18.5 -75t-47 -46.5t-63.5 -23.5t-68 -7t-69.5 6t-65.5 19l14 49q5 18 14 25.5t31 7.5q15 0 31.5 -4.5t40.5 -4.5q47 0 66.5 10.5t19.5 36.5q0 29 -39 36t-86 9l27 168q-51 2 -102.5 9.5 t-92.5 17.5q-49 10 -94 23l21 112q39 -10 86 -18q39 -6 90 -11.5t108 -5.5q121 0 184.5 41t63.5 140q0 36 -9 66t-34 52.5t-69 40t-115 27.5q-80 12 -142.5 30.5t-104.5 51.5t-64.5 81t-22.5 122z" />
<glyph unicode="&#x160;" horiz-adv-x="1137" d="M113 1055q0 49 8 102.5t28.5 104t55 96t87.5 79.5t126.5 54t171.5 20q82 0 148 -9.5t114 -20.5q55 -13 98 -29l-47 -141q-7 -19 -26 -19q-16 0 -35 15q-95 61 -246 61q-162 0 -241 -82t-79 -231q0 -67 30 -109.5t73 -68.5t91 -39t85 -21l104 -22q45 -9 89.5 -21t85 -30.5 t75.5 -45t60.5 -64.5t40 -89t14.5 -119q0 -235 -126 -344t-370 -109q-80 0 -151.5 9.5t-126.5 20.5q-64 13 -119 30l29 135q53 -13 109 -24q48 -9 105.5 -16t112.5 -7q84 0 144.5 13t102 36t66.5 53t38.5 64t17.5 69.5t4 69.5q0 68 -27.5 111t-72.5 69.5t-103 41.5t-118 28 q-15 2 -26 5l-17.5 3.5t-6.5 1.5q-87 15 -156.5 42t-118 70.5t-75 106.5t-26.5 150zM217 1872h139q25 0 46.5 -8.5t50.5 -28.5l122 -90l125 90q29 20 51.5 28.5t45.5 8.5h123l-277 -234h-106q-23 0 -41.5 5.5t-47.5 31.5z" />
<glyph unicode="&#x161;" horiz-adv-x="887" d="M82 754q0 56 16.5 114t61.5 105.5t125 77.5t207 30q98 0 163.5 -15.5t106.5 -29.5l-39 -96q-9 -23 -15.5 -33t-17.5 -10q-5 0 -10 3t-12.5 8t-20 12t-33.5 16q-45 18 -118 18q-70 0 -118 -13t-78 -36.5t-43 -57t-13 -75.5q0 -51 16.5 -81.5t48.5 -49.5t78.5 -30.5 t106.5 -22.5q81 -15 140 -39.5t97 -60t56 -83.5t18 -110q0 -155 -99 -237.5t-313 -82.5q-51 0 -104 7.5t-98 17.5q-52 11 -101 25l21 112q39 -10 85 -18q39 -7 90.5 -12t108.5 -5q120 0 184 41.5t64 139.5q0 36 -9 65.5t-33.5 52.5t-69 40t-115.5 28q-80 12 -142 31t-105 51 t-65 81t-22 122zM92 1438h139q25 0 46.5 -8.5t50.5 -28.5l122 -90l125 90q29 20 51.5 28.5t45.5 8.5h123l-277 -234h-106q-23 0 -41.5 5.5t-47.5 31.5z" />
<glyph unicode="&#x162;" horiz-adv-x="1204" d="M20 1348v141h1164v-141h-502v-1348h-117q-43 0 -43 47v1301h-502zM508 -102h199v-125q0 -78 -38 -140.5t-103 -93.5l-49 53q22 13 40 33q17 17 29 39.5t14 50.5h-92v183z" />
<glyph unicode="&#x163;" horiz-adv-x="702" d="M41 936v119h154v229l151 45v-274h283v-119h-283v-643q0 -51 7.5 -89t27 -63t53.5 -37t88 -12q23 0 46 1t42 3q22 2 43 4l9 -108q-36 -8 -84.5 -12.5t-96.5 -4.5q-77 0 -131 19t-88.5 58.5t-50.5 101.5t-16 149v633h-154zM299 -102h199v-125q0 -78 -38 -140.5t-103 -93.5 l-49 53q22 13 40 33q17 17 29 39.5t14 50.5h-92v183z" />
<glyph unicode="&#x164;" horiz-adv-x="1204" d="M20 1348v141h1164v-141h-502v-1348h-117q-43 0 -43 47v1301h-502zM252 1872h139q25 0 46.5 -8.5t50.5 -28.5l122 -90l125 90q29 20 51.5 28.5t45.5 8.5h123l-277 -234h-106q-23 0 -41.5 5.5t-47.5 31.5z" />
<glyph unicode="&#x165;" horiz-adv-x="702" d="M41 936v119h154v229l151 45v-274h283v-119h-283v-643q0 -51 7 -89t26.5 -62.5t54.5 -37t88 -12.5q23 0 46.5 1t41.5 3q23 2 43 4l9 -108q-35 -8 -84.5 -12.5t-96.5 -4.5q-153 0 -219.5 77t-66.5 251v633h-154zM535 1186q24 20 45 45q16 22 30.5 52t14.5 65h-90v168h194 v-123q0 -60 -13.5 -103t-33.5 -73.5t-42 -50t-36 -29.5l-8 -7l-6 -4z" />
<glyph unicode="&#x16a;" horiz-adv-x="1481" d="M164 551v86.5t0.5 128.5t1 153.5t1.5 161.5q1 188 3 408h115q43 0 43 -47q-2 -211 -3 -385q-1 -75 -1.5 -149t-1 -136.5t-0.5 -108v-63.5q0 -128 15 -219t59 -150t123.5 -86.5t209.5 -27.5q66 0 122.5 9t101 21t76.5 25t50 21q21 9 32.5 17t17.5 18.5t7 26.5t1 42v1192 h116q23 0 33 -11t10 -36v-1442h-79q-26 0 -41.5 4.5t-26.5 20.5q-9 12 -19.5 25t-31.5 13q-10 0 -22 -5t-27 -13q-23 -12 -61 -24t-88 -22.5t-109.5 -17t-126.5 -6.5q-149 0 -246 39t-153.5 113.5t-78.5 181.5t-22 242zM455 1700v118h571v-118h-571z" />
<glyph unicode="&#x16b;" horiz-adv-x="1114" d="M133 328v727h109q43 0 43 -47v-639q0 -70 12.5 -119t42 -80t78.5 -45t123 -14q53 0 95.5 9.5t75 23t54 27t31.5 22.5q16 13 19 20.5t3 24.5v817h109q43 0 43 -47v-1008h-58q-32 0 -45 5.5t-22 19.5q-13 17 -19 27.5t-20 10.5q-12 0 -21 -4.5t-24 -13.5 q-24 -15 -53.5 -27.5t-62 -22t-67.5 -15t-69 -5.5q-189 0 -283 86t-94 267zM273 1266v118h571v-118h-571z" />
<glyph unicode="&#x16e;" horiz-adv-x="1481" d="M164 551v86.5t0.5 128.5t1 153.5t1.5 161.5q1 188 3 408h115q43 0 43 -47q-2 -211 -3 -385q-1 -75 -1.5 -149t-1 -136.5t-0.5 -108v-63.5q0 -128 15 -219t59 -150t123.5 -86.5t209.5 -27.5q66 0 122.5 9t101 21t76.5 25t50 21q21 9 32.5 17t17.5 18.5t7 26.5t1 42v1192 h116q23 0 33 -11t10 -36v-1442h-79q-26 0 -41.5 4.5t-26.5 20.5q-9 12 -19.5 25t-31.5 13q-10 0 -22 -5t-27 -13q-23 -12 -61 -24t-88 -22.5t-109.5 -17t-126.5 -6.5q-149 0 -246 39t-153.5 113.5t-78.5 181.5t-22 242zM473 1796q0 112 69.5 169.5t199.5 57.5t199 -57.5 t69 -169.5q0 -108 -70.5 -166.5t-197.5 -58.5t-198 58.5t-71 166.5zM600 1796q0 -34 12 -59t31.5 -42t45 -25.5t53.5 -8.5q27 0 52.5 8.5t45 25.5t31.5 42t12 59t-11 59.5t-30 42.5t-45 25t-55 8t-55 -8t-45.5 -25t-30.5 -42.5t-11 -59.5z" />
<glyph unicode="&#x16f;" horiz-adv-x="1114" d="M133 328v727h109q43 0 43 -47v-639q0 -70 12.5 -119t42 -80t78.5 -45t123 -14q53 0 95.5 9.5t75 23t54 27t31.5 22.5q16 13 19 20.5t3 24.5v817h109q43 0 43 -47v-1008h-58q-32 0 -45 5.5t-22 19.5q-13 17 -19 27.5t-20 10.5q-12 0 -21 -4.5t-24 -13.5 q-24 -15 -53.5 -27.5t-62 -22t-67.5 -15t-69 -5.5q-189 0 -283 86t-94 267zM289 1362q0 112 69.5 169.5t199.5 57.5t199 -57.5t69 -169.5q0 -108 -70.5 -166.5t-197.5 -58.5t-198 58.5t-71 166.5zM416 1362q0 -34 12 -59t31.5 -42t45 -25.5t53.5 -8.5q27 0 52.5 8.5t45 25.5 t31.5 42t12 59t-11 59.5t-30 42.5t-45 25t-55 8t-55 -8t-45.5 -25t-30.5 -42.5t-11 -59.5z" />
<glyph unicode="&#x170;" horiz-adv-x="1481" d="M164 551v86.5t0.5 128.5t1 153.5t1.5 161.5q1 188 3 408h115q43 0 43 -47q-2 -211 -3 -385q-1 -75 -1.5 -149t-1 -136.5t-0.5 -108v-63.5q0 -128 15 -219t59 -150t123.5 -86.5t209.5 -27.5q66 0 122.5 9t101 21t76.5 25t50 21q21 9 32.5 17t17.5 18.5t7 26.5t1 42v1192 h116q23 0 33 -11t10 -36v-1442h-79q-26 0 -41.5 4.5t-26.5 20.5q-9 12 -19.5 25t-31.5 13q-10 0 -22 -5t-27 -13q-23 -12 -61 -24t-88 -22.5t-109.5 -17t-126.5 -6.5q-149 0 -246 39t-153.5 113.5t-78.5 181.5t-22 242zM443 1646l184 199q22 26 38.5 31.5t39.5 5.5h152 l-226 -199q-24 -21 -44.5 -29t-43.5 -8h-100zM771 1646l182 199q12 13 21 20.5t18 11t19 4.5t22 1h151l-227 -199q-23 -21 -43 -29t-45 -8h-98z" />
<glyph unicode="&#x171;" horiz-adv-x="1114" d="M133 328v727h109q43 0 43 -47v-639q0 -70 12.5 -119t42 -80t78.5 -45t123 -14q53 0 95.5 9.5t75 23t54 27t31.5 22.5q16 13 19 20.5t3 24.5v817h109q43 0 43 -47v-1008h-58q-32 0 -45 5.5t-22 19.5q-13 17 -19 27.5t-20 10.5q-12 0 -21 -4.5t-24 -13.5 q-24 -15 -53.5 -27.5t-62 -22t-67.5 -15t-69 -5.5q-189 0 -283 86t-94 267zM258 1212l184 199q22 26 38.5 31.5t39.5 5.5h152l-226 -199q-24 -21 -44.5 -29t-43.5 -8h-100zM586 1212l182 199q12 13 21 20.5t18 11t19 4.5t22 1h151l-227 -199q-23 -21 -43 -29t-45 -8h-98z " />
<glyph unicode="&#x172;" horiz-adv-x="1481" d="M164 551v87v128t1 153.5t1 161.5q2 189 4 408h115q43 0 43 -47q-2 -211 -4 -385q0 -74 -1 -148.5t-1 -137v-108v-63.5q0 -127 15 -219t59 -150.5t124 -86t209 -27.5q66 0 122 9t101 21.5t77 24.5t50 21q21 8 32 16t17.5 19.5t7.5 27.5t1 41v1192h116q43 0 43 -47v-1442 q-90 -66 -122.5 -133.5t-32.5 -104.5q0 -16 11 -31.5t52 -15.5q25 0 45.5 7.5t46.5 7.5q33 0 39 -33l8 -49q-28 -13 -70 -22t-85 -9q-21 0 -48.5 4t-53 18.5t-43 41t-17.5 71.5q0 60 35 120t98 118q8 8 15.5 15t7.5 20q0 43 -52 43q-22 0 -43.5 -7.5t-37.5 -15.5 q-48 -22 -149 -46t-236 -24q-150 0 -246 39t-152.5 114t-79 181.5t-22.5 241.5z" />
<glyph unicode="&#x173;" horiz-adv-x="1114" d="M133 328v727h109q43 0 43 -47v-639q0 -140 54 -199t202 -59q53 0 96 9t74.5 22.5t53 27.5t32.5 23q16 14 19 21t3 24v817h109q43 0 43 -47v-1008q-84 -63 -118 -131t-34 -107q0 -16 11.5 -31.5t52.5 -15.5q24 0 44.5 7.5t47.5 7.5q33 0 39 -33l8 -49q-29 -13 -71 -22 t-85 -9q-20 0 -47.5 4t-53.5 18.5t-43 41t-17 71.5q0 60 33.5 122.5t99.5 115.5q20 16 20 35q0 22 -14.5 31.5t-26.5 9.5q-16 0 -27.5 -5.5t-27.5 -15.5q-47 -29 -114.5 -49.5t-137.5 -20.5q-188 0 -282.5 86t-94.5 267z" />
<glyph unicode="&#x178;" horiz-adv-x="1165" d="M0 1489h141q23 0 32 -9t20 -34l391 -836l385 836q10 25 19 34t32 9h145l-503 -1040v-449h-117q-23 0 -33 11t-10 36v402zM299 1675v191h198v-191h-198zM665 1675v191h199v-191h-199z" />
<glyph unicode="&#x179;" horiz-adv-x="1118" d="M82 0v59q0 32 8.5 58.5t24.5 52.5l723 1173h-742v146h930v-72q0 -26 -7 -50.5t-24 -47.5l-725 -1174h766v-145h-954zM424 1646l223 199q15 13 26 20t21 10.5t20 4t21 0.5h185l-275 -197q-29 -21 -50 -29t-46 -8h-125z" />
<glyph unicode="&#x17a;" horiz-adv-x="915" d="M102 0v66q0 32 7 53.5t24 46.5l494 758h-510v131h686v-78q0 -26 -6 -45.5t-23 -44.5l-495 -756h534v-131h-711zM323 1212l223 199q15 13 26 20t21 10.5t20 4t21 0.5h185l-275 -197q-29 -21 -50 -29t-46 -8h-125z" />
<glyph unicode="&#x17b;" horiz-adv-x="1118" d="M82 0v59q0 32 8.5 58.5t24.5 52.5l723 1173h-742v146h930v-72q0 -26 -7 -50.5t-24 -47.5l-725 -1174h766v-145h-954zM449 1675v191h221v-191h-221z" />
<glyph unicode="&#x17c;" horiz-adv-x="915" d="M102 0v66q0 32 7 53.5t24 46.5l494 758h-510v131h686v-78q0 -26 -6 -45.5t-23 -44.5l-495 -756h534v-131h-711zM348 1241v191h221v-191h-221z" />
<glyph unicode="&#x17d;" horiz-adv-x="1118" d="M82 0v59q0 32 8.5 58.5t24.5 52.5l723 1173h-742v146h930v-72q0 -26 -7 -50.5t-24 -47.5l-725 -1174h766v-145h-954zM217 1872h139q25 0 46.5 -8.5t50.5 -28.5l122 -90l125 90q29 20 51.5 28.5t45.5 8.5h123l-277 -234h-106q-23 0 -41.5 5.5t-47.5 31.5z" />
<glyph unicode="&#x17e;" horiz-adv-x="915" d="M102 0v66q0 32 7 53.5t24 46.5l494 758h-510v131h686v-78q0 -26 -6 -45.5t-23 -44.5l-495 -756h534v-131h-711zM121 1438h139q25 0 46.5 -8.5t50.5 -28.5l122 -90l125 90q29 20 51.5 28.5t45.5 8.5h123l-277 -234h-106q-23 0 -41.5 5.5t-47.5 31.5z" />
<glyph unicode="&#x192;" horiz-adv-x="672" d="M-18 -444l10 110q20 -2 33 -3.5t22 -2t15 -0.5h12q37 0 61 10t38 32t19 55.5t5 80.5v1098h-154v119h154v127q0 87 16 148.5t50.5 101.5t88.5 58.5t131 18.5q48 0 96.5 -4t84.5 -12l-9 -109q-21 2 -43 4q-19 2 -42 3.5t-46 1.5q-54 0 -88 -12t-53.5 -37t-27 -63t-7.5 -89 v-137h279v-119h-279v-1086q0 -76 -10.5 -133.5t-35 -96.5t-66 -59t-103.5 -20q-41 0 -74 3.5t-77 11.5z" />
<glyph unicode="&#x218;" horiz-adv-x="1137" d="M113 1055q0 49 8 102.5t28.5 104t55 96t87.5 79.5t126.5 54t171.5 20q82 0 148 -9.5t114 -20.5q55 -13 98 -29l-47 -141q-7 -19 -26 -19q-16 0 -35 15q-95 61 -246 61q-162 0 -241 -82t-79 -231q0 -67 30 -109.5t73 -68.5t91 -39t85 -21l104 -22q45 -9 89.5 -21t85 -30.5 t75.5 -45t60.5 -64.5t40 -89t14.5 -119q0 -235 -126 -344t-370 -109q-80 0 -151.5 9.5t-126.5 20.5q-64 13 -119 30l29 135q53 -13 109 -24q48 -9 105.5 -16t112.5 -7q84 0 144.5 13t102 36t66.5 53t38.5 64t17.5 69.5t4 69.5q0 68 -27.5 111t-72.5 69.5t-103 41.5t-118 28 q-15 2 -26 5l-17.5 3.5t-6.5 1.5q-87 15 -156.5 42t-118 70.5t-75 106.5t-26.5 150zM479 -102h199v-125q0 -78 -38 -140.5t-103 -93.5l-49 53q22 13 40 33q17 17 29 39.5t14 50.5h-92v183z" />
<glyph unicode="&#x219;" horiz-adv-x="887" d="M82 754q0 56 16.5 114t61.5 105.5t125 77.5t207 30q98 0 163.5 -15.5t106.5 -29.5l-39 -96q-9 -23 -15.5 -33t-17.5 -10q-5 0 -10 3t-12.5 8t-20 12t-33.5 16q-45 18 -118 18q-70 0 -118 -13t-78 -36.5t-43 -57t-13 -75.5q0 -51 16.5 -81.5t48.5 -49.5t78.5 -30.5 t106.5 -22.5q81 -15 140 -39.5t97 -60t56 -83.5t18 -110q0 -155 -99 -237.5t-313 -82.5q-51 0 -104 7.5t-98 17.5q-52 11 -101 25l21 112q39 -10 85 -18q39 -7 90.5 -12t108.5 -5q120 0 184 41.5t64 139.5q0 36 -9 65.5t-33.5 52.5t-69 40t-115.5 28q-80 12 -142 31t-105 51 t-65 81t-22 122zM350 -102h199v-125q0 -78 -38 -140.5t-103 -93.5l-49 53q22 13 40 33q17 17 29 39.5t14 50.5h-92v183z" />
<glyph unicode="&#x21a;" horiz-adv-x="1204" d="M20 1348v141h1164v-141h-502v-1348h-117q-43 0 -43 47v1301h-502zM508 -102h199v-125q0 -78 -38 -140.5t-103 -93.5l-49 53q22 13 40 33q17 17 29 39.5t14 50.5h-92v183z" />
<glyph unicode="&#x21b;" horiz-adv-x="702" d="M41 936v119h154v229l151 45v-274h283v-119h-283v-643q0 -51 7.5 -89t27 -63t53.5 -37t88 -12q23 0 46 1t42 3q22 2 43 4l9 -108q-36 -8 -84.5 -12.5t-96.5 -4.5q-77 0 -131 19t-88.5 58.5t-50.5 101.5t-16 149v633h-154zM299 -102h199v-125q0 -78 -38 -140.5t-103 -93.5 l-49 53q22 13 40 33q17 17 29 39.5t14 50.5h-92v183z" />
<glyph unicode="&#x2c6;" horiz-adv-x="793" d="M45 1212l277 234h106q23 0 41 -5.5t47 -31.5l232 -197h-140q-25 0 -46 8t-50 29l-123 90l-125 -90q-29 -21 -51 -29t-45 -8h-123z" />
<glyph unicode="&#x2da;" horiz-adv-x="659" d="M61 1362q0 112 69.5 169.5t199.5 57.5t199 -57.5t69 -169.5q0 -108 -70.5 -166.5t-197.5 -58.5t-198 58.5t-71 166.5zM188 1362q0 -34 12 -59t31.5 -42t45 -25.5t53.5 -8.5q27 0 52.5 8.5t45 25.5t31.5 42t12 59t-11 59.5t-30 42.5t-45 25t-55 8t-55 -8t-45.5 -25 t-30.5 -42.5t-11 -59.5z" />
<glyph unicode="&#x2dc;" horiz-adv-x="707" d="M47 1221v75q0 25 7.5 40.5t29.5 35.5q37 31 78.5 44.5t75.5 13.5q46 0 80 -12.5t62 -27.5t53 -27.5t52 -12.5q15 0 29 2t33.5 10.5t46 25.5t65.5 48v-74q0 -25 -7.5 -40.5t-28.5 -35.5q-38 -31 -79 -44t-75 -13q-46 0 -80 12t-61.5 27t-52 27t-52.5 12q-15 0 -29.5 -1.5 t-34 -10t-46.5 -26t-66 -48.5z" />
<glyph unicode="&#x401;" horiz-adv-x="1225" d="M184 47v1442h889v-141h-731v-519h682v-137h-682v-545h760v-147h-875q-43 0 -43 47zM344 1675v191h198v-191h-198zM710 1675v191h199v-191h-199z" />
<glyph unicode="&#x402;" horiz-adv-x="1647" d="M20 1348v141h1164v-141h-502v-416q0 -43 20 -43q9 0 33 12q144 76 320 76q222 0 325 -101.5t103 -314.5v-534q0 -202 -102 -310t-294 -108q-143 0 -245 31l30 135q99 -29 211 -29q135 0 188.5 67t53.5 214v489q0 186 -74.5 254t-238.5 68q-103 0 -190.5 -31t-113.5 -54 t-26 -46v-707h-117q-43 0 -43 47v1301h-502zM1110 1079z" />
<glyph unicode="&#x403;" horiz-adv-x="1051" d="M184 47v1442h850v-141h-692v-1348h-115q-43 0 -43 47zM459 1645l223 199q15 13 26 20t21 10.5t20 4t21 0.5h185l-275 -197q-29 -21 -50 -29t-46 -8h-125z" />
<glyph unicode="&#x404;" horiz-adv-x="1235" d="M113 750q0 390 162.5 580t437.5 190q204 0 420 -76q-49 -142 -53.5 -151t-20.5 -9q-15 0 -35 14q-120 80 -305 80q-206 0 -315.5 -137.5t-122.5 -411.5h696v-137h-698q4 -296 101 -434.5t378 -138.5q120 0 352 37l23 -121q-234 -60 -410 -60q-325 0 -467.5 185.5 t-142.5 589.5z" />
<glyph unicode="&#x405;" horiz-adv-x="1137" d="M113 1055q0 49 8 102.5t28.5 104t55 96t87.5 79.5t126.5 54t171.5 20q82 0 148 -9.5t114 -20.5q55 -13 98 -29l-47 -141q-7 -19 -26 -19q-16 0 -35 15q-95 61 -246 61q-162 0 -241 -82t-79 -231q0 -67 30 -109.5t73 -68.5t91 -39t85 -21l104 -22q45 -9 89.5 -21t85 -30.5 t75.5 -45t60.5 -64.5t40 -89t14.5 -119q0 -235 -126 -344t-370 -109q-80 0 -151.5 9.5t-126.5 20.5q-64 13 -119 30l29 135q53 -13 109 -24q48 -9 105.5 -16t112.5 -7q84 0 144.5 13t102 36t66.5 53t38.5 64t17.5 69.5t4 69.5q0 68 -27.5 111t-72.5 69.5t-103 41.5t-118 28 q-15 2 -26 5l-17.5 3.5t-6.5 1.5q-87 15 -156.5 42t-118 70.5t-75 106.5t-26.5 150z" />
<glyph unicode="&#x406;" horiz-adv-x="528" d="M184 47v1442h117q23 0 33 -11t10 -36v-1442h-117q-43 0 -43 47z" />
<glyph unicode="&#x407;" horiz-adv-x="528" d="M-18 1675v191h198v-191h-198zM184 47v1442h117q23 0 33 -11t10 -36v-1442h-117q-43 0 -43 47zM348 1675v191h199v-191h-199z" />
<glyph unicode="&#x408;" horiz-adv-x="969" d="M41 16l31 138q39 -10 83 -17q38 -6 85.5 -11t99.5 -5q58 0 111.5 9t93.5 41.5t64 94.5t24 168v1055h119q43 0 43 -47v-991q0 -144 -30 -236.5t-85.5 -146t-135 -73.5t-177.5 -20q-69 0 -127.5 6t-103.5 14q-52 9 -95 21z" />
<glyph unicode="&#x409;" horiz-adv-x="2251" d="M2 -8l23 139q49 -10 104 -10q96 0 135.5 75.5t64 482.5t31.5 810h832q43 0 43 -47v-613h373q299 0 419.5 -95.5t120.5 -317.5q0 -240 -138 -334t-505 -94q-99 0 -238 5.5t-155.5 7.5t-25.5 12.5t-9 33.5v1301h-569l-30 -667q-21 -389 -50.5 -496t-89.5 -158.5t-152 -51.5 q-105 0 -184 17zM1235 127q164 -8 334 -8q225 0 314 55.5t89 235.5q0 159 -76 220.5t-266 61.5h-395v-565z" />
<glyph unicode="&#x40a;" horiz-adv-x="2331" d="M184 47v1442h117q43 0 43 -47v-613h815v660h113q43 0 43 -47v-613h373q299 0 419.5 -95.5t120.5 -317.5q0 -240 -138 -334t-505 -94q-99 0 -237 5.5t-154.5 7.5t-25.5 12.5t-9 33.5v645h-815v-692h-117q-43 0 -43 47zM1315 127q164 -8 334 -8q225 0 314 55.5t89 235.5 q0 157 -75.5 219.5t-266.5 62.5h-395v-565z" />
<glyph unicode="&#x40b;" horiz-adv-x="1647" d="M20 1348v141h1164v-141h-502v-416q0 -43 20 -43q9 0 33 12q144 76 320 76q222 0 325 -101.5t103 -314.5v-561h-113q-43 0 -43 47v469q0 184 -75 253t-240 69q-103 0 -190.5 -31t-113.5 -54t-26 -46v-707h-117q-43 0 -43 47v1301h-502zM1010 1079z" />
<glyph unicode="&#x40c;" horiz-adv-x="1323" d="M184 47v1442h117q23 0 33 -11t10 -36v-596h215l440 602q19 25 33 33t37 8h148l-508 -696l614 -793h-170q-23 0 -36.5 8t-33.5 33l-518 661h-221v-702h-117q-43 0 -43 47zM524 1614l223 199q15 13 26 20t21 10.5t20 4t21 0.5h185l-275 -197q-29 -21 -50 -29t-46 -8h-125z " />
<glyph unicode="&#x40e;" horiz-adv-x="1165" d="M0 1489h141q22 0 30.5 -7.5t21.5 -35.5l403 -864l373 864q11 26 20 34.5t31 8.5h145l-538 -1190q-77 -170 -153.5 -247t-244.5 -77q-85 0 -206 39l26 138q103 -37 191 -37q99 0 151.5 72t116.5 223zM287 1823h100q22 0 35.5 -9.5t30.5 -27.5q21 -28 41 -44t38.5 -24.5 t35.5 -11t32 -2.5t32 2.5t36 11t39.5 24.5t42.5 44q15 18 29.5 27.5t35.5 9.5h93q-19 -50 -51.5 -93t-74 -75t-90.5 -50t-100 -18q-56 0 -104.5 16.5t-87.5 47.5t-67.5 74.5t-45.5 97.5z" />
<glyph unicode="&#x40f;" horiz-adv-x="1479" d="M184 47v1442h115q43 0 43 -47v-1297h795v1344h114q43 0 43 -47v-1442h-495v-236h-99q-43 0 -43 48v188h-430q-43 0 -43 47z" />
<glyph unicode="&#x410;" horiz-adv-x="1348" d="M10 0l561 1489h166q23 0 33.5 -9t20.5 -34l546 -1446h-127q-23 0 -33.5 9t-19.5 34l-106 287h-754l-104 -287q-10 -25 -20.5 -34t-33.5 -9h-129zM352 475h643l-321 871z" />
<glyph unicode="&#x411;" horiz-adv-x="1358" d="M184 47v1442h891v-141h-733v-519h373q299 0 419.5 -95.5t120.5 -317.5q0 -240 -138 -334t-505 -94q-99 0 -238 5.5t-155.5 7.5t-25.5 12.5t-9 33.5zM342 127q164 -8 334 -8q225 0 314 55.5t89 235.5q0 159 -76 220.5t-266 61.5h-395v-565z" />
<glyph unicode="&#x412;" horiz-adv-x="1399" d="M184 47v1448q97 3 197.5 5.5t218.5 2.5q156 0 271 -13t190 -54t112 -117t37 -203q0 -105 -31 -180.5t-100 -126.5q-12 -9 -18 -16.5t-6 -18.5q0 -15 18 -24q48 -27 81 -61.5t52.5 -77t28 -95t8.5 -115.5q0 -89 -15.5 -154t-48.5 -111t-84 -75t-122.5 -45t-164 -22 t-208.5 -6q-51 0 -105 1t-104 2.5t-93 4t-71 4.5q-43 0 -43 47zM342 127q28 -2 67 -3t82 -2.5t87.5 -2t85.5 -0.5q125 0 203.5 14t123 47t60.5 88t16 138q0 85 -18.5 142t-44.5 91q-16 20 -28 30.5t-25.5 15.5t-32.5 6t-50 1h-526v-565zM342 829h539q27 0 44.5 4t29 11.5 t18.5 17t14 21.5q26 43 41.5 99.5t15.5 119.5q0 78 -16 131t-59.5 84.5t-120.5 45t-199 13.5q-40 0 -82.5 -0.5t-83.5 -1.5t-77.5 -2.5t-63.5 -3.5v-539z" />
<glyph unicode="&#x413;" horiz-adv-x="1051" d="M184 47v1442h850v-141h-692v-1348h-115q-43 0 -43 47z" />
<glyph unicode="&#x414;" horiz-adv-x="1499" d="M49 147h150q155 265 263 617.5t130 724.5h612q43 0 43 -47v-1295h148q43 0 43 -47v-336h-99q-43 0 -43 48v188h-1103v-236h-101q-43 0 -43 48v335zM381 147h709v1201h-351q-24 -308 -122 -625t-236 -576z" />
<glyph unicode="&#x415;" horiz-adv-x="1225" d="M184 47v1442h889v-141h-731v-519h682v-137h-682v-545h760v-147h-875q-43 0 -43 47z" />
<glyph unicode="&#x416;" horiz-adv-x="1849" d="M10 0l525 780l-478 709h146q26 0 39.5 -8.5t29.5 -32.5l400 -602h174v643h115q43 0 43 -47v-596h174l399 602q26 41 70 41h145l-477 -709l524 -780h-149q-43 0 -70 41l-432 661h-184v-702h-115q-43 0 -43 47v655h-184l-433 -661q-21 -26 -34 -33.5t-35 -7.5h-150z" />
<glyph unicode="&#x417;" horiz-adv-x="1227" d="M102 49l41 121q165 -59 373 -59q195 0 293 71t98 213q0 156 -82 229.5t-317 73.5h-242v142h246q197 0 276.5 68.5t79.5 226.5q0 120 -79 176.5t-248 56.5q-176 0 -348 -72l-41 131q198 74 389 74q261 0 376 -90t115 -281q0 -204 -166 -298q-45 -26 -45 -41q0 -18 50 -40 q113 -50 156.5 -139t43.5 -206q0 -216 -140 -323.5t-419 -107.5q-238 0 -410 74z" />
<glyph unicode="&#x418;" horiz-adv-x="1540" d="M184 47v1442h117q43 0 43 -47v-1254l805 1301h164q43 0 43 -47v-1442h-113q-43 0 -43 47v1266l-815 -1313h-158q-43 0 -43 47z" />
<glyph unicode="&#x419;" horiz-adv-x="1540" d="M184 47v1442h117q43 0 43 -47v-1254l805 1301h164q43 0 43 -47v-1442h-113q-43 0 -43 47v1266l-815 -1313h-158q-43 0 -43 47zM479 1860h100q22 0 35.5 -9.5t30.5 -27.5q21 -28 41 -44t38.5 -24.5t35.5 -11t32 -2.5t32 2.5t36 11t39.5 24.5t42.5 44q15 18 29.5 27.5 t35.5 9.5h93q-19 -50 -51.5 -93t-74 -75t-90.5 -50t-100 -18q-56 0 -104.5 16.5t-87.5 47.5t-67.5 74.5t-45.5 97.5z" />
<glyph unicode="&#x41a;" horiz-adv-x="1323" d="M184 47v1442h117q23 0 33 -11t10 -36v-596h215l440 602q19 25 33 33t37 8h148l-508 -696l614 -793h-170q-23 0 -36.5 8t-33.5 33l-518 661h-221v-702h-117q-43 0 -43 47z" />
<glyph unicode="&#x41b;" horiz-adv-x="1419" d="M2 -8l23 139q49 -10 104 -10q96 0 135.5 75t64.5 481.5t33 811.5h830q43 0 43 -47v-1442h-115q-43 0 -43 47v1301h-567l-31 -665q-22 -392 -51.5 -498.5t-89.5 -158t-152 -51.5q-105 0 -184 17z" />
<glyph unicode="&#x41c;" horiz-adv-x="1903" d="M123 0l174 1489h217q23 0 33 -9t18 -34l385 -1303l400 1346h219q23 0 31.5 -10.5t11.5 -36.5l168 -1442h-113q-23 0 -31.5 10.5t-11.5 36.5l-158 1299l-413 -1346h-166q-23 0 -33 9t-18 34l-400 1303l-157 -1299q-4 -26 -12 -36.5t-31 -10.5h-113z" />
<glyph unicode="&#x41d;" horiz-adv-x="1499" d="M184 47v1442h117q23 0 33 -11t10 -36v-611h815v658h113q23 0 33 -11t10 -36v-1442h-113q-23 0 -33 11t-10 36v639h-815v-686h-117q-43 0 -43 47z" />
<glyph unicode="&#x41e;" horiz-adv-x="1477" d="M113 741q0 198 37.5 343.5t114.5 241.5t195 143t279 47q163 0 281 -47t194.5 -143t113 -241.5t36.5 -343.5q0 -197 -36.5 -342.5t-113 -241.5t-194.5 -143t-281 -47q-161 0 -279 47t-195 143t-114.5 241.5t-37.5 342.5zM283 743q0 -174 28 -294t84.5 -195t142 -108 t199.5 -33q124 0 211 31t142 104t79.5 194t24.5 301q0 174 -26 295t-81.5 196t-142 108.5t-207.5 33.5q-117 0 -202.5 -31t-141.5 -104t-83 -195t-27 -303z" />
<glyph unicode="&#x41f;" horiz-adv-x="1479" d="M184 47v1442h1067q43 0 43 -47v-1442h-114q-43 0 -43 47v1296h-795v-1343h-115q-43 0 -43 47z" />
<glyph unicode="&#x420;" horiz-adv-x="1270" d="M184 47v1450q97 0 198 3t220 3q160 0 270 -23t178 -76.5t98 -141.5t30 -218q0 -137 -29.5 -230t-97 -150t-177.5 -82t-272 -25h-260v-557h-115q-43 0 -43 47zM342 686h285q111 0 185.5 16.5t119.5 56t63.5 105.5t18.5 166t-18.5 167t-63.5 106.5t-119.5 56t-185.5 16.5 q-66 0 -118.5 -1t-89.5 -2q-44 -2 -77 -3v-684z" />
<glyph unicode="&#x421;" horiz-adv-x="1235" d="M113 750q0 204 45 350t125 239t190 137t240 44q82 0 157.5 -12t134.5 -26q69 -17 128 -38l-48 -137q-9 -23 -26 -23q-6 0 -15 3t-20 11q-51 34 -128.5 57t-176.5 23q-95 0 -175.5 -30.5t-139 -103t-92 -193.5t-33.5 -301q0 -184 25.5 -305.5t82.5 -194t148.5 -102 t222.5 -29.5q43 0 90.5 3.5t94 9t89.5 12t78 12.5l23 -121q-39 -10 -88 -20.5t-103 -19.5t-110 -14.5t-109 -5.5q-154 0 -268.5 41.5t-190.5 133.5t-113.5 240t-37.5 360z" />
<glyph unicode="&#x422;" horiz-adv-x="1204" d="M20 1348v141h1164v-141h-502v-1348h-117q-43 0 -43 47v1301h-502z" />
<glyph unicode="&#x423;" horiz-adv-x="1165" d="M0 1489h141q22 0 30.5 -7.5t21.5 -35.5l403 -864l373 864q11 26 20 34.5t31 8.5h145l-538 -1190q-77 -170 -153.5 -247t-244.5 -77q-85 0 -206 39l26 138q103 -37 191 -37q99 0 151.5 72t116.5 223z" />
<glyph unicode="&#x424;" horiz-adv-x="1544" d="M92 748q0 276 127.5 412t396.5 136h76v213h117q43 0 43 -47v-166h76q262 0 393 -130t131 -390q0 -279 -129 -414t-395 -135h-76v-247h-117q-43 0 -43 47v200h-76q-262 0 -393 130t-131 391zM256 762q0 -204 87.5 -306t262.5 -102h86v813h-86q-175 0 -262.5 -101.5 t-87.5 -303.5zM852 356h86q175 0 262.5 101.5t87.5 304.5t-87.5 305t-262.5 102h-86v-813z" />
<glyph unicode="&#x425;" horiz-adv-x="1243" d="M41 1489h143q23 0 36.5 -8t29.5 -33l371 -588l356 588q15 25 28.5 33t36.5 8h146l-465 -741l479 -748h-147q-23 0 -36.5 8t-29.5 33l-368 582l-369 -582q-16 -25 -29.5 -33t-36.5 -8h-143l477 745z" />
<glyph unicode="&#x426;" horiz-adv-x="1544" d="M184 47v1442h113q43 0 43 -47v-1297h795v1344h116q43 0 43 -47v-1295h146q43 0 43 -47v-336h-99q-43 0 -43 48v188h-1114q-43 0 -43 47zM1479 0z" />
<glyph unicode="&#x427;" horiz-adv-x="1389" d="M164 981q0 151 6 508h115q43 0 43 -47l-6 -412q0 -212 77.5 -303.5t270.5 -91.5q147 0 246 34.5t113.5 53t14.5 78.5v688h117q43 0 43 -47v-1442h-110q-50 0 -50 51v471q0 22 -13 33.5t-25 11.5q-6 0 -54 -18q-143 -55 -329 -55q-229 0 -344 118.5t-115 368.5z" />
<glyph unicode="&#x428;" horiz-adv-x="1968" d="M184 47v1442h115q43 0 43 -47v-1295h563v1342h115q43 0 43 -47v-1295h563v1342h115q43 0 43 -47v-1442h-1557q-43 0 -43 47z" />
<glyph unicode="&#x429;" horiz-adv-x="2036" d="M184 47v1442h115q43 0 43 -47v-1295h563v1342h115q43 0 43 -47v-1295h563v1342h115q43 0 43 -47v-1295h147q43 0 43 -47v-336h-98q-43 0 -43 48v188h-1606q-43 0 -43 47zM1968 0z" />
<glyph unicode="&#x42a;" horiz-adv-x="1612" d="M16 1348v141h537q43 0 43 -47v-613h373q299 0 419.5 -95.5t120.5 -317.5q0 -240 -138 -334t-505 -94q-99 0 -236.5 5.5t-156.5 7.5t-28 12t-9 34v1301h-420zM596 127q164 -8 334 -8q225 0 314 55.5t89 235.5q0 159 -76 220.5t-266 61.5h-395v-565z" />
<glyph unicode="&#x42b;" horiz-adv-x="1702" d="M184 47v1442h117q43 0 43 -47v-613h301q300 0 420.5 -95.5t120.5 -317.5q0 -246 -144 -337t-499 -91q-61 0 -194.5 4t-149 14.5t-15.5 40.5zM344 127q153 -8 262 -8q226 0 315 55.5t89 235.5q0 159 -76.5 220.5t-265.5 61.5h-324v-565zM1358 47v1442h117q43 0 43 -47 v-1442h-117q-43 0 -43 47z" />
<glyph unicode="&#x42c;" horiz-adv-x="1360" d="M184 47v1442h117q43 0 43 -47v-613h373q299 0 419.5 -95.5t120.5 -317.5q0 -246 -144 -337t-499 -91q-99 0 -236.5 5.5t-156.5 7.5t-28 12t-9 34zM344 127q164 -8 334 -8q225 0 314 55.5t89 235.5q0 159 -76 220.5t-266 61.5h-395v-565z" />
<glyph unicode="&#x42d;" horiz-adv-x="1245" d="M102 29l29 135q204 -45 369 -45q250 0 354.5 139.5t110.5 433.5h-697v137h697q-12 276 -107 412.5t-323 136.5q-89 0 -165 -17t-124 -41t-56 -24q-20 0 -27 25l-36 121q211 78 426 78q307 0 443.5 -181.5t136.5 -560.5q0 -402 -155 -602.5t-464 -200.5q-198 0 -412 54z " />
<glyph unicode="&#x42e;" horiz-adv-x="1999" d="M184 47v1442h117q43 0 43 -47v-611h373q14 347 156 516t427 169q303 0 444.5 -187.5t141.5 -587.5q0 -396 -141 -585t-445 -189q-291 0 -434 177.5t-151 541.5h-371v-686h-117q-43 0 -43 47zM885 743q0 -328 95.5 -479t317.5 -151q241 0 329.5 143t88.5 487 q0 338 -94 485.5t-324 147.5q-232 0 -322.5 -149t-90.5 -484z" />
<glyph unicode="&#x42f;" horiz-adv-x="1352" d="M182 0q13 375 16 430.5t26 121t83 103.5q41 26 46 32.5t5 14.5q0 16 -30 33q-70 41 -105 129.5t-35 225.5q0 241 113.5 327t468.5 86l397 -6v-1497h-114q-43 0 -43 47v571h-394q-144 0 -201.5 -50t-62.5 -191l-8 -220q-4 -117 -6.5 -129.5t-12 -20t-28.5 -7.5h-115z M348 1067q0 -127 40 -209t61 -93t108 -11h453v614q-66 6 -281 6q-214 0 -297.5 -51t-83.5 -256z" />
<glyph unicode="&#x430;" d="M92 524q0 144 36 248.5t96 172.5t137 101t159 33q36 0 72 -5.5t69.5 -14.5t63 -21.5t53.5 -27.5q16 -10 24.5 -14.5t20.5 -4.5q14 0 20.5 11t18.5 28q9 14 22.5 19.5t45.5 5.5h57v-1055h-57q-32 0 -45.5 5.5t-22.5 19.5q-12 17 -18.5 27.5t-20.5 10.5q-12 0 -20.5 -4.5 t-24.5 -13.5q-24 -15 -53.5 -27.5t-63 -22t-69.5 -15t-72 -5.5q-89 0 -167 32t-136 99t-91.5 170.5t-33.5 247.5zM254 526q0 -204 78.5 -309.5t236.5 -105.5q52 0 93 9.5t71 23t50 27t30 22.5q14 12 18.5 19t4.5 24v581q0 9 -0.5 14.5t-2.5 10t-6.5 9t-13.5 11.5 q-10 9 -30.5 22.5t-50.5 27t-69 23t-85 9.5q-67 0 -126 -21.5t-103 -70.5t-69.5 -129t-25.5 -197z" />
<glyph unicode="&#x431;" horiz-adv-x="1159" d="M94 608q0 385 116.5 558t369.5 204q114 15 169 37t62 82h92q41 0 41 -43q0 -91 -73.5 -134.5t-243.5 -66.5q-199 -27 -273 -109.5t-82 -222.5q41 68 121 102t199 34q236 0 354.5 -133.5t118.5 -399.5q0 -267 -123 -404t-362 -137q-252 0 -369 136.5t-117 496.5zM256 516 q0 -208 81 -312t243 -104q161 0 242 104t81 312t-78.5 308t-244.5 100q-167 0 -245.5 -100t-78.5 -308zM580 1081z" />
<glyph unicode="&#x432;" horiz-adv-x="1087" d="M143 47v1008l326 6q312 0 395.5 -65t83.5 -208q0 -142 -106 -217q-25 -16 -25 -24q0 -9 23 -21q71 -34 103 -89.5t32 -145.5q0 -159 -102.5 -229t-407.5 -70q-42 0 -156 3.5t-129.5 5t-26 12.5t-10.5 34zM295 125q111 -4 215 -4q177 0 239 33t62 139q0 60 -20.5 100.5 t-48.5 62t-83 21.5h-364v-352zM295 600h362q72 0 100.5 55.5t28.5 108.5q0 110 -64.5 140t-213.5 30q-130 0 -213 -6v-328z" />
<glyph unicode="&#x433;" horiz-adv-x="752" d="M143 47v1008h568v-123h-416v-932h-109q-43 0 -43 47z" />
<glyph unicode="&#x434;" horiz-adv-x="1196" d="M61 141h117q119 220 194.5 448.5t106.5 465.5h486q43 0 43 -47v-867h92q43 0 43 -47v-309h-92q-43 0 -43 47v168h-811v-215h-93q-43 0 -43 47v309zM346 141h510v793h-256q-30 -195 -93.5 -393.5t-160.5 -399.5z" />
<glyph unicode="&#x435;" horiz-adv-x="1047" d="M92 528q0 131 29.5 233.5t87 173t142 107.5t194.5 37q96 0 173.5 -25.5t132.5 -71.5t84.5 -109.5t29.5 -139.5q0 -75 -23.5 -131t-67.5 -94q-60 -54 -153 -76t-209 -22q-56 0 -102 4.5t-80 9.5q-40 6 -72 14q9 -99 39 -164t79.5 -103t118 -53.5t154.5 -15.5q32 0 73.5 5 t79.5 11q44 7 91 17l20 -108q-49 -15 -102 -26q-45 -10 -100 -18t-107 -8q-261 0 -386.5 143t-125.5 410zM254 557q37 -14 97 -23.5t147 -9.5q111 0 175 21t95 63q17 25 25 55.5t8 65.5q0 48 -14.5 90t-46 73.5t-80.5 50t-117 18.5q-59 0 -103 -18t-76 -48.5t-53 -71 t-34 -85.5t-18 -91.5t-5 -89.5z" />
<glyph unicode="&#x436;" horiz-adv-x="1556" d="M20 0l416 557l-340 498h142q24 0 36.5 -10t95.5 -136l191 -291h144v437h104q43 0 43 -47v-390h143l196 298q79 121 91.5 130t36.5 9h141l-340 -498l416 -557h-154q-25 0 -39 10.5t-117 155.5l-235 332h-139v-498h-104q-43 0 -43 47v451h-140l-209 -296 q-117 -165 -126.5 -176.5t-22.5 -18.5t-33 -7h-154z" />
<glyph unicode="&#x437;" horiz-adv-x="958" d="M59 29l35 116q127 -43 287 -43q149 0 224 47t75 142q0 117 -75 155.5t-232 38.5h-174v129h178q151 0 212.5 44t61.5 145q0 75 -60.5 113t-180.5 38q-136 0 -277 -57l-39 127q163 57 318 57q206 0 303.5 -62.5t97.5 -205.5q0 -70 -30 -119.5t-70 -72.5q-68 -40 -68 -52 q0 -9 78 -45q123 -57 123 -223q0 -156 -115 -241t-342 -85q-194 0 -330 54z" />
<glyph unicode="&#x438;" horiz-adv-x="1192" d="M143 47v1008h109q43 0 43 -43v-832l561 875h150q43 0 43 -47v-1008h-109q-43 0 -43 47v838l-571 -885h-138q-45 0 -45 47z" />
<glyph unicode="&#x439;" horiz-adv-x="1192" d="M143 47v1008h109q43 0 43 -43v-832l561 875h150q43 0 43 -47v-1008h-109q-43 0 -43 47v838l-571 -885h-138q-45 0 -45 47zM297 1438h100q22 0 35.5 -9.5t30.5 -27.5q21 -28 41 -44t38.5 -24.5t35.5 -11t32 -2.5t32 2.5t36 11t39.5 24.5t42.5 44q15 18 29.5 27.5t35.5 9.5 h93q-19 -50 -51.5 -93t-74 -75t-90.5 -50t-100 -18q-56 0 -104.5 16.5t-87.5 47.5t-67.5 74.5t-45.5 97.5z" />
<glyph unicode="&#x43a;" horiz-adv-x="1044" d="M143 47v1008h109q43 0 43 -47v-390h164l212 301q83 119 95.5 127.5t36.5 8.5h145l-360 -496l436 -559h-158q-22 0 -36.5 8.5t-64.5 75.5l-310 414h-160v-498h-109q-43 0 -43 47z" />
<glyph unicode="&#x43b;" horiz-adv-x="1096" d="M12 0l11 111q43 -7 81 -7q82 0 105 58.5t38 338.5t15 554h647q43 0 43 -47v-1008h-108q-43 0 -43 47v887h-400q-4 -198 -15.5 -434t-29 -330.5t-59 -139t-133.5 -44.5q-78 0 -152 14z" />
<glyph unicode="&#x43c;" horiz-adv-x="1507" d="M123 0l127 1055h172q44 0 59 -47l271 -861l309 908h184q40 0 45 -51l94 -1004h-108q-46 0 -49 45l-74 887l-317 -932h-142q-37 0 -53 49l-276 877l-95 -883q-2 -24 -11.5 -33.5t-35.5 -9.5h-100z" />
<glyph unicode="&#x43d;" horiz-adv-x="1155" d="M143 47v1008h109q43 0 43 -47v-408h565v455h109q43 0 43 -47v-1008h-109q-43 0 -43 47v430h-565v-477h-109q-43 0 -43 47z" />
<glyph unicode="&#x43e;" horiz-adv-x="1159" d="M94 528q0 271 124 412t362 141t361.5 -140.5t123.5 -412.5q0 -270 -124.5 -411.5t-360.5 -141.5q-238 0 -362 140.5t-124 412.5zM256 528q0 -212 80 -320t244 -108t243.5 107.5t79.5 320.5q0 214 -79.5 321t-243.5 107t-244 -108t-80 -320z" />
<glyph unicode="&#x43f;" horiz-adv-x="1145" d="M143 47v1008h815q43 0 43 -47v-1008h-108q-43 0 -43 47v866h-555v-913h-109q-43 0 -43 47z" />
<glyph unicode="&#x440;" horiz-adv-x="1110" d="M123 -317v1372h57q32 0 45.5 -5.5t22.5 -19.5q12 -17 18.5 -28t20.5 -11q12 0 20.5 4.5t24.5 14.5q24 15 53.5 27.5t63 21.5t69.5 14.5t72 5.5q89 0 167 -32t136 -99t91.5 -170.5t33.5 -247.5t-36 -248.5t-96 -172.5t-137 -101t-159 -33q-81 0 -146 22t-116 48 q-23 12 -33 12q-11 0 -16 -10t-5 -33v-379h-108q-23 0 -33 11.5t-10 36.5zM274 238q0 -17 3 -24.5t20 -20.5q10 -9 30.5 -22.5t50.5 -27t68.5 -23t85.5 -9.5q67 0 126 21.5t103 70.5t69.5 128.5t25.5 196.5q0 204 -78.5 310t-236.5 106q-53 0 -93.5 -9.5t-70.5 -23t-50 -27 t-30 -22.5q-14 -12 -18.5 -19t-4.5 -24v-581z" />
<glyph unicode="&#x441;" horiz-adv-x="920" d="M92 524q0 149 37 254.5t102 172t153 97.5t191 31q97 0 164.5 -15.5t108.5 -29.5l-41 -96q-11 -23 -17.5 -33t-15.5 -10q-6 0 -10.5 2t-11.5 6.5t-17 10.5t-28 14q-20 9 -53.5 16.5t-71.5 7.5q-78 0 -139 -22.5t-103 -73.5t-64 -132t-22 -198q0 -101 18.5 -179.5 t60 -132.5t107 -82.5t160.5 -29.5q37 0 76.5 4.5t72.5 9.5q39 6 76 15l21 -108q-40 -13 -87 -24q-41 -9 -94 -16.5t-114 -7.5q-105 0 -190 32t-145 99.5t-92 171t-32 246.5z" />
<glyph unicode="&#x442;" horiz-adv-x="881" d="M41 930v125h799v-125h-324v-930h-151v930h-324z" />
<glyph unicode="&#x443;" horiz-adv-x="1114" d="M133 328v727h109q43 0 43 -47v-639q0 -70 12.5 -119t42 -80t78.5 -45t123 -14q53 0 95.5 9.5t75 23t54 27t31.5 22.5q16 13 19 20.5t3 24.5v817h109q43 0 43 -47v-1008q0 -140 -30 -229t-82.5 -140t-124 -70.5t-154.5 -19.5q-47 0 -86.5 8t-73 21.5t-61 31t-48.5 35.5 q-50 42 -82 97l88 82q29 -40 67 -71q32 -27 79 -49t108 -22q51 0 96 12t79 40.5t53.5 75t19.5 116.5v96q0 23 -4.5 33t-15.5 10q-12 0 -33 -12q-51 -26 -116.5 -48t-145.5 -22q-186 0 -278.5 86t-92.5 267z" />
<glyph unicode="&#x444;" horiz-adv-x="1536" d="M92 514q0 274 135 411.5t406 137.5h59v426h109q43 0 43 -47v-379h59q270 0 405.5 -130t135.5 -390q0 -275 -135.5 -412t-405.5 -137h-59v-359h-109q-43 0 -43 48v311h-59q-271 0 -406 130t-135 390zM254 528q0 -198 95 -303.5t274 -105.5h69v819h-69q-178 0 -273.5 -106 t-95.5 -304zM844 119h69q179 0 274 106t95 303q0 199 -95 304.5t-274 105.5h-69v-819z" />
<glyph unicode="&#x445;" horiz-adv-x="1006" d="M41 1055h139q23 0 36.5 -8t29.5 -33l256 -393l246 393q15 25 28.5 33t36.5 8h141l-348 -525l359 -530h-142q-23 0 -36.5 8t-28.5 33l-256 391l-254 -391q-16 -25 -29.5 -33t-36.5 -8h-139l356 528z" />
<glyph unicode="&#x446;" horiz-adv-x="1194" d="M143 47v1008h109q43 0 43 -47v-867h555v914h108q43 0 43 -47v-867h97q43 0 43 -47v-309h-92q-43 0 -43 47v168h-820q-43 0 -43 47zM1145 0z" />
<glyph unicode="&#x447;" horiz-adv-x="1047" d="M94 680v375h109q43 0 43 -47v-308q0 -118 56 -177.5t183 -59.5q101 0 166.5 25.5t83 43.5t17.5 48v475h108q43 0 43 -47v-1008h-108q-43 0 -43 47v305q0 43 -21 43q-4 0 -33 -14q-110 -53 -245 -53q-174 0 -266.5 91.5t-92.5 260.5z" />
<glyph unicode="&#x448;" horiz-adv-x="1663" d="M143 47v1008h109q43 0 43 -47v-867h461v914h108q43 0 43 -47v-867h461v914h109q43 0 43 -47v-1008h-1334q-43 0 -43 47z" />
<glyph unicode="&#x449;" horiz-adv-x="1712" d="M143 47v1008h109q43 0 43 -47v-867h461v914h108q43 0 43 -47v-867h461v914h109q43 0 43 -47v-867h96q43 0 43 -47v-309h-92q-43 0 -43 47v168h-1338q-43 0 -43 47zM1663 0z" />
<glyph unicode="&#x44a;" horiz-adv-x="1268" d="M41 930v125h432q43 0 43 -47v-408h287q218 0 305.5 -72.5t87.5 -216.5q0 -177 -106.5 -247t-352.5 -70q-318 0 -345 7t-27 46v883h-324zM516 125q119 -4 252 -4q177 0 220.5 45t43.5 133q0 110 -60 144t-179 34h-277v-352z" />
<glyph unicode="&#x44b;" horiz-adv-x="1362" d="M143 47v1008h109q43 0 43 -47v-408h246q218 0 305.5 -72.5t87.5 -216.5q0 -177 -106.5 -247t-352.5 -70q-296 0 -314 12t-18 41zM295 125q109 -4 211 -4q177 0 220.5 45t43.5 133q0 110 -60 144t-180 34h-235v-352zM1067 47v1008h109q43 0 43 -47v-1008h-109 q-43 0 -43 47z" />
<glyph unicode="&#x44c;" horiz-adv-x="1047" d="M143 47v1008h109q43 0 43 -47v-408h287q218 0 305.5 -72.5t87.5 -216.5q0 -177 -106.5 -247t-352.5 -70q-318 0 -345.5 7t-27.5 46zM295 125q119 -4 252 -4q177 0 220.5 45t43.5 133q0 87 -46 132.5t-194 45.5h-276v-352z" />
<glyph unicode="&#x44d;" horiz-adv-x="936" d="M72 18l24 117q122 -33 244 -33q168 0 250.5 93t91.5 284h-479v125h477q-14 174 -92.5 261t-220.5 87q-74 0 -152 -32q-54 -23 -57 -23q-14 0 -20.5 14.5t-37.5 112.5q135 55 281 55q231 0 347 -133.5t116 -400.5q0 -277 -129 -423.5t-371 -146.5q-137 0 -272 43z" />
<glyph unicode="&#x44e;" horiz-adv-x="1554" d="M143 47v1008h109q43 0 43 -47v-408h258q16 237 132.5 359t320.5 122q221 0 337.5 -141.5t116.5 -411.5q0 -269 -116.5 -411t-337.5 -142q-210 0 -327 127.5t-128 374.5h-256v-477h-109q-43 0 -43 47zM713 528q0 -214 73 -321t220 -107q146 0 219 107t73 321t-73 321 t-219 107q-147 0 -220 -107t-73 -321z" />
<glyph unicode="&#x44f;" horiz-adv-x="1124" d="M162 0q31 300 37 335.5t32 67.5t61.5 50t35.5 30q0 13 -29 25q-117 50 -117 229q0 182 108 255t343 73q269 0 301.5 -9t32.5 -44v-1012h-105q-47 0 -47 49v371h-323q-138 0 -150 -137l-20 -230q-2 -27 -15 -40t-43 -13h-102zM340 748q0 -78 25.5 -127t49 -61.5 t93.5 -12.5h307v387l-188 4q-149 0 -218 -39t-69 -151z" />
<glyph unicode="&#x451;" horiz-adv-x="1047" d="M92 528q0 131 29.5 233.5t87 173t142 107.5t194.5 37q96 0 173.5 -25.5t132.5 -71.5t84.5 -109.5t29.5 -139.5q0 -75 -23.5 -131t-67.5 -94q-60 -54 -153 -76t-209 -22q-56 0 -102 4.5t-80 9.5q-40 6 -72 14q9 -99 39 -164t79.5 -103t118 -53.5t154.5 -15.5q32 0 73.5 5 t79.5 11q44 7 91 17l20 -108q-49 -15 -102 -26q-45 -10 -100 -18t-107 -8q-261 0 -386.5 143t-125.5 410zM254 557q37 -14 97 -23.5t147 -9.5q111 0 175 21t95 63q17 25 25 55.5t8 65.5q0 48 -14.5 90t-46 73.5t-80.5 50t-117 18.5q-59 0 -103 -18t-76 -48.5t-53 -71 t-34 -85.5t-18 -91.5t-5 -89.5zM266 1241v191h198v-191h-198zM632 1241v191h199v-191h-199z" />
<glyph unicode="&#x452;" horiz-adv-x="1126" d="M-10 1198v119h153v172h109q43 0 43 -47v-125h403v-119h-403v-178q0 -43 20 -43q12 0 33 12q135 70 262 70q191 0 287 -88t96 -264v-691q0 -218 -80.5 -315.5t-255.5 -97.5q-144 0 -251 71l55 109q91 -53 186 -53q103 0 149 55t46 195v686q0 147 -59 202.5t-203 55.5 q-84 0 -147 -22t-94.5 -44.5t-37.5 -31t-6 -27.5v-799h-109q-43 0 -43 47v1151h-153z" />
<glyph unicode="&#x453;" horiz-adv-x="752" d="M143 47v1008h568v-123h-416v-932h-109q-43 0 -43 47zM285 1212l223 199q15 13 26 20t21 10.5t20 4t21 0.5h185l-275 -197q-29 -21 -50 -29t-46 -8h-125z" />
<glyph unicode="&#x454;" horiz-adv-x="920" d="M92 524q0 284 132 419.5t351 135.5q141 0 273 -45q-48 -113 -54.5 -126t-19.5 -13q-8 0 -23 9q-76 48 -169 48q-150 0 -231.5 -87t-94.5 -261h477v-125h-479q8 -189 94.5 -283t251.5 -94q92 0 225 29l21 -108q-145 -48 -295 -48q-224 0 -341.5 139.5t-117.5 409.5z" />
<glyph unicode="&#x455;" horiz-adv-x="887" d="M82 754q0 56 16.5 114t61.5 105.5t125 77.5t207 30q98 0 163.5 -15.5t106.5 -29.5l-39 -96q-9 -23 -15.5 -33t-17.5 -10q-5 0 -10 3t-12.5 8t-20 12t-33.5 16q-45 18 -118 18q-70 0 -118 -13t-78 -36.5t-43 -57t-13 -75.5q0 -51 16.5 -81.5t48.5 -49.5t78.5 -30.5 t106.5 -22.5q81 -15 140 -39.5t97 -60t56 -83.5t18 -110q0 -155 -99 -237.5t-313 -82.5q-51 0 -104 7.5t-98 17.5q-52 11 -101 25l21 112q39 -10 85 -18q39 -7 90.5 -12t108.5 -5q120 0 184 41.5t64 139.5q0 36 -9 65.5t-33.5 52.5t-69 40t-115.5 28q-80 12 -142 31t-105 51 t-65 81t-22 122z" />
<glyph unicode="&#x456;" horiz-adv-x="451" d="M121 1307v182h209v-182h-209zM150 47v1008h108q23 0 33 -11.5t10 -35.5v-1008h-108q-23 0 -33 11t-10 36z" />
<glyph unicode="&#x457;" horiz-adv-x="451" d="M-57 1241v191h198v-191h-198zM150 47v1008h108q23 0 33 -11.5t10 -35.5v-1008h-108q-23 0 -33 11t-10 36zM309 1241v191h199v-191h-199z" />
<glyph unicode="&#x458;" horiz-adv-x="463" d="M-51 -444l10 110q20 -2 33.5 -3.5t22.5 -2t15 -0.5h11q37 0 61 10t38 32t19 55.5t5 80.5v1217h108q23 0 33 -11.5t10 -35.5v-1158q0 -76 -10.5 -133.5t-35 -96.5t-66 -59t-103.5 -20q-41 0 -74 3.5t-77 11.5zM135 1307v182h209v-182h-209z" />
<glyph unicode="&#x459;" horiz-adv-x="1696" d="M4 0l10 111q44 -7 82 -7q82 0 104.5 58.5t38 338.5t15.5 554h647q43 0 43 -47v-408h287q218 0 305.5 -72.5t87.5 -216.5q0 -177 -106.5 -247t-352.5 -70q-318 0 -345 7t-27 46v887h-400q-4 -198 -15.5 -434t-29 -330.5t-59 -139t-133.5 -44.5q-79 0 -152 14zM944 125 q119 -4 252 -4q177 0 220.5 45t43.5 133q0 87 -45.5 132.5t-193.5 45.5h-277v-352z" />
<glyph unicode="&#x45a;" horiz-adv-x="1763" d="M143 47v1008h109q43 0 43 -47v-408h565v455h109q43 0 43 -47v-408h286q219 0 306.5 -72.5t87.5 -216.5q0 -177 -106.5 -247t-352.5 -70q-318 0 -345.5 7t-27.5 46v430h-565v-477h-109q-43 0 -43 47zM1012 125q119 -4 252 -4q177 0 220.5 45t43.5 133q0 87 -46 132.5 t-194 45.5h-276v-352z" />
<glyph unicode="&#x45b;" horiz-adv-x="1126" d="M-10 1198v119h153v172h109q43 0 43 -47v-125h403v-119h-403v-178q0 -43 20 -43q12 0 33 12q135 70 262 70q191 0 287 -88t96 -264v-707h-108q-43 0 -43 47v619q0 147 -59 202.5t-203 55.5q-84 0 -147 -22t-94.5 -44.5t-37.5 -31t-6 -27.5v-799h-109q-43 0 -43 47v1151 h-153z" />
<glyph unicode="&#x45c;" horiz-adv-x="1044" d="M143 47v1008h109q43 0 43 -47v-390h164l212 301q83 119 95.5 127.5t36.5 8.5h145l-360 -496l436 -559h-158q-22 0 -36.5 8.5t-64.5 75.5l-310 414h-160v-498h-109q-43 0 -43 47zM375 1212l223 199q15 13 26 20t21 10.5t20 4t21 0.5h185l-275 -197q-29 -21 -50 -29t-46 -8 h-125z" />
<glyph unicode="&#x45e;" horiz-adv-x="1114" d="M133 328v727h109q43 0 43 -47v-639q0 -70 12.5 -119t42 -80t78.5 -45t123 -14q53 0 95.5 9.5t75 23t54 27t31.5 22.5q16 13 19 20.5t3 24.5v817h109q43 0 43 -47v-1008q0 -140 -30 -229t-82.5 -140t-124 -70.5t-154.5 -19.5q-47 0 -86.5 8t-73 21.5t-61 31t-48.5 35.5 q-50 42 -82 97l88 82q29 -40 67 -71q32 -27 79 -49t108 -22q51 0 96 12t79 40.5t53.5 75t19.5 116.5v96q0 23 -4.5 33t-15.5 10q-12 0 -33 -12q-51 -26 -116.5 -48t-145.5 -22q-186 0 -278.5 86t-92.5 267zM246 1438h100q22 0 35.5 -9.5t30.5 -27.5q21 -28 41 -44 t38.5 -24.5t35.5 -11t32 -2.5t32 2.5t36 11t39.5 24.5t42.5 44q15 18 29.5 27.5t35.5 9.5h93q-19 -50 -51.5 -93t-74 -75t-90.5 -50t-100 -18q-56 0 -104.5 16.5t-87.5 47.5t-67.5 74.5t-45.5 97.5z" />
<glyph unicode="&#x45f;" horiz-adv-x="1145" d="M143 47v1008h109q43 0 43 -47v-867h555v914h108q43 0 43 -47v-1008h-360v-215h-92q-43 0 -43 47v168h-320q-43 0 -43 47z" />
<glyph unicode="&#x490;" horiz-adv-x="1075" d="M184 47v1442h707v242h100q43 0 43 -48v-335h-692v-1348h-115q-43 0 -43 47z" />
<glyph unicode="&#x491;" horiz-adv-x="752" d="M143 47v1008h432v233h93q43 0 43 -47v-309h-416v-932h-109q-43 0 -43 47z" />
<glyph unicode="&#x492;" horiz-adv-x="1051" d="M23 698v133h161v658h850v-141h-692v-517h363v-133h-363v-698h-115q-43 0 -43 47v651h-161z" />
<glyph unicode="&#x493;" horiz-adv-x="752" d="M41 504v119h102v432h568v-123h-416v-309h240v-119h-240v-504h-109q-43 0 -43 47v457h-102z" />
<glyph unicode="&#x49a;" horiz-adv-x="1323" d="M184 47v1442h117q43 0 43 -47v-596h215l440 602q30 41 70 41h148l-508 -696l499 -646h62q43 0 43 -47v-336h-99q-43 0 -43 48v188h-18q-36 0 -70 41l-518 661h-221v-702h-117q-43 0 -43 47z" />
<glyph unicode="&#x49b;" horiz-adv-x="1044" d="M143 47v1008h109q43 0 43 -47v-390h164l278 396q29 41 66 41h145l-360 -496l323 -418h60q43 0 43 -47v-309h-92q-43 0 -43 47v168h-13q-40 0 -69 41l-342 457h-160v-498h-109q-43 0 -43 47z" />
<glyph unicode="&#x4b2;" horiz-adv-x="1243" d="M41 1489h143q38 0 66 -41l371 -588l356 588q25 41 65 41h146l-465 -741l385 -601h51q43 0 43 -47v-336h-98q-43 0 -43 48v188q-44 0 -72 41l-368 582l-369 -582q-26 -41 -66 -41h-143l477 745z" />
<glyph unicode="&#x4b3;" horiz-adv-x="1006" d="M41 1055h139q37 0 66 -41l256 -393l246 393q26 41 65 41h141l-348 -525l262 -389h54q43 0 43 -47v-309h-93q-43 0 -43 47v168q-45 0 -71 41l-256 391l-254 -391q-27 -41 -66 -41h-139l356 528z" />
<glyph unicode="&#x2000;" horiz-adv-x="1011" />
<glyph unicode="&#x2001;" horiz-adv-x="2023" />
<glyph unicode="&#x2002;" horiz-adv-x="1011" />
<glyph unicode="&#x2003;" horiz-adv-x="2023" />
<glyph unicode="&#x2004;" horiz-adv-x="674" />
<glyph unicode="&#x2005;" horiz-adv-x="505" />
<glyph unicode="&#x2006;" horiz-adv-x="337" />
<glyph unicode="&#x2007;" horiz-adv-x="337" />
<glyph unicode="&#x2008;" horiz-adv-x="252" />
<glyph unicode="&#x2009;" horiz-adv-x="404" />
<glyph unicode="&#x200a;" horiz-adv-x="112" />
<glyph unicode="&#x2010;" horiz-adv-x="780" d="M123 481v144h534v-144h-534z" />
<glyph unicode="&#x2011;" horiz-adv-x="780" d="M123 481v144h534v-144h-534z" />
<glyph unicode="&#x2012;" horiz-adv-x="780" d="M123 481v144h534v-144h-534z" />
<glyph unicode="&#x2013;" horiz-adv-x="1167" d="M143 479v146h881v-146h-881z" />
<glyph unicode="&#x2014;" horiz-adv-x="2048" d="M143 479v146h1762v-146h-1762z" />
<glyph unicode="&#x2018;" horiz-adv-x="360" d="M82 1069v137q0 80 24.5 137t54.5 94q34 43 79 72l59 -63q-28 -26 -49 -57q-19 -26 -34 -61.5t-15 -76.5h90v-182h-209z" />
<glyph unicode="&#x2019;" horiz-adv-x="360" d="M61 1112q27 26 49 57q19 26 34.5 61t15.5 77h-90v182h209v-137q0 -40 -7 -74.5t-18 -63t-25 -52t-29 -41.5q-35 -43 -79 -72z" />
<glyph unicode="&#x201a;" horiz-adv-x="360" d="M61 -195q27 26 49 57q19 26 34.5 61t15.5 77h-90v182h209v-137q0 -40 -7 -74.5t-18 -63t-25 -52t-29 -41.5q-35 -43 -79 -72z" />
<glyph unicode="&#x201c;" horiz-adv-x="702" d="M82 1069v137q0 80 24.5 137t54.5 94q34 43 79 72l59 -63q-28 -26 -49 -57q-19 -26 -34 -61.5t-15 -76.5h90v-182h-209zM424 1069v137q0 80 24.5 137t54.5 94q34 43 79 72l59 -63q-28 -26 -49 -57q-19 -26 -34 -61.5t-15 -76.5h90v-182h-209z" />
<glyph unicode="&#x201d;" horiz-adv-x="702" d="M61 1112q27 26 49 57q19 26 34.5 61t15.5 77h-90v182h209v-137q0 -40 -7 -74.5t-18 -63t-25 -52t-29 -41.5q-35 -43 -79 -72zM403 1112q27 26 49 57q19 26 34.5 61t15.5 77h-90v182h209v-137q0 -40 -7 -74.5t-18 -63t-25 -52t-29 -41.5q-35 -43 -79 -72z" />
<glyph unicode="&#x201e;" horiz-adv-x="702" d="M61 -195q27 26 49 57q19 26 34.5 61t15.5 77h-90v182h209v-137q0 -40 -7 -74.5t-18 -63t-25 -52t-29 -41.5q-35 -43 -79 -72zM403 -195q27 26 49 57q19 26 34.5 61t15.5 77h-90v182h209v-137q0 -40 -7 -74.5t-18 -63t-25 -52t-29 -41.5q-35 -43 -79 -72z" />
<glyph unicode="&#x2020;" horiz-adv-x="1075" d="M61 905v131h412v453h88q23 0 33 -11t10 -36v-406h410v-131h-410v-1270h-88q-23 0 -33 11.5t-10 36.5v1222h-412z" />
<glyph unicode="&#x2021;" horiz-adv-x="1075" d="M61 86v131h412v688h-412v131h412v453h88q23 0 33 -11t10 -36v-406h410v-131h-410v-688h410v-131h-412v-453h-88q-23 0 -33 11.5t-10 36.5v405h-410z" />
<glyph unicode="&#x2022;" horiz-adv-x="799" d="M205 745q0 52 16.5 91t43.5 64t62 37.5t72 12.5q38 0 73 -12.5t62 -37.5t43.5 -64t16.5 -91q0 -51 -16.5 -89.5t-43.5 -64t-62 -38t-73 -12.5q-37 0 -72 12.5t-62 38t-43.5 64t-16.5 89.5z" />
<glyph unicode="&#x2026;" horiz-adv-x="1352" d="M121 0v182h209v-182h-209zM571 0v182h209v-182h-209zM1022 0v182h209v-182h-209z" />
<glyph unicode="&#x202f;" horiz-adv-x="404" />
<glyph unicode="&#x2030;" horiz-adv-x="2703" d="M131 1153q0 92 27.5 160.5t76 114t116 68t147.5 22.5t146.5 -22.5t114.5 -68t74.5 -114t26.5 -160.5t-26.5 -160.5t-74.5 -114t-114.5 -68t-146.5 -22.5t-147.5 22.5t-116 68t-76 114t-27.5 160.5zM289 1153q0 -61 15 -106.5t42.5 -76t66 -46t85.5 -15.5q102 0 154.5 58 t52.5 186q0 122 -54 183t-153 61q-48 0 -86.5 -13.5t-65.5 -43t-42 -76t-15 -111.5zM395 0l856 1448q14 25 28.5 33t37.5 8h129l-854 -1448q-14 -25 -28.5 -33t-37.5 -8h-131zM995 342q0 92 27.5 160.5t76 114t116 68t147.5 22.5t146.5 -22.5t114.5 -68t74.5 -114 t26.5 -160.5t-26.5 -160.5t-74.5 -114t-114.5 -68t-146.5 -22.5t-147.5 22.5t-116 68t-76 114t-27.5 160.5zM1153 342q0 -61 15 -106.5t42.5 -76t66 -46t85.5 -15.5q102 0 154.5 58t52.5 186q0 122 -54 183t-153 61q-48 0 -86.5 -13.5t-65.5 -43t-42 -76t-15 -111.5z M1843 342q0 92 27.5 160.5t76 114t116 68t147.5 22.5t146.5 -22.5t114.5 -68t74.5 -114t26.5 -160.5t-26.5 -160.5t-74.5 -114t-114.5 -68t-146.5 -22.5t-147.5 22.5t-116 68t-76 114t-27.5 160.5zM2001 342q0 -61 15 -106.5t42.5 -76t66 -46t85.5 -15.5q102 0 154.5 58 t52.5 186q0 122 -54 183t-153 61q-48 0 -86.5 -13.5t-65.5 -43t-42 -76t-15 -111.5z" />
<glyph unicode="&#x2039;" horiz-adv-x="676" d="M82 743l287 392q20 21 34 31t37 10h121l-319 -426l331 -443h-131q-23 0 -38 9.5t-35 31.5z" />
<glyph unicode="&#x203a;" horiz-adv-x="676" d="M82 1176h131q23 0 38.5 -10t35.5 -31l286 -396l-286 -391q-20 -22 -34.5 -31.5t-37.5 -9.5h-121l320 426z" />
<glyph unicode="&#x2044;" horiz-adv-x="965" d="M-61 -66l913 1545q15 24 26.5 33.5t34.5 9.5h113l-917 -1545q-16 -24 -27.5 -33.5t-34.5 -9.5h-108z" />
<glyph unicode="&#x205f;" horiz-adv-x="505" />
<glyph unicode="&#x20ac;" horiz-adv-x="1219" d="M82 547v137h123v66v47.5t2 46.5h-125v137h137q21 142 67.5 244t116 167.5t161 96.5t202.5 31q82 0 155 -12.5t128 -26.5q64 -18 118 -39l-47 -137q-9 -23 -26 -23q-15 0 -35 14q-51 34 -122 56t-165 22q-71 0 -133 -19.5t-112.5 -65t-86 -121t-53.5 -187.5h533v-137h-547 q-2 -23 -2 -46.5v-47.5v-66h549v-137h-541q12 -123 41.5 -205.5t81.5 -132t128 -70t181 -20.5q43 0 87.5 3.5t87 9t82.5 12t75 12.5l22 -121q-38 -10 -83.5 -20.5t-96 -19.5t-103.5 -14.5t-106 -5.5q-134 0 -233.5 31t-168 99.5t-108 177.5t-53.5 264h-131z" />
<glyph unicode="&#x2122;" horiz-adv-x="1686" d="M82 1389v100h592v-100h-242v-609h-72q-20 0 -28 9t-8 30v570h-242zM729 780l88 709h119q17 0 25 -6.5t14 -26.5l170 -557l180 590h117q21 0 28.5 -8.5t10.5 -28.5l82 -672h-72q-22 0 -29 8.5t-10 28.5l-63 563l-189 -592h-86q-17 0 -26 10t-17 33l-174 547l-59 -561 q-3 -37 -37 -37h-72z" />
<glyph unicode="&#x25fc;" horiz-adv-x="1055" d="M0 0v1055h1055v-1055h-1055z" />
</font>
</defs>
</svg>
